<svg width="1970" height="384" viewBox="0 0 1970 384" fill="none" xmlns="http://www.w3.org/2000/svg">
<path d="M10.7422 193H43.9453V135.773H100.391V108.625H43.9453V78.7422H106.641V51.5938H10.7422V193ZM135.352 193L144.922 162.727H194.141L203.711 193H239.453L191.602 51.5938H147.461L99.4141 193H135.352ZM152.93 137.336L168.945 86.5547H170.117L186.133 137.336H152.93ZM374.414 51.5938H341.211V134.602H340.039L283.203 51.5938H254.492V193H287.695V109.992H288.672L346.094 193H374.414V51.5938ZM395.898 193H429.102V135.773H485.547V108.625H429.102V78.7422H491.797V51.5938H395.898V193ZM520.508 193L530.078 162.727H579.297L588.867 193H624.609L576.758 51.5938H532.617L484.57 193H520.508ZM538.086 137.336L554.102 86.5547H555.273L571.289 137.336H538.086ZM639.648 193H672.852V144.367H691.406L717.383 193H753.906L724.316 138.996C739.941 131.867 748.926 118 748.828 98.4688C748.926 69.6602 729.297 51.5938 697.461 51.5938H639.648V193ZM672.852 117.805V78.5469H690.43C706.152 78.5469 714.453 85.1875 714.453 98.4688C714.453 111.75 706.152 117.902 690.43 117.805H672.852ZM767.578 193H865.625V165.852H800.781V135.773H860.352V108.625H800.781V78.7422H865.43V51.5938H767.578V193ZM964.648 51.5938H931.445V193H964.648V51.5938ZM1062.5 93.5859H1094.53C1094.24 67.4141 1073.24 49.6406 1040.62 49.6406C1008.59 49.6406 985.449 67.1211 985.547 93.3906C985.547 114.68 1000.49 126.789 1024.8 132.453L1039.65 135.969C1055.27 139.484 1062.5 143.781 1062.7 151.984C1062.5 161.066 1054.1 167.219 1040.04 167.219C1024.9 167.219 1014.65 160.188 1013.87 146.516H981.836C982.422 179.035 1005.18 194.855 1040.43 194.953C1075.59 194.855 1096.39 178.742 1096.48 151.984C1096.39 129.328 1080.57 115.754 1053.32 109.797L1041.02 106.867C1028.32 104.133 1019.73 99.8359 1019.92 91.0469C1020.02 83.0391 1026.95 77.1797 1040.43 77.1797C1054 77.1797 1061.62 83.332 1062.5 93.5859ZM1252.34 102.57H1285.94C1282.42 68.8789 1257.32 49.6406 1223.44 49.6406C1185.74 49.6406 1156.64 75.6172 1156.64 122.297C1156.64 168.781 1185.16 194.953 1223.44 194.953C1261.72 194.953 1283.3 168.977 1285.94 143.781L1252.34 143.586C1249.8 157.453 1239.26 165.656 1224.02 165.656C1203.71 165.656 1190.62 150.812 1190.62 122.297C1190.62 94.7578 1203.42 78.8398 1224.22 78.9375C1240.04 78.8398 1250.49 88.0195 1252.34 102.57ZM1437.89 122.297C1437.99 75.6172 1408.59 49.6406 1370.7 49.6406C1332.62 49.6406 1303.52 75.6172 1303.52 122.297C1303.52 168.684 1332.62 194.953 1370.7 194.953C1408.59 194.953 1437.99 168.879 1437.89 122.297ZM1337.5 122.297C1337.5 94.1719 1350.1 78.8398 1370.7 78.9375C1391.41 78.8398 1404 94.1719 1403.91 122.297C1404 150.422 1391.41 165.656 1370.7 165.656C1350.1 165.656 1337.5 150.422 1337.5 122.297ZM1457.62 51.5938V193H1490.04V104.719H1491.21L1525.59 192.219H1546.68L1581.05 105.109H1582.23V193H1614.65V51.5938H1573.44L1536.91 140.656H1535.35L1498.83 51.5938H1457.62ZM1669.34 51.5938H1636.13V193H1669.34V51.5938ZM1810.74 51.5938H1777.54V134.602H1776.37L1719.53 51.5938H1690.82V193H1724.02V109.992H1725L1782.42 193H1810.74V51.5938ZM1925.2 97.6875H1958.98C1955.37 69.4648 1930.27 49.6406 1897.66 49.6406C1860.06 49.6406 1830.47 76.3008 1830.47 122.492C1830.47 167.219 1857.81 194.953 1898.24 194.953C1934.47 194.953 1960.35 172.297 1960.35 134.602V116.047H1899.8V140.461H1928.32C1927.83 155.793 1917.29 165.656 1898.44 165.656C1877.05 165.656 1864.45 149.738 1864.45 122.102C1864.45 94.6602 1877.64 78.8398 1898.44 78.9375C1912.4 78.8398 1921.97 85.8711 1925.2 97.6875Z" fill="#3B3B3B"/>
<path d="M744.314 341H791.873V331.82H759.256V331.234L773.611 316.684C786.893 303.646 790.604 297.348 790.701 289.438C790.604 277.963 781.18 269.32 767.557 269.32C754.08 269.32 744.217 277.865 744.314 290.805H754.471C754.52 283.285 759.5 278.305 767.361 278.305C774.783 278.305 780.447 282.748 780.447 289.73C780.447 295.932 776.59 300.424 768.826 308.48L744.314 333.188V341ZM828.396 341.977C844.754 341.977 854.324 328.793 854.373 305.648C854.324 282.65 844.607 269.32 828.396 269.32C812.137 269.32 802.42 282.65 802.42 305.648C802.42 328.793 812.039 341.977 828.396 341.977ZM813.162 305.648C813.162 288.07 818.875 278.451 828.396 278.402C837.869 278.451 843.631 288.07 843.631 305.648C843.631 323.275 837.918 332.699 828.396 332.699C818.826 332.699 813.113 323.275 813.162 305.648ZM865.506 341H913.064V331.82H880.447V331.234L894.803 316.684C908.084 303.646 911.795 297.348 911.893 289.438C911.795 277.963 902.371 269.32 888.748 269.32C875.271 269.32 865.408 277.865 865.506 290.805H875.662C875.711 283.285 880.691 278.305 888.553 278.305C895.975 278.305 901.639 282.748 901.639 289.73C901.639 295.932 897.781 300.424 890.018 308.48L865.506 333.188V341ZM924.979 341H972.537V331.82H939.92V331.234L954.275 316.684C967.557 303.646 971.268 297.348 971.365 289.438C971.268 277.963 961.844 269.32 948.221 269.32C934.744 269.32 924.881 277.865 924.979 290.805H935.135C935.184 283.285 940.164 278.305 948.025 278.305C955.447 278.305 961.111 282.748 961.111 289.73C961.111 295.932 957.254 300.424 949.49 308.48L924.979 333.188V341ZM991.385 341.684C995.145 341.635 998.27 338.559 998.318 334.75C998.27 330.941 995.145 327.816 991.385 327.816C987.576 327.816 984.402 330.941 984.451 334.75C984.402 338.559 987.576 341.635 991.385 341.684ZM1029.08 270.297H1018.53L1000.96 281.82V292.074L1017.85 281.039H1018.24V341H1029.08V270.297ZM1071.66 341.977C1088.02 341.977 1097.59 328.793 1097.63 305.648C1097.59 282.65 1087.87 269.32 1071.66 269.32C1055.4 269.32 1045.68 282.65 1045.68 305.648C1045.68 328.793 1055.3 341.977 1071.66 341.977ZM1056.42 305.648C1056.42 288.07 1062.14 278.451 1071.66 278.402C1081.13 278.451 1086.89 288.07 1086.89 305.648C1086.89 323.275 1081.18 332.699 1071.66 332.699C1062.09 332.699 1056.38 323.275 1056.42 305.648ZM1113.06 341.684C1116.82 341.635 1119.95 338.559 1120 334.75C1119.95 330.941 1116.82 327.816 1113.06 327.816C1109.26 327.816 1106.08 330.941 1106.13 334.75C1106.08 338.559 1109.26 341.635 1113.06 341.684ZM1155.06 341.977C1169.71 341.977 1180.59 333.334 1180.54 321.566C1180.59 312.631 1174.98 306.137 1165.31 304.77V304.281C1172.93 302.377 1177.91 296.615 1177.81 288.559C1177.91 278.109 1169.17 269.32 1155.25 269.32C1142.07 269.32 1131.42 277.133 1131.13 288.656H1141.48C1141.73 282.26 1148.07 278.305 1155.15 278.305C1162.62 278.305 1167.46 282.699 1167.46 289.145C1167.46 295.932 1161.84 300.424 1153.79 300.375H1147.73V309.164H1153.79C1163.89 309.213 1169.71 314.193 1169.71 321.176C1169.71 328.061 1163.5 332.699 1154.96 332.699C1147.05 332.699 1140.9 328.744 1140.51 322.543H1129.57C1130.01 334.115 1140.41 341.977 1155.06 341.977ZM1219.22 270.297H1208.67L1191.09 281.82V292.074L1207.99 281.039H1208.38V341H1219.22V270.297Z" fill="#3B3B3B"/>
</svg>
