<svg width="174" height="29" viewBox="0 0 174 29" fill="none" xmlns="http://www.w3.org/2000/svg">
<g clip-path="url(#clip0_497_1306)">
<path d="M8.56888 18.0371V18.1195C8.57133 18.134 8.57133 18.1489 8.56888 18.1634C8.55254 18.1889 8.52991 18.2097 8.50318 18.2238L8.4101 18.2513C8.37074 18.2626 8.329 18.2626 8.28964 18.2513C8.26956 18.2455 8.25114 18.235 8.23591 18.2207C8.22067 18.2064 8.20906 18.1886 8.20204 18.1689V18.125C8.20204 18.125 8.20204 18.0975 8.20204 18.0755H8.30059H8.42105H8.59079L8.56888 18.0371ZM8.50318 17.8009H8.47033H8.30607L8.09253 17.8394L7.87352 17.8668H7.80782H7.72021H7.64355V17.9162C7.64533 17.9382 7.64533 17.9602 7.64355 17.9822C7.64776 18.0002 7.64776 18.019 7.64355 18.0371C7.64587 18.059 7.64587 18.0811 7.64355 18.103H7.75306H7.86804H7.96112H8.05968C8.06305 18.1118 8.06305 18.1216 8.05968 18.1305C8.05968 18.1305 8.05968 18.1304 8.05968 18.1689C8.06155 18.1816 8.06155 18.1946 8.05968 18.2073C8.05831 18.2275 8.05831 18.2476 8.05968 18.2678C8.06914 18.3045 8.0839 18.3397 8.10348 18.3721C8.12146 18.4058 8.14788 18.4342 8.18014 18.4545C8.20961 18.4758 8.24317 18.4908 8.27869 18.4984C8.31866 18.5039 8.35919 18.5039 8.39915 18.4984C8.45416 18.4945 8.50536 18.4688 8.54151 18.427C8.57982 18.3845 8.60294 18.3304 8.60721 18.2733C8.61015 18.2477 8.61015 18.2219 8.60721 18.1964C8.61025 18.1708 8.61025 18.145 8.60721 18.1195C8.61031 18.0939 8.61031 18.0681 8.60721 18.0426C8.60391 18.0079 8.60391 17.9729 8.60721 17.9382V17.8064L8.50318 17.8009Z" fill="#EE5046"/>
<path d="M8.72761 18.8281C8.73813 18.8658 8.73813 18.9057 8.72761 18.9434C8.72259 18.9618 8.71288 18.9786 8.69944 18.9921C8.686 19.0055 8.66929 19.0153 8.65096 19.0203C8.62931 19.0251 8.6069 19.0251 8.58525 19.0203C8.44837 19.0533 8.37171 19.0203 8.34434 18.8775C8.34178 18.8667 8.34178 18.8554 8.34434 18.8446H8.44837H8.55787L8.72214 18.8061C8.72214 18.8061 8.72761 18.8116 8.72761 18.8281ZM7.92822 19.3773C7.92822 19.3773 7.92822 19.3773 7.92822 19.4322C7.92424 19.4559 7.92424 19.48 7.92822 19.5037L7.99392 19.4377L8.12533 19.3114L8.33887 19.1082C8.3619 19.168 8.40432 19.2183 8.45932 19.251C8.51555 19.2736 8.5783 19.2736 8.63453 19.251C8.67734 19.2442 8.71728 19.2251 8.74951 19.1961C8.77886 19.1645 8.80124 19.1271 8.81522 19.0862C8.82343 19.0575 8.82343 19.0271 8.81522 18.9984C8.81854 18.9508 8.81854 18.9031 8.81522 18.8555C8.81522 18.8171 8.81522 18.7841 8.81522 18.7512C8.81777 18.7183 8.81777 18.6852 8.81522 18.6523V18.5535L8.62358 18.6029L8.5086 18.6304L8.25674 18.6853H8.14175L7.97749 18.7182H7.88441H7.85704V18.7677C7.85495 18.7878 7.85495 18.808 7.85704 18.8281C7.85524 18.8464 7.85524 18.8647 7.85704 18.883C7.85704 18.883 7.85704 18.927 7.85704 18.9489H7.92274H7.99939H8.03772L8.28411 18.894L8.22388 18.9489L8.1527 19.0093L7.90084 19.2345C7.91436 19.2755 7.92354 19.3179 7.92822 19.3609V19.3773Z" fill="#EE5046"/>
<path d="M8.27325 19.9045C8.32969 19.8328 8.40584 19.7794 8.49226 19.7507L8.65105 19.7013C8.70183 19.6932 8.75357 19.6932 8.80436 19.7013C8.85543 19.7044 8.90467 19.7215 8.94672 19.7507C8.9708 19.7662 8.99287 19.7847 9.01242 19.8056L9.05074 19.8825C9.06874 19.9262 9.07418 19.974 9.06644 20.0206C9.0587 20.0672 9.03808 20.1107 9.00694 20.1462C8.95137 20.2223 8.87256 20.2783 8.78245 20.3054C8.73293 20.3251 8.68157 20.3399 8.62915 20.3494C8.58204 20.3575 8.5339 20.3575 8.48679 20.3494C8.43157 20.342 8.37897 20.3212 8.33348 20.289C8.28958 20.2581 8.25691 20.2138 8.2404 20.1626C8.22367 20.1203 8.21791 20.0745 8.22365 20.0293C8.2294 19.9842 8.24646 19.9412 8.27325 19.9045V19.9045ZM8.94672 20.4867L9.03979 20.4153C9.06961 20.3859 9.09539 20.3526 9.11645 20.3164C9.13421 20.2818 9.14711 20.2448 9.15478 20.2066C9.16531 20.1503 9.16531 20.0926 9.15478 20.0363C9.15122 19.9755 9.13636 19.9159 9.11097 19.8605C9.08847 19.7906 9.0532 19.7254 9.00694 19.6683C8.96587 19.6117 8.91127 19.5664 8.84816 19.5365C8.78656 19.5001 8.717 19.4793 8.64557 19.4761C8.57283 19.4709 8.49986 19.4822 8.43203 19.509C8.36828 19.5339 8.30908 19.5691 8.25682 19.6134C8.205 19.6565 8.16378 19.711 8.13637 19.7727C8.10945 19.8369 8.09639 19.9062 8.09804 19.9759C8.10209 20.0491 8.11685 20.1212 8.14184 20.1901C8.17212 20.269 8.21667 20.3416 8.27325 20.4043C8.31738 20.4579 8.37126 20.5027 8.43203 20.5361C8.49584 20.572 8.56704 20.5927 8.64009 20.5965C8.71252 20.5964 8.7845 20.5852 8.85363 20.5636L8.94672 20.4867Z" fill="#EE5046"/>
<path d="M9.5216 20.7668L9.55993 20.8163C9.57021 20.8302 9.57937 20.8449 9.58731 20.8602L9.63111 20.9096L9.66944 20.9481L9.57636 21.014L9.50518 21.0634L9.4559 21.1019L9.35735 21.1843C9.37897 21.2187 9.40275 21.2517 9.42852 21.2831L9.48875 21.36L9.56541 21.4589C9.58747 21.4809 9.60762 21.5048 9.62564 21.5303L9.78442 21.3985L9.83917 21.3545L9.92677 21.2776C9.94329 21.293 9.95636 21.3117 9.9651 21.3326C9.9651 21.3326 9.9651 21.371 9.99796 21.371L10.0363 21.4204L10.0746 21.4589L10.0144 21.5028L9.91583 21.5742L9.65301 21.7774L9.5216 21.8873L9.30807 22.0685L9.26974 22.0136V21.9752L9.22046 21.9202L9.18214 21.8818L9.34639 21.7665L9.51065 21.6401L9.56541 21.5962L9.434 21.4259L9.29164 21.2557L9.15476 21.3655L9.0343 21.4699L8.93027 21.5578L8.89194 21.5083V21.4644L8.84266 21.4095C8.84266 21.4095 8.80981 21.3765 8.80981 21.371L8.96312 21.2557L9.23141 21.0579L9.36282 20.9481L9.5216 20.7668Z" fill="#EE5046"/>
<path d="M9.91585 22.3596C9.92428 22.2678 9.95845 22.1802 10.0144 22.107C10.048 22.0624 10.0845 22.0201 10.1239 21.9806C10.1604 21.9465 10.2008 21.917 10.2444 21.8928C10.2904 21.8704 10.341 21.8591 10.3922 21.8598H10.4743L10.551 21.9092C10.5898 21.9354 10.6206 21.9718 10.6399 22.0145C10.6593 22.0572 10.6664 22.1044 10.6605 22.1509C10.6485 22.2445 10.6127 22.3334 10.5565 22.409C10.5245 22.4499 10.4898 22.4885 10.4524 22.5244C10.4159 22.5568 10.3754 22.5844 10.332 22.6068C10.2816 22.6277 10.2277 22.6389 10.1732 22.6397C10.1197 22.6357 10.0685 22.6167 10.0254 22.5848C9.98916 22.5601 9.96002 22.5263 9.94081 22.4868C9.92161 22.4473 9.91301 22.4035 9.91585 22.3596V22.3596ZM10.7919 22.4804C10.8103 22.4461 10.8233 22.409 10.8302 22.3706C10.8387 22.3308 10.8387 22.2896 10.8302 22.2498C10.8367 22.2097 10.8367 22.1689 10.8302 22.1289C10.8117 22.0751 10.7839 22.0249 10.7481 21.9806C10.7118 21.9332 10.6694 21.8907 10.6222 21.8543C10.563 21.8128 10.4986 21.7796 10.4305 21.7554C10.3636 21.7329 10.2929 21.7236 10.2225 21.728C10.1511 21.7319 10.0817 21.7526 10.0199 21.7884C9.95709 21.8237 9.90286 21.8724 9.8611 21.9312C9.81876 21.9879 9.78551 22.0509 9.76254 22.1179C9.74875 22.1813 9.74875 22.2468 9.76254 22.3102C9.77306 22.3793 9.79928 22.4451 9.83919 22.5024C9.88159 22.5633 9.93333 22.6171 9.9925 22.6617C10.0508 22.7059 10.1154 22.7411 10.1841 22.7661C10.2512 22.7771 10.3196 22.7771 10.3867 22.7661C10.4577 22.7602 10.5267 22.7396 10.5893 22.7056C10.6535 22.6679 10.7094 22.6175 10.7536 22.5573C10.7638 22.5321 10.7729 22.5065 10.7809 22.4804H10.7919Z" fill="#EE5046"/>
<path d="M10.9451 22.6287L11.1641 22.2552H11.2024C11.2024 22.3651 11.2024 22.453 11.2024 22.5079C11.2024 22.5628 11.2024 22.6123 11.2024 22.7606V23.0132L11.3448 22.8924L11.7719 22.5134H11.8266C11.7755 22.6855 11.7372 22.8228 11.7117 22.9253C11.6788 23.0352 11.6569 23.1121 11.646 23.167L11.5802 23.4087C11.5797 23.4178 11.5797 23.427 11.5802 23.4361C11.5802 23.4361 11.5802 23.4361 11.5802 23.4691L11.52 23.4416C11.5056 23.4383 11.4906 23.4383 11.4762 23.4416H11.416H11.3667C11.3996 23.3537 11.4379 23.2549 11.4707 23.1395C11.5036 23.0242 11.5364 22.9143 11.5638 22.8045L11.3831 22.9693C11.3174 23.0187 11.2572 23.0736 11.197 23.1286L11.0163 23.2933H10.9889V23.0407V22.81C10.9889 22.7331 10.9889 22.6562 10.9889 22.5793L10.863 22.799L10.7863 22.9473L10.7206 23.0736L10.6823 23.1505H10.644H10.5837L10.644 23.0571L10.7097 22.9528L10.7863 22.8265C10.9123 22.6946 10.9287 22.6562 10.9451 22.6287Z" fill="#EE5046"/>
<path d="M12.4618 22.7167V22.7826C12.4618 22.843 12.429 22.8814 12.4235 22.8979C12.418 22.9144 12.4235 22.9748 12.3852 23.0352C12.3684 23.0779 12.3556 23.122 12.3468 23.167C12.3328 23.2139 12.3219 23.2616 12.314 23.3098C12.314 23.3758 12.303 23.4252 12.2811 23.4581C12.2689 23.5014 12.2597 23.5454 12.2537 23.59V23.6669H12.1935H12.1442H12.0183L12.0731 23.4801C12.1278 23.3099 12.1607 23.2055 12.1716 23.1616V23.0847L12.2154 22.9034C12.2136 22.8778 12.2136 22.8521 12.2154 22.8265C12.2175 22.7899 12.2175 22.7533 12.2154 22.7167H12.2811H12.3249H12.3906H12.4618Z" fill="#EE5046"/>
<path d="M12.6534 23.7657H12.5987H12.533C12.533 23.6724 12.5822 23.568 12.6041 23.4472C12.626 23.3263 12.6425 23.211 12.6589 23.0957L12.6917 22.865V22.7991H12.752C12.7738 22.8018 12.7959 22.8018 12.8177 22.7991L12.9874 23.0517L13.1626 23.3044L13.3324 23.5625L13.3816 23.2494V23.0902C13.3816 23.0902 13.3816 23.0462 13.3816 23.0078C13.3816 22.9693 13.3816 22.9419 13.3816 22.9199H13.42H13.5076V22.9968C13.5102 23.0187 13.5102 23.0408 13.5076 23.0627C13.5076 23.1231 13.5076 23.1616 13.5076 23.1726C13.5076 23.1835 13.5076 23.2659 13.4802 23.3154C13.4528 23.3648 13.4802 23.4087 13.4802 23.4417V23.5845L13.4364 23.8866H13.3981H13.3378C13.2776 23.7987 13.2393 23.7273 13.2119 23.6888L13.086 23.4911L12.9491 23.2989L12.8231 23.1121L12.7903 23.3044V23.4307C12.7903 23.4637 12.7903 23.5405 12.7903 23.6614L12.6534 23.7657Z" fill="#EE5046"/>
<path d="M14.619 22.9474C14.6164 22.9821 14.6164 23.017 14.619 23.0517C14.619 23.0847 14.619 23.1176 14.619 23.1561V23.2989V23.4527C14.6314 23.5291 14.6314 23.607 14.619 23.6834C14.5987 23.7594 14.5496 23.8244 14.4822 23.8646C14.4451 23.8926 14.4019 23.9114 14.3562 23.9195C14.3091 23.928 14.2609 23.928 14.2139 23.9195C14.1268 23.9216 14.0404 23.9028 13.962 23.8646C13.9159 23.8561 13.8726 23.8367 13.8354 23.8081C13.7983 23.7794 13.7685 23.7423 13.7485 23.6998C13.7485 23.6998 13.7485 23.6998 13.7485 23.6669C13.7458 23.6524 13.7458 23.6375 13.7485 23.623C13.7485 23.623 13.7485 23.623 13.7485 23.623C13.7459 23.6121 13.7459 23.6008 13.7485 23.59V22.9694H13.9784V23.0408C13.9784 23.0737 13.9784 23.1341 13.9784 23.2055C13.974 23.2622 13.974 23.3191 13.9784 23.3758V23.5461C13.9757 23.5826 13.9757 23.6193 13.9784 23.6559C13.9746 23.6851 13.9746 23.7146 13.9784 23.7438C13.9884 23.7715 14.0054 23.7961 14.0277 23.8152C14.071 23.8556 14.1274 23.879 14.1865 23.8811C14.2414 23.8843 14.2962 23.873 14.3453 23.8481C14.3907 23.814 14.4266 23.7685 14.4493 23.7163C14.4544 23.6762 14.4544 23.6356 14.4493 23.5955C14.4526 23.5369 14.4526 23.4783 14.4493 23.4197V22.9858H14.5971L14.619 22.9474Z" fill="#EE5046"/>
<path d="M14.8709 23.3758V22.9419H14.9257H14.964L15.0899 23.1616L15.2213 23.3758C15.2651 23.4472 15.3089 23.5186 15.3582 23.59L15.4239 23.4142C15.4951 23.233 15.5608 23.0572 15.6265 22.865H15.6867H15.747C15.7798 23.0353 15.8127 23.1726 15.8346 23.2824C15.8565 23.3923 15.8729 23.4692 15.8893 23.5241L15.9441 23.7712C15.9441 23.7712 15.9441 23.7712 15.9441 23.8042H15.8291H15.7634H15.7086C15.7013 23.6986 15.6848 23.5939 15.6594 23.4911C15.6594 23.3703 15.6156 23.2604 15.5882 23.1506C15.5882 23.2275 15.5334 23.3044 15.5006 23.3813L15.4184 23.6065C15.4184 23.6559 15.3692 23.7383 15.3363 23.8372H15.2816L15.1502 23.6175L15.0297 23.4197C14.9914 23.3538 14.9476 23.2934 14.9092 23.222V23.8756H14.8435H14.7778V23.8481C14.7778 23.8481 14.7778 23.7877 14.7778 23.7383C14.7778 23.6889 14.7778 23.6614 14.7778 23.6175C14.7778 23.5735 14.7778 23.5241 14.7778 23.4746C14.8063 23.4394 14.8374 23.4063 14.8709 23.3758V23.3758Z" fill="#EE5046"/>
<path d="M16.6449 22.8484L16.6121 22.7441H16.6504C16.6875 22.7302 16.7283 22.7302 16.7654 22.7441C16.7837 22.7519 16.7991 22.7653 16.8092 22.7825C16.8234 22.8027 16.8345 22.8249 16.8421 22.8484C16.8501 22.8753 16.8501 22.9039 16.8421 22.9308C16.85 22.9558 16.85 22.9827 16.8421 23.0077C16.8285 23.0268 16.8119 23.0436 16.7928 23.0571L16.7161 23.0846L16.6723 22.9418C16.6605 22.9115 16.6513 22.8803 16.6449 22.8484ZM17.0501 22.9143C17.0636 22.888 17.0706 22.8588 17.0706 22.8292C17.0706 22.7996 17.0636 22.7704 17.0501 22.7441C17.0424 22.71 17.0255 22.6788 17.0014 22.6536C16.9773 22.6285 16.9468 22.6104 16.9132 22.6013C16.8488 22.5829 16.7806 22.5829 16.7161 22.6013L16.519 22.6672L16.3602 22.7111L16.4259 22.8979C16.4588 22.9821 16.4807 23.0425 16.4916 23.0791C16.4916 23.0791 16.4916 23.1395 16.5409 23.2384C16.5902 23.3373 16.5902 23.4141 16.6066 23.4581C16.623 23.502 16.6066 23.524 16.6066 23.557C16.6086 23.588 16.6086 23.6192 16.6066 23.6503L16.7216 23.6064L16.9242 23.546H16.9735H17.0118L17.0939 23.491C17.1201 23.4709 17.1408 23.4444 17.1542 23.4141C17.1815 23.3473 17.1815 23.2723 17.1542 23.2054C17.1442 23.1749 17.1278 23.1468 17.106 23.1231C17.0843 23.0994 17.0578 23.0807 17.0282 23.0681C16.9956 23.063 16.9623 23.063 16.9297 23.0681C16.8989 23.0625 16.8674 23.0625 16.8366 23.0681V23.0681C16.8788 23.0588 16.9184 23.0402 16.9525 23.0136C16.9866 22.987 17.0143 22.9531 17.0337 22.9143H17.0501ZM16.738 23.1505C16.7612 23.1397 16.7864 23.1341 16.8119 23.1341C16.8375 23.1341 16.8627 23.1397 16.8859 23.1505C16.9101 23.1655 16.931 23.1855 16.947 23.2092C16.9631 23.2329 16.9739 23.2596 16.9789 23.2878C16.9928 23.3307 16.9928 23.3768 16.9789 23.4196C16.9695 23.4417 16.9565 23.4621 16.9406 23.4801L16.8749 23.5185H16.8092L16.749 23.3482L16.738 23.1505Z" fill="#EE5046"/>
<path d="M17.1651 22.4804L17.2692 22.431L17.3732 22.3871L17.5375 22.3047L17.6579 22.2388C17.6588 22.2571 17.6588 22.2754 17.6579 22.2937V22.2937L17.5101 22.3596C17.4574 22.3754 17.4061 22.3956 17.3568 22.42L17.4225 22.5573L17.4882 22.7001L17.7784 22.5463C17.7777 22.5592 17.7777 22.572 17.7784 22.5848C17.7784 22.5848 17.7784 22.5848 17.7784 22.6123L17.6634 22.6617L17.5484 22.7166H17.4827L17.5594 22.8814L17.6415 23.0407C17.7346 22.9967 17.8277 22.9418 17.9317 22.8814V22.9363L17.8112 22.9912L17.6962 23.0407L17.5429 23.1231L17.4334 23.1835L17.4006 23.1066L17.2911 22.8594L17.1925 22.6672L17.1213 22.5134L17.083 22.442L17.1651 22.4804Z" fill="#EE5046"/>
<path d="M18.4573 22.8759L18.408 22.9034L18.3642 22.9473C18.315 22.8705 18.2547 22.7771 18.1835 22.6782L17.9755 22.3871L17.8331 22.2059L17.7948 22.1509L17.8496 22.118L17.8934 22.074L18.1945 22.129L18.4956 22.1839L18.7968 22.2388L18.6106 21.9862L18.5121 21.8598L18.4573 21.7939C18.4573 21.7939 18.4135 21.739 18.4026 21.728H18.4354L18.4792 21.7939L18.5121 21.8489L18.5778 21.9477L18.6599 22.0631L18.7311 22.1674L18.8187 22.2828L18.9994 22.5244H18.961C18.9451 22.5377 18.9304 22.5524 18.9172 22.5684L18.6928 22.5189L18.4573 22.4695L18.2274 22.4311L18.0083 22.3926L18.1178 22.5464L18.1945 22.6508L18.3369 22.832L18.4573 22.8759Z" fill="#EE5046"/>
<path d="M18.5941 21.5029C18.6164 21.4725 18.6421 21.4449 18.6708 21.4205L18.7529 21.3381C18.7904 21.2883 18.8306 21.2406 18.8734 21.1953L18.961 21.0909C18.9727 21.1082 18.9875 21.1232 19.0048 21.1349V21.1349L18.8898 21.2502L18.7748 21.3656L18.8789 21.4699L18.9993 21.5743L19.2074 21.3271C19.1811 21.3592 19.1517 21.3886 19.1198 21.415L19.0322 21.5084L18.9829 21.5578L19.1143 21.6841L19.2512 21.805L19.4592 21.5468L19.503 21.5908L19.41 21.6841L19.3224 21.7775L19.2129 21.9038L19.1307 22.0027L19.0705 21.9423L18.8789 21.761L18.7146 21.6127L18.5941 21.4974L18.5284 21.4425L18.5941 21.5029Z" fill="#EE5046"/>
<path d="M19.0377 21.0085L19.1089 20.9206L19.1746 20.8272L19.2732 20.6734L19.3498 20.5526C19.3617 20.5682 19.3766 20.5813 19.3936 20.5911C19.3645 20.636 19.3315 20.6782 19.2951 20.7174L19.202 20.8492L19.3224 20.9371L19.4538 21.025L19.6236 20.7503C19.6236 20.7503 19.6236 20.7503 19.6236 20.7778H19.651L19.5743 20.8822L19.4976 20.9865L19.4538 21.0414L19.5907 21.1348L19.8481 21.2941C19.8384 21.3144 19.8255 21.333 19.8097 21.349L19.7769 21.3875C19.7636 21.4062 19.7526 21.4265 19.744 21.4479V21.4918L19.7714 21.5028L19.5579 21.349L19.3772 21.2227L19.2348 21.1293L19.1691 21.0854C19.1236 21.0628 19.0797 21.0371 19.0377 21.0085Z" fill="#EE5046"/>
<path d="M19.4976 20.2122L19.5579 20.2506L19.6619 20.311L19.7824 20.3824L19.9083 20.4483L20.0397 20.5142L20.1711 20.5802L20.2916 20.6351L20.3627 20.668C20.3548 20.688 20.3437 20.7065 20.3299 20.723V20.7669C20.3095 20.8043 20.2912 20.8428 20.2751 20.8822L20.1054 20.7889C19.9521 20.6955 19.859 20.6406 19.8207 20.6241L19.7495 20.5856L19.5852 20.5033L19.5141 20.4648L19.41 20.4209C19.4234 20.4041 19.4344 20.3856 19.4429 20.3659C19.4439 20.3513 19.4439 20.3366 19.4429 20.322L19.4757 20.2616C19.4821 20.2447 19.4894 20.2282 19.4976 20.2122V20.2122Z" fill="#EE5046"/>
<path d="M20.62 19.608L20.7186 19.6794C20.7241 19.7268 20.7241 19.7748 20.7186 19.8222C20.7091 19.873 20.6944 19.9227 20.6748 19.9705C20.6645 20.0069 20.6498 20.042 20.631 20.0748C20.631 20.0748 20.631 20.0748 20.5926 20.1353L20.5379 20.2012L20.4722 20.2561L20.4065 20.2945H20.3353C20.2885 20.3055 20.2398 20.3055 20.1929 20.2945C20.1401 20.2941 20.088 20.2829 20.0396 20.2616C19.9646 20.2382 19.8956 20.1988 19.8371 20.1462C19.784 20.0966 19.7444 20.0342 19.7221 19.965C19.6978 19.8982 19.6866 19.8273 19.6892 19.7563C19.6978 19.6815 19.7143 19.6078 19.7385 19.5366C19.7385 19.4926 19.7823 19.4432 19.8097 19.3993C19.8383 19.3591 19.8714 19.3222 19.9082 19.2894L19.9685 19.3279L20.0342 19.3718C19.9903 19.3861 19.9494 19.4085 19.9137 19.4377C19.8803 19.4703 19.8542 19.5096 19.8371 19.5531C19.8163 19.5992 19.8084 19.6501 19.8142 19.7004C19.8199 19.7507 19.8392 19.7985 19.8699 19.8387C19.9332 19.9213 20.0187 19.9842 20.1163 20.0199C20.1656 20.0382 20.2172 20.0493 20.2696 20.0529C20.3182 20.0641 20.3688 20.0641 20.4174 20.0529C20.4647 20.0401 20.5081 20.0156 20.5434 19.9815C20.577 19.9438 20.6046 19.9012 20.6255 19.8551C20.6342 19.8098 20.6342 19.7632 20.6255 19.7178C20.6277 19.6811 20.6258 19.6443 20.62 19.608V19.608Z" fill="#EE5046"/>
<path d="M19.9631 18.9269H20.0288L20.1437 18.9653L20.2806 19.0038L20.412 19.0422L20.5544 19.0807L20.7022 19.1136L20.8336 19.1411C20.8589 19.1359 20.885 19.1359 20.9103 19.1411V19.2015C20.9103 19.2015 20.9103 19.2399 20.9103 19.2454C20.9072 19.2875 20.9072 19.3297 20.9103 19.3718L20.7187 19.3168L20.4066 19.218H20.3299L20.1492 19.174H20.0726H19.9631V19.1136C19.9622 19.0972 19.9622 19.0807 19.9631 19.0642C19.9631 19.0642 19.9631 19.0257 19.9631 18.9983V18.9269Z" fill="#EE5046"/>
<path d="M20.8664 18.6083C20.7821 18.6459 20.6881 18.6555 20.5981 18.6357C20.5445 18.628 20.4915 18.6169 20.4393 18.6028C20.391 18.5846 20.345 18.5606 20.3024 18.5314C20.26 18.5024 20.2259 18.4626 20.2039 18.416C20.1978 18.3908 20.1978 18.3644 20.2039 18.3392C20.1988 18.3101 20.1988 18.2803 20.2039 18.2513C20.2079 18.2042 20.2256 18.1593 20.2548 18.1222C20.284 18.0851 20.3234 18.0574 20.3681 18.0426C20.4575 18.0166 20.5525 18.0166 20.6419 18.0426C20.6943 18.0495 20.7457 18.0624 20.7952 18.081C20.8403 18.0963 20.8828 18.1185 20.9211 18.1469C20.9648 18.1806 21.0004 18.2238 21.0252 18.2732C21.0392 18.3235 21.0392 18.3767 21.0252 18.427C21.015 18.4677 20.9953 18.5054 20.9676 18.5369C20.94 18.5685 20.9053 18.5929 20.8664 18.6083V18.6083ZM20.5652 17.7734C20.5271 17.7681 20.4884 17.7681 20.4502 17.7734C20.4097 17.7842 20.371 17.8008 20.3353 17.8229C20.3015 17.845 20.2703 17.8708 20.2422 17.8998C20.2019 17.9406 20.1703 17.9892 20.1491 18.0426C20.1262 18.0972 20.1096 18.1543 20.0998 18.2128C20.0917 18.284 20.0917 18.3559 20.0998 18.427C20.1113 18.4976 20.1374 18.565 20.1765 18.6248C20.2152 18.6852 20.2655 18.7375 20.3243 18.7785C20.3873 18.8137 20.4558 18.8378 20.5269 18.8499C20.5958 18.8609 20.666 18.8609 20.735 18.8499C20.7993 18.8375 20.8595 18.8092 20.9102 18.7676C20.9681 18.7265 21.0151 18.6718 21.0471 18.6083C21.0803 18.5448 21.1025 18.476 21.1128 18.4051C21.1237 18.3322 21.1237 18.2582 21.1128 18.1854C21.1026 18.1161 21.0764 18.0503 21.0361 17.9931C20.9991 17.9309 20.9482 17.8781 20.8874 17.8391C20.8266 17.8 20.7575 17.7756 20.6857 17.7679C20.6419 17.7627 20.5975 17.7645 20.5543 17.7734H20.5652Z" fill="#EE5046"/>
<path d="M12.21 19.9485V19.6794C12.1521 19.7149 12.0917 19.7461 12.0293 19.7728L11.9965 19.7343L11.9581 19.6904C12.0348 19.6904 12.1169 19.6355 12.199 19.597L12.4345 19.4817H12.4673C12.4673 19.5531 12.4673 19.63 12.4673 19.7233C12.4673 19.9376 12.4673 20.0749 12.4673 20.1298V20.2287C12.4673 20.2726 12.4673 20.333 12.4673 20.4154C12.4673 20.4978 12.4673 20.5582 12.4673 20.6021H12.2045V20.4758C12.2045 20.3934 12.2045 20.2946 12.2045 20.1737C12.2045 20.0529 12.21 19.9705 12.21 19.9485Z" fill="#EE5046"/>
<path d="M13.7977 19.9815C13.7917 20.0062 13.7777 20.0282 13.7579 20.0441C13.7381 20.06 13.7136 20.0689 13.6882 20.0694C13.6663 20.0701 13.6447 20.0642 13.6261 20.0525C13.6076 20.0407 13.593 20.0236 13.5842 20.0035C13.5647 19.9641 13.5535 19.9211 13.5514 19.8771V19.8057C13.5505 19.7514 13.5597 19.6974 13.5787 19.6464C13.5839 19.6198 13.5982 19.5958 13.6193 19.5788C13.6403 19.5617 13.6667 19.5526 13.6937 19.5531C13.7485 19.5531 13.7868 19.586 13.8142 19.6574C13.8216 19.7158 13.8216 19.7748 13.8142 19.8332C13.8207 19.8832 13.8151 19.9341 13.7977 19.9815V19.9815ZM13.409 20.5307V20.5637H13.4528H13.5021C13.58 20.5616 13.6565 20.5429 13.7266 20.5088C13.7952 20.4727 13.8535 20.4198 13.8963 20.355C13.9406 20.2901 13.9722 20.2174 13.9894 20.1408C14.0114 20.0584 14.0224 19.9734 14.0222 19.8881C14.0279 19.8315 14.0279 19.7745 14.0222 19.7179C14.0087 19.6624 13.9845 19.6102 13.9511 19.5641C13.9143 19.5189 13.8674 19.4831 13.8142 19.4597C13.7566 19.4372 13.6953 19.426 13.6335 19.4268C13.5881 19.4206 13.542 19.4206 13.4966 19.4268C13.4522 19.4419 13.4126 19.4684 13.3816 19.5036C13.34 19.5356 13.3094 19.5797 13.294 19.63C13.2838 19.6826 13.2838 19.7367 13.294 19.7893C13.2932 19.8304 13.301 19.8712 13.3171 19.9091C13.3331 19.947 13.357 19.981 13.3871 20.0089C13.4529 20.0644 13.5366 20.0938 13.6225 20.0913C13.6594 20.0929 13.6962 20.0864 13.7302 20.0721C13.7643 20.0579 13.7948 20.0363 13.8197 20.0089V20.0089C13.8212 20.1063 13.7987 20.2026 13.7539 20.2891C13.7365 20.335 13.7059 20.3747 13.6659 20.403C13.6259 20.4314 13.5784 20.4472 13.5295 20.4483C13.5041 20.4525 13.4782 20.4525 13.4528 20.4483L13.3871 20.3989L13.409 20.5307Z" fill="#EE5046"/>
<path d="M14.9641 19.8551L15.0736 19.6848V20.1516H14.7725C14.8436 20.0088 14.9148 19.9155 14.9641 19.8551ZM14.6629 20.2066V20.289C14.6617 20.3017 14.6617 20.3146 14.6629 20.3274H15.0955C15.0955 20.3823 15.0955 20.4318 15.0955 20.4757C15.0955 20.5196 15.0955 20.5636 15.0955 20.5965H15.3474V20.3274H15.4897C15.488 20.3073 15.488 20.2871 15.4897 20.267V20.1791C15.4897 20.1791 15.4897 20.1791 15.4897 20.1352H15.3474V19.6573C15.3474 19.6573 15.3474 19.6079 15.3474 19.5365V19.4651H15.2433H15.1338L15.0407 19.6079L14.9422 19.7562L14.8217 19.9319L14.6794 20.1462L14.6629 20.2066Z" fill="#EE5046"/>
<path d="M16.3055 20.1133C16.3113 20.0863 16.3262 20.0622 16.3476 20.0449C16.369 20.0275 16.3957 20.0181 16.4232 20.0181C16.4507 20.0181 16.4774 20.0275 16.4988 20.0449C16.5202 20.0622 16.5351 20.0863 16.5409 20.1133C16.5481 20.168 16.5481 20.2234 16.5409 20.2781C16.55 20.3308 16.55 20.3847 16.5409 20.4374C16.5409 20.4978 16.4807 20.5307 16.4259 20.5307C16.397 20.5299 16.3691 20.5191 16.3472 20.5001C16.3253 20.4811 16.3105 20.455 16.3055 20.4264C16.2981 20.368 16.2981 20.309 16.3055 20.2506C16.2973 20.2052 16.2973 20.1587 16.3055 20.1133V20.1133ZM16.6395 19.4872H16.5245H16.4588H16.3548C16.3234 19.4994 16.2939 19.5161 16.2672 19.5366C16.1822 19.6046 16.1193 19.6963 16.0865 19.8002C16.0529 19.9049 16.0362 20.0143 16.0372 20.1243C16.0289 20.1789 16.0289 20.2345 16.0372 20.2891C16.0486 20.3425 16.071 20.393 16.1029 20.4374C16.1334 20.482 16.1749 20.518 16.2234 20.5417L16.311 20.5692C16.3418 20.5743 16.3732 20.5743 16.404 20.5692C16.5046 20.573 16.6028 20.5376 16.6778 20.4703C16.7153 20.4377 16.7451 20.3971 16.765 20.3515C16.7848 20.3059 16.7944 20.2564 16.7928 20.2067C16.7946 20.1625 16.7867 20.1184 16.7697 20.0776C16.7527 20.0368 16.7269 20.0002 16.6942 19.9705C16.6273 19.9133 16.5412 19.8838 16.4533 19.8881C16.4181 19.887 16.3831 19.8938 16.3509 19.9081C16.3187 19.9224 16.2901 19.9437 16.2672 19.9705V19.9705C16.2618 19.9176 16.2618 19.8642 16.2672 19.8112C16.2672 19.7838 16.2672 19.7563 16.2672 19.7179C16.2789 19.6817 16.2975 19.6481 16.3219 19.619C16.3432 19.5894 16.3691 19.5634 16.3986 19.5421C16.4293 19.5212 16.4655 19.5098 16.5026 19.5091H16.5574H16.6066C16.6178 19.5022 16.6288 19.4949 16.6395 19.4872V19.4872Z" fill="#EE5046"/>
<path d="M1.99844 13.0115C2.13318 13.0126 2.2652 12.9734 2.37768 12.899C2.49017 12.8246 2.57804 12.7183 2.6301 12.5936C2.68217 12.469 2.69607 12.3316 2.67005 12.1989C2.64403 12.0663 2.57925 11.9445 2.48397 11.8489C2.38869 11.7533 2.26722 11.6883 2.13501 11.6622C2.0028 11.6361 1.86584 11.6501 1.74156 11.7023C1.61728 11.7545 1.5113 11.8427 1.43711 11.9555C1.36293 12.0684 1.32389 12.2008 1.32497 12.3359C1.3264 12.5147 1.39782 12.6857 1.52381 12.8121C1.6498 12.9384 1.82027 13.0101 1.99844 13.0115V13.0115Z" fill="#EE5046"/>
<path d="M26.8345 12.7808C26.9677 12.7808 27.0979 12.7412 27.2086 12.667C27.3194 12.5927 27.4057 12.4872 27.4567 12.3638C27.5077 12.2403 27.521 12.1045 27.495 11.9735C27.469 11.8424 27.4049 11.722 27.3107 11.6276C27.2165 11.5331 27.0965 11.4687 26.9659 11.4427C26.8352 11.4166 26.6998 11.43 26.5768 11.4811C26.4537 11.5322 26.3485 11.6188 26.2745 11.7299C26.2005 11.841 26.161 11.9716 26.161 12.1053C26.161 12.2844 26.232 12.4563 26.3583 12.5829C26.4846 12.7096 26.6559 12.7808 26.8345 12.7808V12.7808Z" fill="#EE5046"/>
<path d="M2.47485 7.2829L3.15927 6.36017L2.96216 6.22836L3.2414 5.84938L3.43851 5.9812L4.13387 5.04749L4.42954 5.23972L2.76505 7.48612L2.47485 7.2829Z" fill="#EE5046"/>
<path d="M4.78538 6.87105L4.31997 6.55798L3.99146 6.99738L4.45686 7.31045L4.78538 6.87105Z" fill="#EE5046"/>
<path d="M5.48074 5.95932L5.19602 5.76709L3.50415 8.04645L3.78887 8.23868L5.48074 5.95932Z" fill="#EE5046"/>
<path d="M4.11193 7.09068C3.75603 7.46417 3.33443 7.63993 3.099 7.46966C2.86356 7.2994 2.90736 6.7172 3.29063 6.20091C3.6739 5.68462 4.21596 5.41 4.48972 5.59674C4.76349 5.78348 4.70326 6.17894 4.48972 6.61284M4.04622 6.68425C4.24333 6.42061 4.29809 6.13501 4.17763 6.05811C4.05717 5.98122 3.79436 6.12402 3.6301 6.38765C3.46584 6.65129 3.37276 6.9369 3.49869 7.0083C3.62462 7.0797 3.82174 6.94788 4.01885 6.67326L4.04622 6.68425Z" fill="#EE5046"/>
<path d="M4.28173 8.32103C3.94774 8.10133 4.01344 7.46971 4.42409 6.91497C4.83474 6.36024 5.43702 6.09111 5.77102 6.3163C6.10501 6.54149 6.03383 7.16762 5.62318 7.72236C5.21254 8.27709 4.61025 8.5627 4.28173 8.32103ZM5.32752 7.51913C5.57938 7.17311 5.63961 6.79963 5.45892 6.6733C5.27824 6.54698 4.91139 6.73372 4.67048 7.07974C4.42956 7.42577 4.35291 7.80474 4.53359 7.92557C4.71428 8.04641 5.07018 7.88164 5.32752 7.53562V7.51913Z" fill="#EE5046"/>
<path d="M14.2851 0.648071H13.1572V3.28444H14.9641V1.94978H15.1229V3.28444H15.6102V0.648071H15.1283V1.5708H14.9696V0.659056H14.4877V2.93841H13.5788V0.944662H14.2851V0.648071Z" fill="#EE5046"/>
<path d="M24.8689 5.16833L26.2541 7.06322L24.2885 8.36493L24.4418 8.56815L24.1352 8.76587L22.5419 6.59087L22.8485 6.39315L23.1277 6.77762L24.3706 5.95924L24.6553 6.3547L23.4124 7.17856L23.5274 7.33784L24.7813 6.50849L25.055 6.88746L23.8067 7.71682L23.9928 7.98595L25.6573 6.88197L24.5568 5.36606L24.8689 5.16833Z" fill="#EE5046"/>
<path d="M20.0177 1.66418L21.2277 2.42214L21.0635 2.65831L19.8644 1.90036L20.0177 1.66418Z" fill="#EE5046"/>
<path d="M19.5633 1.87292L21.1895 2.90001L20.9924 3.18561L19.3717 2.16402L19.5633 1.87292Z" fill="#EE5046"/>
<path d="M21.5563 2.64185L22.0108 2.92745L21.5344 3.614L21.7808 3.77328L21.5618 4.09185L21.31 3.93806L21.0855 4.26211L20.642 3.982L21.5563 2.64185Z" fill="#EE5046"/>
<path d="M18.9391 3.04834L21.0252 4.36103L20.4996 5.11898L20.0451 4.83338L20.3462 4.39398L18.7146 3.3669L18.9391 3.04834Z" fill="#EE5046"/>
<path d="M19.3771 2.54293C19.4967 2.40615 19.6629 2.31908 19.8432 2.29876C20.0234 2.27844 20.2048 2.32634 20.3517 2.43309C20.4296 2.47239 20.4988 2.52712 20.5551 2.59397C20.6114 2.66082 20.6536 2.73842 20.6792 2.82207C20.7047 2.90573 20.7132 2.99372 20.7039 3.08073C20.6947 3.16774 20.668 3.25197 20.6254 3.32835C20.5075 3.46585 20.3421 3.55357 20.1624 3.57394C19.9827 3.59431 19.8019 3.54582 19.6563 3.4382C19.5779 3.39939 19.5082 3.34502 19.4513 3.27839C19.3945 3.21175 19.3517 3.13424 19.3256 3.05054C19.2995 2.96684 19.2906 2.8787 19.2995 2.79145C19.3083 2.7042 19.3347 2.61965 19.3771 2.54293V2.54293ZM19.7987 3.23498C19.8785 3.27093 19.9688 3.27565 20.0518 3.24821C20.1349 3.22077 20.2048 3.16315 20.2477 3.08669C20.2755 3.05498 20.2966 3.01795 20.3097 2.97785C20.3229 2.93774 20.3279 2.89537 20.3243 2.85329C20.3207 2.81121 20.3087 2.77031 20.2889 2.73302C20.2692 2.69573 20.2421 2.66283 20.2093 2.6363C20.1294 2.60161 20.0395 2.59756 19.9567 2.62489C19.874 2.65222 19.8041 2.70904 19.7604 2.7846C19.7318 2.81595 19.71 2.85289 19.6964 2.8931C19.6828 2.9333 19.6776 2.9759 19.6812 3.01821C19.6848 3.06051 19.6971 3.10162 19.7173 3.13892C19.7375 3.17623 19.7652 3.20894 19.7987 3.23498V3.23498Z" fill="#EE5046"/>
<path d="M0.947266 17.3231L3.21405 16.6476L3.30712 16.9552L2.37085 17.2353L2.72127 18.4216L3.65754 18.1415L3.75062 18.4546L1.47837 19.1302L1.38529 18.8171L2.4475 18.4985L2.09708 17.3177L1.03487 17.6307L0.947266 17.3231Z" fill="#EE5046"/>
<path d="M2.38724 20.0144C2.51211 19.7963 2.69954 19.621 2.92513 19.5113C3.15072 19.4016 3.40402 19.3625 3.65204 19.3992C3.76022 19.4303 3.86059 19.484 3.94649 19.557C4.03239 19.6299 4.10186 19.7203 4.15029 19.8221C4.20662 19.9206 4.23984 20.0306 4.24743 20.1439C4.25502 20.2571 4.23678 20.3706 4.1941 20.4757C4.09219 20.6962 3.91564 20.8733 3.69584 20.9755C3.47783 21.0929 3.23061 21.1444 2.98405 21.1238C2.86459 21.11 2.75096 21.0645 2.65475 20.9922C2.55855 20.9198 2.48324 20.8231 2.43652 20.7119C2.37081 20.6091 2.33188 20.4913 2.32327 20.3694C2.31466 20.2476 2.33665 20.1255 2.38724 20.0144V20.0144ZM3.59729 19.0642C3.30591 19.0281 3.01065 19.0858 2.75409 19.229C2.46593 19.3608 2.23329 19.5903 2.09705 19.8771C2.04278 20.0341 2.02185 20.2008 2.03559 20.3664C2.04933 20.532 2.09745 20.6929 2.17685 20.8387C2.25626 20.9846 2.36519 21.1122 2.49666 21.2133C2.62813 21.3144 2.77923 21.3869 2.94025 21.4259C3.25245 21.4764 3.57249 21.4203 3.84915 21.2667C4.10547 21.1541 4.31865 20.9614 4.45691 20.7174C4.52934 20.5557 4.56169 20.3789 4.5512 20.2019C4.54072 20.025 4.4877 19.8532 4.39668 19.7013C4.32882 19.5354 4.21971 19.3898 4.07976 19.2782C3.93981 19.1667 3.7737 19.093 3.59729 19.0642V19.0642Z" fill="#EE5046"/>
<path d="M5.57391 21.6676L3.34546 22.6398L4.85117 21.4589L4.0901 23.601L4.30912 23.8866L6.1762 22.4256L5.99004 22.1839L4.47885 23.3648L5.25634 21.2392L4.98806 20.9536L3.12097 22.4146L5.57391 21.6676Z" fill="#EE5046"/>
<path d="M6.39512 23.0462C6.05306 23.101 5.7452 23.2859 5.5355 23.5625C5.41743 23.6855 5.32511 23.8311 5.26399 23.9905C5.20287 24.1499 5.17417 24.32 5.1796 24.4907C5.21117 24.7575 5.34463 25.0016 5.55193 25.1718C5.68977 25.2981 5.85751 25.3869 6.03923 25.4299C6.16644 25.4467 6.29529 25.4467 6.4225 25.4299L6.28014 25.71L6.43893 25.8418L7.26022 24.8752L6.4663 24.1996L6.29657 24.4028L6.8441 24.8862C6.78071 24.9753 6.69907 25.0498 6.60464 25.1048C6.51022 25.1597 6.40518 25.1938 6.29657 25.2047C6.09467 25.2109 5.8983 25.138 5.74904 25.0015C5.65446 24.9354 5.57819 24.8463 5.52743 24.7426C5.47666 24.6388 5.45306 24.5238 5.45885 24.4083C5.49262 24.1659 5.59963 23.9397 5.76546 23.7602C5.92156 23.5463 6.15223 23.3992 6.41155 23.3483C6.51482 23.3314 6.62056 23.3379 6.72099 23.3674C6.82142 23.3968 6.914 23.4485 6.99194 23.5185C7.12102 23.6172 7.21662 23.7534 7.2657 23.9085C7.28747 23.9827 7.29335 24.0607 7.28297 24.1374C7.27259 24.2141 7.24618 24.2877 7.20547 24.3534L7.44638 24.5566C7.52272 24.4445 7.57103 24.3156 7.58723 24.1808C7.60344 24.046 7.58705 23.9093 7.53947 23.7822C7.46055 23.5982 7.33845 23.4362 7.18357 23.3098C7.07885 23.2132 6.95499 23.1398 6.82009 23.0943C6.68518 23.0489 6.54225 23.0325 6.4006 23.0462H6.39512Z" fill="#EE5046"/>
<path d="M7.3917 26.3856L8.68388 24.3918L8.41011 24.2161L7.12341 26.2098L7.3917 26.3856Z" fill="#EE5046"/>
<path d="M7.87903 26.6547L9.01242 24.5676L9.29166 24.7214L8.74413 25.7375L10.3101 25.2761L10.6988 25.4849L9.37379 25.8529L9.58733 27.583L9.22048 27.3852L9.0617 25.9407L8.55797 26.078L8.16375 26.8085L7.87903 26.6547Z" fill="#EE5046"/>
<path d="M12.7137 25.8089L11.5584 26.9953C11.5082 27.2195 11.5082 27.4521 11.5584 27.6764C11.6255 27.823 11.7271 27.9511 11.8545 28.0495C11.9819 28.1479 12.1313 28.2138 12.2898 28.2413C12.4482 28.2689 12.611 28.2574 12.764 28.2078C12.9171 28.1581 13.0558 28.0719 13.1681 27.9565C13.2915 27.7621 13.3701 27.5426 13.3981 27.3139L13.6226 25.9957L13.305 25.9408L13.0532 27.3908C13.0358 27.5308 12.9851 27.6645 12.9053 27.7807C12.8364 27.8672 12.7431 27.9307 12.6376 27.9631C12.5321 27.9954 12.4193 27.995 12.314 27.962C12.217 27.9527 12.1246 27.9157 12.048 27.8553C11.9713 27.7949 11.9135 27.7138 11.8814 27.6214C11.8421 27.4776 11.8421 27.3258 11.8814 27.182L12.1278 25.732L11.8103 25.6771L12.7137 25.8089Z" fill="#EE5046"/>
<path d="M14.3563 28.3793L14.2961 26.446L15.5499 28.3409H15.9113L15.862 25.9681H15.5554L15.5992 27.8905L14.3618 25.9956H13.984L14.0333 28.3738L14.3563 28.3793Z" fill="#EE5046"/>
<path d="M17.0337 28.1487L16.6285 25.809L16.3109 25.8639L16.7161 28.2037L17.0337 28.1487Z" fill="#EE5046"/>
<path d="M16.8914 25.7979L17.2308 25.6935L18.4956 27.4072V25.2761L18.8406 25.1663L18.742 27.6928L18.419 27.7971L16.8914 25.7979Z" fill="#EE5046"/>
<path d="M21.6987 26.2977L21.5618 26.0505L20.3025 26.7371L19.9192 26.0286L21.069 25.4024L20.9376 25.1608L19.7878 25.7869L19.4429 25.1498L20.6858 24.4742L20.5489 24.2216L19.0322 25.0454L20.1601 27.1325L21.6987 26.2977Z" fill="#EE5046"/>
<path d="M21.2607 24.0568L21.8739 23.568C21.9404 23.5082 22.0188 23.4632 22.1039 23.4362C22.1731 23.424 22.2443 23.4326 22.3086 23.4609C22.3729 23.4893 22.4274 23.5361 22.4652 23.5954C22.5086 23.6385 22.5408 23.6915 22.5589 23.7499C22.5771 23.8084 22.5806 23.8704 22.5693 23.9305C22.5268 24.0502 22.4484 24.1538 22.3448 24.2271L21.7973 24.6884L21.2607 24.0568ZM22.5748 25.7045L21.9615 24.9026L22.509 24.4413C22.5825 24.3758 22.6681 24.3254 22.7609 24.293C22.8238 24.282 22.8885 24.2891 22.9476 24.3134C23.0067 24.3377 23.0577 24.3782 23.0949 24.4303L23.3577 24.7214C23.418 24.7928 23.4618 24.8367 23.4837 24.8587L23.5548 24.9081L23.8615 24.6555L23.8286 24.617C23.7985 24.6241 23.767 24.6232 23.7373 24.6146C23.7076 24.6059 23.6806 24.5897 23.6589 24.5676C23.6052 24.5247 23.5557 24.4769 23.511 24.4248L23.303 24.1831C23.2423 24.0978 23.156 24.0342 23.0566 24.0019C22.9729 23.975 22.8829 23.975 22.7992 24.0019C22.8508 23.8961 22.8694 23.7773 22.8528 23.6607C22.8363 23.5442 22.7851 23.4353 22.7062 23.3483C22.6416 23.2497 22.5471 23.1745 22.4367 23.1339C22.3262 23.0934 22.2057 23.0896 22.0929 23.1231C21.946 23.1638 21.8108 23.2391 21.6987 23.3428L20.8665 24.0458L22.3503 25.8968L22.5748 25.7045Z" fill="#EE5046"/>
<path d="M24.3104 23.9635C24.5587 23.9244 24.7823 23.7905 24.9346 23.59C25.0942 23.4185 25.2024 23.2052 25.2466 22.9748C25.2642 22.8647 25.2516 22.7518 25.2101 22.6482C25.1686 22.5447 25.0999 22.4545 25.0112 22.3871C24.9447 22.3212 24.8625 22.2735 24.7724 22.2485C24.6823 22.2235 24.5873 22.2221 24.4965 22.2443C24.3669 22.2799 24.2458 22.3416 24.1406 22.4256L23.8669 22.6233C23.7492 22.7162 23.6227 22.7972 23.4891 22.865C23.44 22.8839 23.3866 22.8883 23.3351 22.8776C23.2837 22.8669 23.2364 22.8415 23.1989 22.8046C23.16 22.7701 23.1287 22.7279 23.107 22.6806C23.0853 22.6333 23.0737 22.582 23.0729 22.5299C23.0813 22.3843 23.1438 22.2471 23.2482 22.1455C23.2836 22.0809 23.3328 22.025 23.3923 21.9817C23.4519 21.9385 23.5202 21.909 23.5924 21.8953C23.6646 21.8817 23.7389 21.8842 23.81 21.9028C23.8812 21.9213 23.9473 21.9555 24.0037 22.0027L24.2009 21.7775C24.1244 21.6978 24.0291 21.6388 23.9237 21.6062C23.8184 21.5735 23.7065 21.5682 23.5986 21.5907C23.3844 21.6548 23.1939 21.7809 23.051 21.9532C22.8912 22.1163 22.7992 22.3343 22.7937 22.5629C22.7981 22.6609 22.8228 22.7569 22.8662 22.8448C22.9095 22.9327 22.9706 23.0107 23.0456 23.0737C23.1077 23.1353 23.1852 23.179 23.27 23.2003C23.3548 23.2216 23.4437 23.2196 23.5274 23.1945C23.6757 23.1401 23.8143 23.0622 23.938 22.9638L24.2063 22.7661C24.3135 22.6813 24.4337 22.6145 24.5622 22.5684C24.6137 22.5582 24.6669 22.5615 24.7167 22.5778C24.7666 22.5942 24.8114 22.6231 24.8469 22.6618C24.9111 22.7153 24.9544 22.7897 24.9695 22.872C24.9845 22.9543 24.9702 23.0393 24.9291 23.1121C24.8873 23.215 24.8281 23.3098 24.7539 23.3923C24.6938 23.4813 24.6119 23.5534 24.516 23.6015C24.4201 23.6496 24.3134 23.6721 24.2063 23.6669C24.0937 23.6462 23.9882 23.597 23.8997 23.5241L23.6971 23.7493C23.7763 23.8263 23.871 23.8854 23.975 23.9223C24.0789 23.9593 24.1896 23.9733 24.2994 23.9635H24.3104Z" fill="#EE5046"/>
<path d="M26.0515 21.9971L24.0968 20.657L23.9106 20.9261L25.8708 22.2663L26.0515 21.9971Z" fill="#EE5046"/>
<path d="M24.2556 20.4757L25.1481 18.7676L25.3945 18.8994L25.0276 19.6079L26.8728 20.5801L26.725 20.8712L24.8743 19.899L24.5075 20.6075L24.2556 20.4757Z" fill="#EE5046"/>
<path d="M27.6613 18.6522L27.7598 18.3501L26.8509 18.059L25.7558 16.7738L25.6409 17.1308L26.5169 18.1304L25.2302 18.4325L25.1152 18.7895L26.7578 18.3666L27.6613 18.6522Z" fill="#EE5046"/>
<path d="M11.1423 10.6224V8.38694H16.07V9.11744H16.2124V8.24963H11.0054V10.7652H12.8341V10.6224H11.1423Z" fill="#EE5046"/>
<path d="M15.9003 12.8687L15.8346 12.9237C15.8569 13.0638 15.8569 13.2065 15.8346 13.3466C15.8083 13.3684 15.7772 13.3837 15.744 13.3913C15.7107 13.399 15.6761 13.3987 15.6429 13.3905C15.6101 13.3905 15.6429 13.3356 15.6429 13.2972H15.4075V13.5608C15.5499 13.5608 15.6758 13.6212 15.7689 13.4784C15.8455 13.5443 15.9824 13.5937 15.9879 13.7036C15.9934 13.8134 15.9277 13.7475 15.8948 13.764C15.885 13.8878 15.8667 14.0107 15.8401 14.132C15.8943 14.143 15.9501 14.143 16.0043 14.132C16.1149 13.6553 16.1863 13.1704 16.2179 12.682C16.3576 12.6884 16.4958 12.7143 16.6285 12.7589C16.6285 12.7919 16.5957 12.8083 16.5683 12.8138H16.4861C16.3769 13.258 16.2341 13.6931 16.0591 14.1155V14.1155L16.5354 14.0771C16.5218 13.8855 16.4697 13.6987 16.3821 13.5278C16.4478 13.5278 16.4971 13.5828 16.5519 13.6322C16.6548 13.7116 16.7349 13.817 16.784 13.9376C16.833 14.0582 16.8493 14.1898 16.8311 14.3187C16.8265 14.3493 16.8139 14.378 16.7947 14.4021C16.7755 14.4262 16.7503 14.4448 16.7216 14.4561C16.7 14.4656 16.6767 14.4705 16.6531 14.4705C16.6296 14.4705 16.6063 14.4656 16.5847 14.4561C16.5245 14.3956 16.5354 14.3023 16.5354 14.2144C16.3328 14.2693 16.1357 14.3627 15.9277 14.4286C15.9277 14.4286 15.9277 14.511 15.862 14.4835C15.7963 14.4561 15.8017 14.3078 15.7579 14.2199C15.7196 14.3297 15.6375 14.4835 15.5061 14.4945C15.4623 14.4945 15.3966 14.4945 15.3747 14.467C15.3528 14.4396 15.3747 14.2968 15.2761 14.2968C15.1775 14.2968 15.1885 14.2968 15.1611 14.2364C15.2816 14.2089 15.4623 14.3133 15.528 14.1485C15.5701 13.9927 15.5922 13.8321 15.5937 13.6706C15.5064 13.6597 15.4181 13.6597 15.3309 13.6706C15.3309 13.7311 15.3309 13.7695 15.2542 13.7915C15.2019 13.8026 15.1478 13.8026 15.0954 13.7915C15.0461 13.7311 15.0954 13.6597 15.0954 13.5937C15.1202 13.4373 15.1367 13.2796 15.1447 13.1214L15.3692 13.2257H15.5937C15.5937 13.0994 15.5937 12.9896 15.5937 12.8687H15.0461C15.0491 12.8359 15.0491 12.8028 15.0461 12.7699H15.632L15.7415 12.6545C15.7744 12.715 15.9386 12.7479 15.9003 12.8687Z" fill="#EE5046"/>
<path d="M16.5355 14.7472C16.4972 14.7856 16.426 14.7472 16.3712 14.7746C16.4545 14.8738 16.5649 14.9463 16.6888 14.9833L16.9023 15.0383C16.9023 15.0987 16.8092 15.1042 16.8092 15.1701C16.8092 15.236 16.8092 15.258 16.8092 15.3019C16.6895 15.2513 16.5814 15.1765 16.4917 15.0822H16.4588H15.5883C15.5883 15.0822 15.5883 15.0218 15.5883 15.0053H16.2124C16.2727 14.9724 16.3165 14.8241 16.3986 14.9504C16.3538 14.8904 16.3153 14.826 16.2836 14.7581H15.8401L15.7908 14.6813H16.2343L16.3658 14.5439C16.4096 14.6208 16.4862 14.6593 16.5355 14.7472Z" fill="#EE5046"/>
<path d="M15.758 14.7966C15.758 14.8515 15.6923 14.846 15.654 14.868C15.4941 15.0605 15.2916 15.2128 15.0626 15.3129V15.3129C15.2423 15.1231 15.3852 14.9015 15.4842 14.6593C15.5793 14.697 15.6709 14.7429 15.758 14.7966V14.7966Z" fill="#EE5046"/>
<path d="M16.5464 15.3843C16.5464 15.4337 16.4972 15.4282 16.4588 15.4282C16.4336 15.4225 16.4074 15.4225 16.3822 15.4282C16.523 15.5849 16.7197 15.6796 16.9297 15.6918C16.9297 15.7468 16.8585 15.7632 16.8421 15.8072C16.8257 15.8511 16.8421 15.9115 16.8038 15.9555C16.7654 15.9994 16.6724 15.8072 16.6176 15.9555V16.3839C16.6604 16.3367 16.7006 16.2872 16.7381 16.2356C16.8237 16.2931 16.8965 16.3679 16.9516 16.4553L16.8859 16.4992H15.1119C15.1119 16.4992 15.1119 16.4278 15.0681 16.4168H15.3692V15.8237C15.2756 15.8934 15.1723 15.9489 15.0626 15.9884C15.2469 15.8077 15.389 15.5882 15.4787 15.3458C15.5809 15.3861 15.6782 15.4377 15.7689 15.4996C15.7689 15.549 15.7032 15.549 15.6649 15.56C15.6032 15.6367 15.5354 15.7084 15.4623 15.7742L15.5992 15.8182H16.3384L16.4424 15.7413C16.3767 15.6588 16.3215 15.5684 16.2781 15.4721H15.8456C15.8383 15.447 15.8383 15.4204 15.8456 15.3953H16.2891L16.4041 15.2799C16.4568 15.3067 16.5049 15.342 16.5464 15.3843V15.3843ZM15.6759 15.8566H15.5937V16.4059H15.6759V15.8566ZM16.0263 15.8566H15.9387C15.9444 15.8612 15.949 15.8671 15.9522 15.8738C15.9553 15.8804 15.957 15.8877 15.957 15.8951C15.957 15.9024 15.9553 15.9097 15.9522 15.9164C15.949 15.923 15.9444 15.9289 15.9387 15.9335V16.4059H16.0372L16.0263 15.8566ZM16.3493 15.8566H16.2891V15.8951L16.2508 15.9335V16.4059H16.3384L16.3493 15.8566Z" fill="#EE5046"/>
<path d="M12.8998 12.6435C12.8998 12.6874 12.8506 12.6984 12.8341 12.7204C12.8254 13.0204 12.9028 13.3165 13.0572 13.5736C13.2115 13.8307 13.4363 14.0378 13.7047 14.1704C13.7047 14.2418 13.6664 14.1704 13.5623 14.2308C13.4583 14.2912 13.4912 14.3956 13.4474 14.3956C13.305 14.3517 13.2064 14.1979 13.1134 14.088C12.9096 13.7565 12.7928 13.3786 12.7739 12.9895C12.7912 13.2688 12.7281 13.5472 12.5922 13.7916C12.4563 14.036 12.2533 14.2361 12.0074 14.3681C11.9292 14.4066 11.8423 14.4237 11.7555 14.4176V14.4176C12.4399 14.0825 12.5166 13.3191 12.4892 12.5996C12.6274 12.5968 12.7653 12.6116 12.8998 12.6435V12.6435Z" fill="#EE5046"/>
<path d="M12.1661 14.8021C12.2701 14.8021 12.4892 14.8406 12.533 14.6868C12.6249 14.7249 12.7031 14.79 12.7574 14.8735C12.7574 14.9284 12.7136 14.9339 12.6863 14.9559V15.4612C12.6534 15.5326 12.5658 15.5216 12.5056 15.5271C12.4924 15.5265 12.4795 15.5227 12.468 15.516C12.4566 15.5093 12.4469 15.4999 12.4399 15.4887C12.4399 15.4887 12.4399 15.4228 12.4399 15.4228H12.1716V16.5212C12.1716 16.5871 12.0621 16.5817 11.9964 16.5872C11.9883 16.5888 11.98 16.5886 11.9721 16.5866C11.9641 16.5846 11.9567 16.5808 11.9504 16.5755C11.9441 16.5703 11.939 16.5636 11.9356 16.5561C11.9322 16.5486 11.9305 16.5405 11.9307 16.5322V14.7087L12.1661 14.8021ZM12.4344 15.0383V14.912H12.1552V15.0657L12.4344 15.0383ZM12.4344 15.2964V15.1426H12.1552V15.2964H12.4344Z" fill="#EE5046"/>
<path d="M13.3817 14.8076L13.4584 14.6978C13.535 14.7527 13.6445 14.7911 13.6883 14.89C13.7321 14.9889 13.6336 14.9449 13.6062 14.9779V16.4334C13.6062 16.5267 13.4748 16.5542 13.3927 16.5597C13.3105 16.5652 13.3434 16.5597 13.3434 16.5103V16.4169C13.2787 16.3725 13.2063 16.3408 13.1298 16.3235C13.0661 16.3578 12.9939 16.3731 12.9218 16.3674C12.8835 16.329 12.9218 16.2741 12.9218 16.2192H12.6371C12.6371 16.2906 12.6371 16.4279 12.544 16.4334C12.4509 16.4389 12.4454 16.4608 12.4071 16.4334V16.4004V15.5051C12.4905 15.53 12.5712 15.5631 12.648 15.604H12.9437L13.0039 15.5271C12.9577 15.5248 12.9135 15.5074 12.878 15.4777V14.7087L13.1298 14.8186L13.3817 14.8076ZM13.3817 15.0548V14.912H13.1025V15.0657L13.3817 15.0548ZM13.3817 15.3129V15.1591H13.1025V15.3129H13.3817ZM12.9108 15.8621V15.7029H12.6316V15.8567L12.9108 15.8621ZM12.9108 16.1203V15.9665H12.6316V16.1203H12.9108ZM13.0422 15.5051C13.0793 15.5231 13.1142 15.5452 13.1463 15.571C13.2832 15.6864 13.1463 15.7358 13.1463 15.7358V16.2851H13.2941C13.3109 16.2896 13.3287 16.2882 13.3446 16.2812C13.3605 16.2742 13.3736 16.262 13.3817 16.2466V15.4173H13.086C13.097 15.4612 13.0258 15.4942 13.0258 15.4942L13.0422 15.5051Z" fill="#EE5046"/>
<path d="M17.8878 9.11743V11.5066L12.8341 11.5121V10.7652L16.2124 10.7597V9.11743H17.8878Z" fill="#EE5046"/>
<path d="M12.8286 9.11743H16.07V10.6224H12.8341L12.8286 9.11743ZM15.5334 9.62273H14.4931V9.32066H14.3562V9.62273H13.3816V9.75455H14.3288C14.1591 10.161 13.3871 10.2049 13.3871 10.2049V10.3422C14.2412 10.2818 14.411 9.85891 14.411 9.85891C14.6519 10.3093 15.506 10.3477 15.506 10.3477V10.2104C14.8052 10.1445 14.5917 9.89736 14.5205 9.75455H15.5334V9.62273Z" fill="#EE5046"/>
<path d="M6.83862 16.5597C7.00678 16.7591 7.12838 16.9936 7.19452 17.2462L7.3314 17.2078C7.25997 16.9297 7.125 16.6721 6.93718 16.4553L6.83862 16.5597Z" fill="#EE5046"/>
<path d="M7.43005 15.8896C7.54715 16.2204 7.73389 16.522 7.97759 16.7739L8.08162 16.6751C7.85589 16.4374 7.68242 16.1549 7.57241 15.8457L7.43005 15.8896Z" fill="#EE5046"/>
<path d="M6.6744 11.8911C6.51403 11.8968 6.35651 11.9352 6.2115 12.0042C6.0665 12.0731 5.93708 12.1711 5.8312 12.2921C5.63825 12.4892 5.53015 12.7545 5.53015 13.0308C5.53015 13.3071 5.63825 13.5723 5.8312 13.7695C5.99489 13.9132 6.20502 13.9924 6.42253 13.9924C6.64005 13.9924 6.85017 13.9132 7.01386 13.7695C7.08376 13.712 7.14048 13.64 7.18016 13.5585C7.21984 13.477 7.24156 13.3879 7.24383 13.2972C7.24937 13.2126 7.23712 13.1279 7.20788 13.0484C7.17863 12.9689 7.13305 12.8965 7.07409 12.8358C7.02082 12.7866 6.95738 12.7497 6.8883 12.7279C6.81921 12.7061 6.74618 12.6998 6.6744 12.7095C6.61588 12.7167 6.55995 12.7379 6.51134 12.7713C6.46273 12.8048 6.42288 12.8495 6.39516 12.9017L6.52109 12.9676C6.53974 12.9359 6.56509 12.9086 6.59536 12.8878C6.62563 12.8669 6.66008 12.8529 6.6963 12.8468C6.74635 12.8418 6.79689 12.847 6.84489 12.8621C6.89288 12.8772 6.93732 12.9019 6.97554 12.9347C7.06157 13.0331 7.10665 13.1609 7.10147 13.2917C7.09973 13.3625 7.08267 13.4321 7.05147 13.4956C7.02027 13.5592 6.97568 13.6151 6.92079 13.6597C6.78233 13.7773 6.60674 13.8419 6.42527 13.8419C6.2438 13.8419 6.06821 13.7773 5.92976 13.6597C5.76353 13.4884 5.67051 13.2588 5.67051 13.0198C5.67051 12.7808 5.76353 12.5512 5.92976 12.3799C6.02372 12.2739 6.13816 12.188 6.26616 12.1276C6.39415 12.0672 6.53303 12.0335 6.6744 12.0284C6.92145 12.0334 7.16501 12.088 7.3907 12.1889C7.61639 12.2899 7.81965 12.4351 7.98847 12.6161C8.60171 13.2093 8.60171 14.176 8.60171 14.7527C8.60171 15.3294 8.26771 16.9496 7.24383 17.1474C7.13374 17.1706 7.02008 17.1708 6.90988 17.1482C6.79969 17.1255 6.6953 17.0804 6.60322 17.0155C6.42866 16.8814 6.31285 16.6845 6.28017 16.4663C6.25486 16.3316 6.26644 16.1925 6.31369 16.0639C6.36093 15.9352 6.44207 15.8219 6.54846 15.7358C6.62937 15.6662 6.72697 15.619 6.83162 15.5988C6.93628 15.5785 7.04438 15.586 7.14528 15.6205C7.23395 15.6571 7.31148 15.7165 7.3701 15.7926C7.42871 15.8688 7.46636 15.959 7.47927 16.0544C7.4874 16.1236 7.47449 16.1937 7.44225 16.2554C7.41001 16.3171 7.35994 16.3677 7.29858 16.4004C7.25877 16.4293 7.21319 16.4491 7.16498 16.4586C7.11676 16.4681 7.06708 16.467 7.01934 16.4553C6.98234 16.4451 6.94823 16.4264 6.91971 16.4007C6.89119 16.3749 6.86906 16.3429 6.85508 16.307L6.72367 16.3674C6.74736 16.4207 6.78207 16.4684 6.82549 16.5072C6.86891 16.546 6.92005 16.5751 6.97554 16.5926C7.04321 16.6118 7.11433 16.6153 7.18356 16.603C7.25279 16.5906 7.31832 16.5626 7.37524 16.5212C7.45745 16.4734 7.52433 16.4031 7.56799 16.3184C7.61164 16.2337 7.63025 16.1383 7.62162 16.0434C7.60795 15.922 7.56144 15.8066 7.48713 15.7098C7.41282 15.613 7.31354 15.5384 7.20003 15.4941C7.07567 15.4498 6.94184 15.4391 6.81206 15.4632C6.68227 15.4873 6.56113 15.5454 6.46086 15.6315C6.33463 15.7327 6.238 15.8663 6.18114 16.018C6.12428 16.1698 6.10931 16.3342 6.13782 16.4938C6.15801 16.6205 6.20371 16.7417 6.27214 16.8501C6.34057 16.9585 6.43029 17.0517 6.53583 17.1242C6.64137 17.1966 6.76052 17.2468 6.886 17.2715C7.01149 17.2963 7.1407 17.2952 7.26573 17.2682C8.39365 17.076 8.74407 15.3788 8.74407 14.7856C8.74407 14.1924 8.74407 13.1379 8.08703 12.4953C7.9031 12.3059 7.68353 12.1549 7.44105 12.0512C7.19857 11.9475 6.93799 11.8931 6.6744 11.8911V11.8911Z" fill="#EE5046"/>
<path d="M0 14.5055C0.00108312 17.3733 0.849902 20.1764 2.43912 22.5603C4.02834 24.9442 6.28657 26.8019 8.92826 27.8983C11.57 28.9948 14.4764 29.2809 17.2802 28.7203C20.0839 28.1598 22.659 26.7778 24.6798 24.7492C26.7006 22.7205 28.0763 20.1364 28.633 17.3234C29.1897 14.5105 28.9023 11.5951 27.8073 8.94602C26.7122 6.2969 24.8586 4.03301 22.4809 2.44063C20.1033 0.848256 17.3082 -0.00108505 14.4494 1.04033e-06C10.6166 0.00436649 6.94221 1.53437 4.23305 4.25405C1.5239 6.97373 0.00144824 10.6607 0 14.5055V14.5055ZM0.142359 14.5055C0.141277 11.6659 0.979628 8.88977 2.5514 6.52814C4.12318 4.16651 6.35778 2.32545 8.97262 1.23778C11.5875 0.150117 14.4651 -0.135312 17.2417 0.417598C20.0182 0.970508 22.569 2.33692 24.5714 4.34404C26.5738 6.35116 27.9379 8.90885 28.4912 11.6937C29.0445 14.4785 28.7622 17.3653 27.6799 19.9892C26.5976 22.613 24.764 24.856 22.411 26.4345C20.0579 28.013 17.291 28.8561 14.4603 28.8572C10.6657 28.8543 7.02725 27.3417 4.34306 24.6511C1.65886 21.9606 0.148158 18.3119 0.142359 14.5055V14.5055Z" fill="#EE5046"/>
<path d="M3.56445 14.5055C3.56445 16.6664 4.2033 18.7787 5.40019 20.5753C6.59709 22.372 8.29826 23.7722 10.2885 24.5989C12.2788 25.4256 14.4688 25.6416 16.5815 25.2196C18.6942 24.7976 20.6346 23.7566 22.1575 22.2283C23.6803 20.6999 24.7171 18.7529 25.1367 16.6334C25.5562 14.5139 25.3398 12.3172 24.5147 10.3211C23.6896 8.325 22.2929 6.61922 20.5012 5.41949C18.7096 4.21976 16.6035 3.57997 14.4494 3.58106C11.5633 3.58687 8.79726 4.73987 6.75703 6.7875C4.71681 8.83513 3.56879 11.6104 3.56445 14.5055V14.5055ZM3.70681 14.5055C3.70573 12.3731 4.33503 10.2882 5.51514 8.51462C6.69525 6.74098 8.37316 5.35821 10.3367 4.54117C12.3002 3.72414 14.4612 3.50952 16.5463 3.92447C18.6314 4.33941 20.5471 5.36528 22.051 6.87235C23.5549 8.37942 24.5795 10.3 24.9953 12.3912C25.4111 14.4824 25.1993 16.6504 24.3868 18.6209C23.5743 20.5914 22.1976 22.2759 20.4307 23.4615C18.6638 24.6471 16.5861 25.2805 14.4603 25.2816C11.6107 25.2802 8.87796 24.1447 6.86191 22.1244C4.84586 20.1041 3.71116 17.3641 3.70681 14.5055V14.5055Z" fill="#EE5046"/>
<path d="M8.3553 7.27741C8.13007 7.40172 7.93637 7.57634 7.78921 7.78778C7.64204 7.99922 7.54535 8.2418 7.50662 8.49673L7.42997 8.88668C7.34611 9.45435 7.18778 10.0084 6.95909 10.5344C6.74453 10.9869 6.47809 11.4127 6.16517 11.8032L5.83118 12.2645L5.95163 12.3414L6.27468 11.891C6.59624 11.4925 6.87005 11.0574 7.0905 10.5948C7.32321 10.0503 7.48515 9.4781 7.57233 8.89217L7.6435 8.50771C7.68129 8.27806 7.77036 8.05997 7.90405 7.86974C8.03775 7.67951 8.2126 7.52208 8.41553 7.40922C8.58041 7.33325 8.75971 7.29392 8.94116 7.29392C9.1226 7.29392 9.3019 7.33325 9.46678 7.40922C9.60461 7.47066 9.72603 7.56386 9.82118 7.68125C9.91632 7.79864 9.98249 7.93691 10.0143 8.0848C10.0589 8.27577 10.0584 8.47456 10.0128 8.6653C9.96713 8.85603 9.87766 9.03342 9.7515 9.18328C9.64758 9.29154 9.51916 9.37302 9.37713 9.42083C9.2351 9.46864 9.08366 9.48137 8.93568 9.4579C8.85154 9.45582 8.76868 9.43683 8.69198 9.40207C8.61529 9.36731 8.54632 9.31748 8.48915 9.25552C8.43198 9.19357 8.38777 9.12074 8.35914 9.04135C8.3305 8.96196 8.31803 8.87762 8.32244 8.79331C8.314 8.6469 8.36044 8.50262 8.45263 8.3888C8.54482 8.27498 8.67611 8.19985 8.8207 8.17817C8.89471 8.16669 8.97046 8.17722 9.03857 8.20845C9.10669 8.23969 9.16419 8.29026 9.20397 8.35392C9.23895 8.41789 9.2573 8.48967 9.2573 8.56263C9.2573 8.6356 9.23895 8.70738 9.20397 8.77135L9.3299 8.84824C9.37543 8.76391 9.39927 8.66952 9.39927 8.57362C9.39927 8.47772 9.37543 8.38333 9.3299 8.299C9.27836 8.21242 9.20267 8.14287 9.11218 8.09895C9.02169 8.05503 8.92036 8.03865 8.8207 8.05183C8.64079 8.07621 8.47627 8.16663 8.35896 8.30561C8.24164 8.4446 8.17986 8.62228 8.18556 8.8043C8.18041 8.9062 8.19553 9.0081 8.23004 9.10407C8.26454 9.20005 8.31774 9.28817 8.38654 9.36332C8.45533 9.43846 8.53835 9.49912 8.63075 9.54176C8.72315 9.5844 8.82308 9.60818 8.92473 9.61169C9.09491 9.6422 9.27002 9.62898 9.43374 9.57328C9.59745 9.51758 9.74445 9.4212 9.86101 9.29313C9.99895 9.12881 10.0974 8.93485 10.1486 8.72628C10.1999 8.5177 10.2027 8.3001 10.1567 8.09029C10.1212 7.92309 10.0472 7.76651 9.94076 7.63302C9.8343 7.49953 9.69825 7.3928 9.54344 7.32134C9.36106 7.22601 9.15982 7.17261 8.95431 7.16501C8.74879 7.15741 8.54417 7.1958 8.3553 7.27741V7.27741Z" fill="#EE5046"/>
<path d="M11.9581 4.58616L11.7172 4.81684C11.3774 5.21221 10.9975 5.57115 10.5838 5.88787C9.95388 6.35961 9.28743 6.7802 8.59081 7.14563L8.25134 7.33787L8.328 7.45869L8.65651 7.27195C9.35971 6.9017 10.0334 6.47753 10.6714 6.00321C11.0928 5.67739 11.4799 5.30933 11.8267 4.90472L12.0184 4.70699C12.1506 4.65715 12.2936 4.64309 12.4329 4.66623C12.5723 4.68937 12.7031 4.74889 12.8123 4.83881C12.8913 4.89508 12.9563 4.96904 13.0019 5.05484C13.0475 5.14064 13.0726 5.23592 13.0751 5.33313C13.0733 5.41319 13.0513 5.4915 13.0111 5.56068C12.9708 5.62985 12.9137 5.68763 12.8451 5.72858C12.3242 6.11696 11.8336 6.54479 11.3777 7.00832C10.8851 7.52593 10.4467 8.09278 10.0691 8.69999L9.86656 8.99657L9.98702 9.07897L10.1841 8.78237C10.5582 8.19071 10.9911 7.63864 11.4763 7.13464C11.9262 6.6781 12.4093 6.25584 12.9218 5.87138C13.0088 5.81686 13.0813 5.74182 13.1328 5.6528C13.1843 5.56377 13.2134 5.46346 13.2175 5.36059C13.2175 5.24004 13.1887 5.12123 13.1334 5.01417C13.0782 4.90712 12.9981 4.81496 12.8999 4.74544C12.7728 4.63441 12.6176 4.56077 12.4514 4.53266C12.2852 4.50456 12.1145 4.52307 11.9581 4.58616Z" fill="#EE5046"/>
<path d="M8.51953 8.11782L8.58524 8.24415C8.98515 8.03962 9.3539 7.77884 9.6803 7.46971L9.57079 7.37634C9.25414 7.66847 8.90071 7.91776 8.51953 8.11782V8.11782Z" fill="#EE5046"/>
<path d="M9.19849 8.77687L9.32989 8.83179C9.52012 8.51846 9.77609 8.25044 10.08 8.04637L9.99241 7.93103C9.6656 8.14697 9.39371 8.43665 9.19849 8.77687Z" fill="#EE5046"/>
<path d="M6.46082 12.8523L6.5758 12.9402C6.77812 12.6652 6.93865 12.3617 7.05215 12.0394L6.91526 12.001C6.80883 12.3067 6.65551 12.594 6.46082 12.8523V12.8523Z" fill="#EE5046"/>
<path d="M7.12341 13.374H7.2603C7.34375 12.9967 7.53385 12.6516 7.80783 12.3799L7.70379 12.281C7.40285 12.5768 7.20018 12.9584 7.12341 13.374V13.374Z" fill="#EE5046"/>
<path d="M19.2238 7.31588C19.0683 7.38788 18.9319 7.49545 18.8254 7.62994C18.7189 7.76444 18.6453 7.92212 18.6105 8.09031C18.565 8.29927 18.568 8.51593 18.6193 8.72354C18.6706 8.93116 18.7687 9.12417 18.9062 9.28765C19.0231 9.41531 19.1701 9.5114 19.3337 9.56708C19.4974 9.62275 19.6723 9.63621 19.8425 9.60622C19.9441 9.6027 20.0441 9.57894 20.1365 9.53629C20.2289 9.49365 20.3119 9.433 20.3807 9.35785C20.4495 9.28271 20.5027 9.19457 20.5372 9.0986C20.5717 9.00263 20.5868 8.90072 20.5817 8.79883C20.5886 8.61649 20.5273 8.43815 20.4097 8.2989C20.2922 8.15964 20.1269 8.06956 19.9465 8.04637C19.8473 8.03716 19.7474 8.05532 19.6576 8.09887C19.5679 8.14243 19.4917 8.20973 19.4373 8.29353C19.3893 8.37702 19.364 8.47173 19.364 8.56815C19.364 8.66456 19.3893 8.75927 19.4373 8.84277L19.5578 8.76587C19.5228 8.70191 19.5045 8.63012 19.5045 8.55716C19.5045 8.4842 19.5228 8.41242 19.5578 8.34845C19.5985 8.28578 19.6562 8.236 19.724 8.20489C19.7919 8.17378 19.8671 8.16261 19.941 8.17269C20.0856 8.19438 20.2169 8.26951 20.3091 8.38333C20.4013 8.49715 20.4477 8.64144 20.4393 8.78785C20.4437 8.87216 20.4312 8.95649 20.4026 9.03588C20.374 9.11527 20.3298 9.18809 20.2726 9.25005C20.2154 9.31201 20.1465 9.36183 20.0698 9.3966C19.9931 9.43136 19.9102 9.45034 19.8261 9.45243C19.6781 9.47733 19.5262 9.4653 19.3839 9.4174C19.2417 9.36951 19.1133 9.28723 19.0102 9.17781C18.8837 9.02817 18.794 8.85079 18.7483 8.65998C18.7027 8.46918 18.7024 8.27027 18.7474 8.07932C18.7801 7.93177 18.8465 7.79389 18.9416 7.67662C19.0366 7.55935 19.1576 7.46592 19.295 7.40376C19.4595 7.3267 19.639 7.28678 19.8206 7.28678C20.0022 7.28678 20.1816 7.3267 20.3462 7.40376C20.5499 7.51565 20.7254 7.67281 20.8592 7.86321C20.993 8.05361 21.0816 8.2722 21.1182 8.50224L21.1894 8.88671C21.2786 9.47042 21.4405 10.0406 21.6712 10.5839C21.9172 11.0853 22.2164 11.5585 22.5637 11.9954L22.9032 12.4678L23.0237 12.3909L22.6787 11.913C22.3366 11.4836 22.0428 11.0175 21.8027 10.5234C21.5779 9.99604 21.4197 9.4425 21.3318 8.87572L21.2551 8.48576C21.2164 8.23083 21.1197 7.98826 20.9725 7.77682C20.8254 7.56538 20.6317 7.39075 20.4065 7.26645C20.2179 7.18653 20.0141 7.14952 19.8096 7.15807C19.6051 7.16661 19.405 7.22051 19.2238 7.31588V7.31588Z" fill="#EE5046"/>
<path d="M15.8675 4.75091C15.7692 4.82078 15.6888 4.91289 15.6327 5.01976C15.5766 5.12664 15.5463 5.24527 15.5444 5.36606C15.5503 5.46776 15.5801 5.56662 15.6315 5.65448C15.6829 5.74234 15.7544 5.81667 15.8401 5.87136C16.3546 6.25547 16.8396 6.67774 17.2911 7.13462C17.7291 7.59127 18.1215 8.0898 18.4628 8.62307L18.7749 9.06795L18.8899 8.98557L18.5778 8.54068C18.2318 7.99953 17.8338 7.49365 17.3896 7.03026C16.9328 6.5695 16.4423 6.14357 15.9222 5.75602C15.8539 5.71423 15.7968 5.65638 15.7558 5.58749C15.7148 5.51859 15.6911 5.4407 15.6868 5.36057C15.6893 5.26259 15.7144 5.16652 15.7599 5.07984C15.8055 4.99315 15.8704 4.91817 15.9496 4.86075C16.059 4.77124 16.1901 4.7124 16.3296 4.69021C16.469 4.66802 16.6119 4.68328 16.7435 4.73443L16.9406 4.93216C17.2894 5.33498 17.6763 5.70287 18.0959 6.03064C18.7345 6.50713 19.4101 6.93141 20.1163 7.29939L20.4394 7.48613L20.516 7.3653L20.182 7.17307C19.4842 6.80871 18.816 6.39 18.1835 5.9208C17.7683 5.59375 17.3867 5.22575 17.0447 4.82231L16.8092 4.59163C16.6525 4.53096 16.4823 4.51373 16.3166 4.54176C16.1509 4.56978 15.9958 4.64203 15.8675 4.75091V4.75091Z" fill="#EE5046"/>
<path d="M19.1144 7.48619C19.4066 7.77549 19.7384 8.02147 20.0999 8.21669L20.1656 8.09036C19.822 7.90117 19.5053 7.66656 19.2239 7.39282L19.1144 7.48619Z" fill="#EE5046"/>
<path d="M18.6763 8.06285C18.9822 8.26452 19.2386 8.53303 19.4264 8.84827L19.5578 8.79334C19.3649 8.45135 19.0926 8.16118 18.7639 7.94751L18.6763 8.06285Z" fill="#EE5046"/>
<path d="M20.6748 12.5337C20.0232 13.1708 20.0232 14.1815 20.0232 14.7746C20.0232 15.3678 20.3736 17.1144 21.5015 17.3066C21.6266 17.3336 21.7558 17.3348 21.8813 17.31C22.0067 17.2852 22.1259 17.2351 22.2314 17.1626C22.337 17.0902 22.4267 16.9969 22.4951 16.8885C22.5635 16.7801 22.6093 16.6589 22.6294 16.5322C22.6585 16.3726 22.6439 16.2081 22.587 16.0562C22.5301 15.9043 22.4331 15.7708 22.3064 15.6699C22.2067 15.5829 22.0858 15.5238 21.956 15.4988C21.8262 15.4737 21.6921 15.4835 21.5672 15.5271C21.4547 15.5729 21.3563 15.6479 21.2823 15.7444C21.2082 15.8409 21.161 15.9555 21.1456 16.0763C21.137 16.1713 21.1556 16.2667 21.1993 16.3514C21.2429 16.436 21.3098 16.5064 21.392 16.5542C21.4501 16.5933 21.5156 16.6198 21.5844 16.6321C21.6532 16.6444 21.7238 16.6421 21.7917 16.6256C21.8467 16.6072 21.8975 16.5777 21.9408 16.539C21.9841 16.5003 22.019 16.4531 22.0436 16.4004L21.9177 16.34C21.902 16.3748 21.8794 16.406 21.8511 16.4315C21.8228 16.457 21.7895 16.4764 21.7534 16.4883C21.7047 16.4987 21.6544 16.4992 21.6055 16.4898C21.5566 16.4803 21.5101 16.4611 21.4687 16.4334C21.4088 16.399 21.3599 16.3482 21.3279 16.2868C21.2959 16.2255 21.282 16.1563 21.288 16.0873C21.3 15.991 21.3372 15.8996 21.3959 15.8224C21.4546 15.7452 21.5326 15.685 21.622 15.6479C21.7235 15.6158 21.8315 15.61 21.9359 15.6312C22.0403 15.6523 22.1376 15.6996 22.2188 15.7688C22.3261 15.854 22.408 15.9673 22.4553 16.0962C22.5026 16.2251 22.5136 16.3645 22.4871 16.4993C22.4732 16.608 22.4375 16.7128 22.3819 16.8072C22.3264 16.9017 22.2522 16.9838 22.164 17.0485C22.0715 17.1124 21.967 17.1565 21.8568 17.1783C21.7466 17.2 21.6331 17.1988 21.5234 17.1748C20.4995 17.0046 20.1656 15.3733 20.1656 14.8351C20.1656 14.2089 20.1656 13.2423 20.7733 12.6381C20.9425 12.4576 21.1459 12.3126 21.3715 12.2117C21.5971 12.1108 21.8404 12.056 22.0874 12.0504C22.2287 12.0528 22.368 12.0848 22.4962 12.1444C22.6245 12.204 22.7388 12.2898 22.832 12.3964C22.9999 12.5679 23.0939 12.7987 23.0939 13.039C23.0939 13.2794 22.9999 13.5101 22.832 13.6816C22.6936 13.7993 22.518 13.8639 22.3365 13.8639C22.155 13.8639 21.9795 13.7993 21.841 13.6816C21.7869 13.6364 21.7429 13.5803 21.7118 13.5169C21.6806 13.4535 21.6631 13.3843 21.6603 13.3137C21.6567 13.2483 21.6665 13.1829 21.6891 13.1215C21.7117 13.0601 21.7466 13.004 21.7917 12.9566C21.8306 12.9196 21.8776 12.8924 21.929 12.8771C21.9804 12.8618 22.0347 12.859 22.0874 12.8688C22.1859 12.8688 22.2571 12.9731 22.3064 13.1104L22.4433 13.061C22.424 12.9805 22.3833 12.9068 22.3254 12.8477C22.2675 12.7887 22.1947 12.7466 22.1148 12.726C22.0391 12.7126 21.9614 12.7176 21.888 12.7406C21.8147 12.7635 21.7479 12.8037 21.6932 12.8578C21.6346 12.9189 21.5889 12.9913 21.5588 13.0706C21.5287 13.1498 21.5148 13.2344 21.518 13.3191C21.5233 13.4098 21.5469 13.4984 21.5873 13.5796C21.6278 13.6608 21.6843 13.7329 21.7534 13.7915C21.9186 13.932 22.1281 14.0091 22.3447 14.0091C22.5613 14.0091 22.7709 13.932 22.9361 13.7915C23.129 13.5943 23.2371 13.3291 23.2371 13.0528C23.2371 12.7765 23.129 12.5112 22.9361 12.314C22.8289 12.1937 22.6983 12.0965 22.5524 12.0285C22.4064 11.9605 22.2482 11.9231 22.0874 11.9186C21.8231 11.9223 21.5621 11.9786 21.3196 12.0842C21.0772 12.1898 20.858 12.3426 20.6748 12.5337V12.5337Z" fill="#EE5046"/>
<path d="M21.6986 12.0284C21.8105 12.3486 21.9692 12.6503 22.1695 12.9237L22.2845 12.8358C22.0931 12.5782 21.9418 12.293 21.8355 11.99L21.6986 12.0284Z" fill="#EE5046"/>
<path d="M20.965 12.4183C21.2407 12.6887 21.4311 13.0344 21.5125 13.4124H21.6549C21.5693 12.9973 21.3659 12.6158 21.069 12.314L20.965 12.4183Z" fill="#EE5046"/>
<path d="M21.4468 17.2188L21.5837 17.2572C21.6534 16.9982 21.7828 16.7593 21.9615 16.5597L21.8629 16.4553C21.6635 16.6715 21.5206 16.9338 21.4468 17.2188V17.2188Z" fill="#EE5046"/>
<path d="M20.7076 16.6914L20.8062 16.7903C21.0499 16.5384 21.2366 16.2368 21.3537 15.906L21.2223 15.8621C21.1084 16.1706 20.9333 16.4527 20.7076 16.6914V16.6914Z" fill="#EE5046"/>
<path d="M12.7301 5.95384C13.2176 6.21628 13.7594 6.36108 14.3125 6.37676C14.9108 6.42798 15.5089 6.27509 16.0098 5.94285L15.9167 5.833C15.4398 6.13851 14.8765 6.2793 14.3125 6.23395C13.7841 6.21815 13.2667 6.07899 12.8013 5.82751L12.7301 5.95384Z" fill="#EE5046"/>
<path d="M21.414 19.0423L21.3811 19.2016C21.0964 20.4813 20.2313 24.3645 14.4822 24.3645C8.73315 24.3645 7.72569 20.4044 7.40812 19.0972L7.35885 18.8995C7.14533 18.1879 6.84171 17.5068 6.45542 16.8728L6.33496 16.9497C6.71504 17.5712 7.01319 18.2395 7.22196 18.9379L7.26577 19.1302C7.58333 20.4593 8.54699 24.5073 14.4603 24.5073C18.3478 24.5073 20.7186 22.7332 21.4961 19.2345L21.5344 19.0752C21.7256 18.2791 22.0576 17.5239 22.5145 16.8453L22.3941 16.7684C21.9378 17.4633 21.6061 18.2328 21.414 19.0423Z" fill="#EE5046"/>
<path d="M17.7126 12.0889H14.9749C14.9366 12.0889 14.5424 12.4129 14.4274 12.4953L13.9182 12.1053H10.9123L9.4613 13.6927V18.5425H13.3378L13.8416 19.0478H15.0078L15.4513 18.6029H19.1745V13.5773C19.1745 13.5279 17.7947 12.1273 17.7947 12.1273L17.7126 12.0889ZM14.4603 12.6381L15.0078 12.2152H17.6962L19.0376 13.5938C19.0376 13.5938 19.0376 18.2898 19.0376 18.4271H15.3911L14.9421 18.872H13.8908L13.3871 18.3667H9.57628V13.7091C9.57628 13.7091 10.852 12.336 10.9615 12.2152H13.8635L14.3727 12.6216L14.4165 12.6546L14.4603 12.6381Z" fill="#EE5046"/>
<path d="M10.863 12.1658V16.9826H13.9566L14.3891 17.3891L14.4384 17.4275L14.9859 16.9606H17.7236H17.7948V12.1438H17.6524C17.6524 12.1438 17.6524 16.675 17.6524 16.8178H14.9148C14.871 16.8178 14.5424 17.1254 14.4329 17.2243L14.0004 16.8398H10.9999V12.1658H10.863Z" fill="#EE5046"/>
<path d="M18.3423 12.8962C18.3423 12.8962 18.3423 17.4 18.3423 17.5373H15.1283C15.079 17.5373 14.5808 18.0097 14.5808 18.0097H14.1099L13.6664 17.5703H10.2826C10.2826 17.433 10.2826 12.9347 10.2826 12.9347H10.1458V17.7131H13.6171L14.0551 18.1525H14.6355C14.6848 18.1525 15.183 17.6746 15.183 17.6746H18.4682V12.8907L18.3423 12.8962Z" fill="#EE5046"/>
<path d="M10.5236 12.5447V17.367H13.7704L14.2139 17.8284H14.5862C14.5862 17.8284 14.964 17.4055 15.0024 17.356H18.1671V12.5831H18.0193C18.0193 12.5831 18.0193 17.0759 18.0193 17.2132H14.9312L14.5151 17.6856H14.2961L13.858 17.2242H10.6878C10.6878 17.0869 10.6878 12.5447 10.6878 12.5447H10.5236Z" fill="#EE5046"/>
<path d="M18.6763 13.2642V17.9876H15.1721L14.7779 18.3831H13.9785L13.5952 17.9053H9.9158C9.9158 17.7679 9.9158 13.3465 9.9158 13.3465H9.77344V18.0481H13.5295L13.9183 18.5259H14.8436L15.2378 18.1304H18.8241V13.2642H18.6763Z" fill="#EE5046"/>
<path d="M9.45044 18.4106L9.55447 18.5039L10.989 16.9606L10.885 16.8617L9.45044 18.4106Z" fill="#EE5046"/>
<path d="M17.6688 16.9551L19.0048 18.5204L19.1143 18.427L17.7783 16.8617L17.6688 16.9551Z" fill="#EE5046"/>
<path d="M9.72412 2.77912L8.94662 1.4939L8.52502 1.72458L9.30252 3.00981L9.72412 2.77912Z" fill="#EE5046"/>
<path d="M7.7312 4.1523L9.81182 2.93848L10.4579 3.9381L10.0199 4.19075L9.57638 3.5042L7.92831 4.45988L7.7312 4.1523Z" fill="#EE5046"/>
<path d="M7.34784 3.70741C7.25575 3.66115 7.17486 3.59525 7.11083 3.51433C7.04681 3.4334 7.0012 3.33941 6.9772 3.23894C6.95321 3.13847 6.9514 3.03396 6.97192 2.93272C6.99244 2.83147 7.03478 2.73595 7.09598 2.65286C7.22072 2.46757 7.40629 2.33203 7.62038 2.26981C7.83447 2.20759 8.06352 2.22263 8.26769 2.31233C8.35978 2.35859 8.44068 2.42448 8.50471 2.50541C8.56873 2.58633 8.61434 2.68032 8.63834 2.78079C8.66233 2.88126 8.66413 2.98578 8.64362 3.08702C8.6231 3.18827 8.58075 3.28378 8.51956 3.36687C8.39481 3.55216 8.20925 3.68772 7.99516 3.74993C7.78107 3.81215 7.55201 3.79711 7.34784 3.70741V3.70741ZM8.20199 2.9879C8.20404 2.94046 8.19567 2.89317 8.17748 2.84934C8.15929 2.80551 8.13172 2.76622 8.09673 2.73426C8.06173 2.7023 8.02016 2.67845 7.97496 2.66438C7.92976 2.65031 7.88203 2.64638 7.83514 2.65286C7.73201 2.6564 7.63325 2.69547 7.55546 2.76349C7.47768 2.83152 7.42563 2.92434 7.40807 3.02635C7.40697 3.07423 7.41612 3.12181 7.4349 3.16584C7.45368 3.20988 7.48166 3.24937 7.51695 3.28164C7.55223 3.31391 7.59401 3.33823 7.63945 3.35293C7.6849 3.36763 7.73296 3.37238 7.78039 3.36687C7.88368 3.36289 7.98233 3.32284 8.05931 3.25364C8.13629 3.18445 8.18676 3.09045 8.20199 2.9879V2.9879Z" fill="#EE5046"/>
<path d="M41.596 12.8138V5.92078H45.1933V23.1505H41.6015V15.4611H37.4895V23.1505H33.8977V5.92078H37.4895V12.8193L41.596 12.8138Z" fill="#EE5046"/>
<path d="M53.6252 20.8493C51.6048 20.8493 51.342 18.9434 51.342 14.5275C51.342 10.1116 51.5993 8.20571 53.6197 8.20571C55.6401 8.20571 55.9084 10.1116 55.9084 14.5275C55.9084 18.9434 55.6511 20.8493 53.6252 20.8493ZM53.6252 23.4307C59.5495 23.4307 59.5495 19.0368 59.544 14.5275C59.5385 10.0182 59.544 5.62427 53.6197 5.62977C47.6954 5.63526 47.6954 9.96878 47.6954 14.533C47.6954 19.0972 47.6954 23.4307 53.6252 23.4307Z" fill="#EE5046"/>
<path d="M62.1613 23.1505V5.90979H67.0124L71.5843 17.8393H71.6335V5.90979H74.9899V23.1505H70.2538L65.5559 10.5179H65.5121V23.1505H62.1613Z" fill="#EE5046"/>
<path d="M85.8693 11.1991C85.8693 9.60078 85.6284 8.19472 83.723 8.19472C81.4891 8.19472 81.4891 11.2265 81.4891 14.5659C81.4891 19.9595 82.0366 20.9152 84.0625 20.9097C84.6716 20.8956 85.2744 20.7824 85.8474 20.5746V16.7574H83.8928V14.1101H89.4338V22.843C87.8329 23.1539 86.2116 23.3466 84.5826 23.4197C78.5598 23.4197 77.848 20.9152 77.8425 14.3792C77.8425 10.0347 78.0615 5.61877 83.9311 5.61877C87.4517 5.61877 89.6418 7.59605 89.4064 11.1991H85.8693Z" fill="#EE5046"/>
<path d="M92.4233 23.1505V5.8988H96.0097V23.1285L92.4233 23.1505Z" fill="#EE5046"/>
<path d="M106.944 5.89343H110.891L106.09 13.6268L110.897 23.1506H106.856L102.739 14.3243H102.689V23.1506H99.0977V5.89892H102.689V13.2643H102.733L106.944 5.89343Z" fill="#EE5046"/>
<path d="M132.607 5.88794V18.1031C132.607 20.679 131.161 23.3978 126.781 23.4033C122.833 23.4033 120.928 21.3546 120.928 18.1031V5.88794H124.52V17.8669C124.52 19.987 125.423 20.8218 126.737 20.8218C128.303 20.8218 129.015 19.7728 129.015 17.8614V5.88794H132.607Z" fill="#EE5046"/>
<path d="M136.007 23.1121V5.88232H140.858L145.43 17.8119H145.479V5.88232H148.835V23.1066H144.099L139.407 10.5179H139.358V23.1176L136.007 23.1121Z" fill="#EE5046"/>
<path d="M152.274 23.1067V5.87695H155.86V23.1012L152.274 23.1067Z" fill="#EE5046"/>
<path d="M158.401 5.87684H162.13L164.802 18.3996H164.867L167.862 5.87134H171.405L166.866 23.1011H162.661L158.401 5.87684Z" fill="#EE5046"/>
<path d="M174 19.9265V23.1011H171.12V19.9265H174Z" fill="#EE5046"/>
</g>
<defs>
<clipPath id="clip0_497_1306">
<rect width="174" height="29" fill="white"/>
</clipPath>
</defs>
</svg>
