<svg width="174" height="29" viewBox="0 0 174 29" fill="none" xmlns="http://www.w3.org/2000/svg">
<g clip-path="url(#clip0_497_448)">
<path d="M8.56888 18.037V18.1193C8.57133 18.1339 8.57133 18.1487 8.56888 18.1633C8.55254 18.1888 8.52991 18.2096 8.50318 18.2237L8.4101 18.2512C8.37074 18.2625 8.329 18.2625 8.28964 18.2512C8.26956 18.2454 8.25114 18.2349 8.23591 18.2206C8.22067 18.2063 8.20906 18.1885 8.20204 18.1688V18.1248C8.20204 18.1248 8.20204 18.0974 8.20204 18.0754H8.30059H8.42105H8.59079L8.56888 18.037ZM8.50318 17.8008H8.47033H8.30607L8.09253 17.8392L7.87352 17.8667H7.80782H7.72021H7.64355V17.9161C7.64533 17.9381 7.64533 17.9601 7.64355 17.982C7.64776 18.0001 7.64776 18.0189 7.64355 18.037C7.64587 18.0589 7.64587 18.081 7.64355 18.1029H7.75306H7.86804H7.96112H8.05968C8.06305 18.1117 8.06305 18.1215 8.05968 18.1303C8.05968 18.1303 8.05968 18.1303 8.05968 18.1688C8.06155 18.1815 8.06155 18.1945 8.05968 18.2072C8.05831 18.2273 8.05831 18.2475 8.05968 18.2676C8.06914 18.3044 8.0839 18.3395 8.10348 18.372C8.12146 18.4057 8.14788 18.4341 8.18014 18.4544C8.20961 18.4757 8.24317 18.4907 8.27869 18.4983C8.31866 18.5038 8.35919 18.5038 8.39915 18.4983C8.45416 18.4944 8.50536 18.4687 8.54151 18.4269C8.57982 18.3844 8.60294 18.3303 8.60721 18.2731C8.61015 18.2476 8.61015 18.2218 8.60721 18.1962C8.61025 18.1707 8.61025 18.1449 8.60721 18.1193C8.61031 18.0938 8.61031 18.068 8.60721 18.0424C8.60391 18.0077 8.60391 17.9728 8.60721 17.9381V17.8063L8.50318 17.8008Z" fill="black"/>
<path d="M8.72761 18.8278C8.73813 18.8656 8.73813 18.9055 8.72761 18.9432C8.72259 18.9616 8.71288 18.9783 8.69944 18.9918C8.686 19.0053 8.66929 19.015 8.65096 19.0201C8.62931 19.0248 8.6069 19.0248 8.58525 19.0201C8.44837 19.053 8.37171 19.0201 8.34434 18.8773C8.34178 18.8664 8.34178 18.8552 8.34434 18.8443H8.44837H8.55787L8.72214 18.8059C8.72214 18.8059 8.72761 18.8114 8.72761 18.8278ZM7.92822 19.3771C7.92822 19.3771 7.92822 19.3771 7.92822 19.432C7.92424 19.4556 7.92424 19.4798 7.92822 19.5034L7.99392 19.4375L8.12533 19.3112L8.33887 19.108C8.3619 19.1678 8.40432 19.2181 8.45932 19.2508C8.51555 19.2734 8.5783 19.2734 8.63453 19.2508C8.67734 19.244 8.71728 19.2249 8.74951 19.1958C8.77886 19.1643 8.80124 19.1268 8.81522 19.086C8.82343 19.0573 8.82343 19.0268 8.81522 18.9981C8.81854 18.9506 8.81854 18.9028 8.81522 18.8553C8.81522 18.8169 8.81522 18.7839 8.81522 18.751C8.81777 18.718 8.81777 18.685 8.81522 18.6521V18.5532L8.62358 18.6027L8.5086 18.6301L8.25674 18.685H8.14175L7.97749 18.718H7.88441H7.85704V18.7674C7.85495 18.7875 7.85495 18.8078 7.85704 18.8278C7.85524 18.8461 7.85524 18.8645 7.85704 18.8828C7.85704 18.8828 7.85704 18.9267 7.85704 18.9487H7.92274H7.99939H8.03772L8.28411 18.8938L8.22388 18.9487L8.1527 19.0091L7.90084 19.2343C7.91436 19.2753 7.92354 19.3177 7.92822 19.3606V19.3771Z" fill="black"/>
<path d="M8.27325 19.9047C8.32969 19.8331 8.40584 19.7796 8.49226 19.7509L8.65105 19.7015C8.70183 19.6934 8.75357 19.6934 8.80436 19.7015C8.85543 19.7046 8.90467 19.7217 8.94672 19.7509C8.9708 19.7664 8.99287 19.7849 9.01242 19.8059L9.05074 19.8828C9.06874 19.9264 9.07418 19.9743 9.06644 20.0209C9.0587 20.0675 9.03808 20.111 9.00694 20.1464C8.95137 20.2226 8.87256 20.2785 8.78245 20.3057C8.73293 20.3254 8.68157 20.3401 8.62915 20.3496C8.58204 20.3577 8.5339 20.3577 8.48679 20.3496C8.43157 20.3422 8.37897 20.3215 8.33348 20.2892C8.28958 20.2584 8.25691 20.214 8.2404 20.1629C8.22367 20.1206 8.21791 20.0747 8.22365 20.0296C8.2294 19.9844 8.24646 19.9415 8.27325 19.9047ZM8.94672 20.4869L9.03979 20.4155C9.06961 20.3861 9.09539 20.3529 9.11645 20.3167C9.13421 20.282 9.14711 20.245 9.15478 20.2068C9.16531 20.1506 9.16531 20.0928 9.15478 20.0366C9.15122 19.9757 9.13636 19.9161 9.11097 19.8608C9.08847 19.7908 9.0532 19.7256 9.00694 19.6686C8.96587 19.612 8.91127 19.5666 8.84816 19.5367C8.78656 19.5003 8.717 19.4796 8.64557 19.4763C8.57283 19.4711 8.49986 19.4824 8.43203 19.5093C8.36828 19.5341 8.30908 19.5694 8.25682 19.6136C8.205 19.6567 8.16378 19.7112 8.13637 19.7729C8.10945 19.8372 8.09639 19.9064 8.09804 19.9761C8.10209 20.0493 8.11685 20.1215 8.14184 20.1903C8.17212 20.2693 8.21667 20.3419 8.27325 20.4045C8.31738 20.4582 8.37126 20.5029 8.43203 20.5364C8.49584 20.5723 8.56704 20.5929 8.64009 20.5968C8.71252 20.5966 8.7845 20.5855 8.85363 20.5638L8.94672 20.4869Z" fill="black"/>
<path d="M9.5216 20.7671L9.55993 20.8165C9.57021 20.8304 9.57937 20.8451 9.58731 20.8605L9.63111 20.9099L9.66944 20.9483L9.57636 21.0142L9.50518 21.0637L9.4559 21.1021L9.35735 21.1845C9.37897 21.2189 9.40275 21.252 9.42852 21.2834L9.48875 21.3603L9.56541 21.4591C9.58747 21.4812 9.60762 21.5051 9.62564 21.5305L9.78442 21.3987L9.83917 21.3548L9.92677 21.2779C9.94329 21.2933 9.95636 21.312 9.9651 21.3328C9.9651 21.3328 9.9651 21.3713 9.99796 21.3713L10.0363 21.4207L10.0746 21.4591L10.0144 21.5031L9.91583 21.5745L9.65301 21.7777L9.5216 21.8875L9.30807 22.0688L9.26974 22.0139V21.9754L9.22046 21.9205L9.18214 21.8821L9.34639 21.7667L9.51065 21.6404L9.56541 21.5964L9.434 21.4262L9.29164 21.2559L9.15476 21.3658L9.0343 21.4701L8.93027 21.558L8.89194 21.5086V21.4646L8.84266 21.4097C8.84266 21.4097 8.80981 21.3767 8.80981 21.3713L8.96312 21.2559L9.23141 21.0582L9.36282 20.9483L9.5216 20.7671Z" fill="black"/>
<path d="M9.91585 22.3597C9.92428 22.2679 9.95845 22.1803 10.0144 22.1071C10.048 22.0625 10.0845 22.0203 10.1239 21.9808C10.1604 21.9467 10.2008 21.9172 10.2444 21.8929C10.2904 21.8705 10.341 21.8592 10.3922 21.8599H10.4743L10.551 21.9094C10.5898 21.9355 10.6206 21.9719 10.6399 22.0146C10.6593 22.0573 10.6664 22.1045 10.6605 22.151C10.6485 22.2446 10.6127 22.3335 10.5565 22.4092C10.5245 22.45 10.4898 22.4886 10.4524 22.5245C10.4159 22.5569 10.3754 22.5846 10.332 22.6069C10.2816 22.6278 10.2277 22.639 10.1732 22.6399C10.1197 22.6359 10.0685 22.6168 10.0254 22.5849C9.98916 22.5602 9.96002 22.5264 9.94081 22.4869C9.92161 22.4474 9.91301 22.4036 9.91585 22.3597ZM10.7919 22.4806C10.8103 22.4462 10.8233 22.4091 10.8302 22.3707C10.8387 22.3309 10.8387 22.2897 10.8302 22.2499C10.8367 22.2099 10.8367 22.1691 10.8302 22.1291C10.8117 22.0752 10.7839 22.025 10.7481 21.9808C10.7118 21.9333 10.6694 21.8909 10.6222 21.8544C10.563 21.8129 10.4986 21.7797 10.4305 21.7556C10.3636 21.733 10.2929 21.7237 10.2225 21.7281C10.1511 21.732 10.0817 21.7527 10.0199 21.7885C9.95709 21.8238 9.90286 21.8725 9.8611 21.9313C9.81876 21.988 9.78551 22.0511 9.76254 22.1181C9.74875 22.1814 9.74875 22.247 9.76254 22.3103C9.77306 22.3794 9.79928 22.4452 9.83919 22.5025C9.88159 22.5634 9.93333 22.6172 9.9925 22.6618C10.0508 22.7061 10.1154 22.7412 10.1841 22.7662C10.2512 22.7772 10.3196 22.7772 10.3867 22.7662C10.4577 22.7603 10.5267 22.7397 10.5893 22.7058C10.6535 22.668 10.7094 22.6176 10.7536 22.5575C10.7638 22.5322 10.7729 22.5066 10.7809 22.4806H10.7919Z" fill="black"/>
<path d="M10.9451 22.6289L11.1641 22.2554H11.2024C11.2024 22.3652 11.2024 22.4531 11.2024 22.508C11.2024 22.563 11.2024 22.6124 11.2024 22.7607V23.0133L11.3448 22.8925L11.7719 22.5135H11.8266C11.7755 22.6856 11.7372 22.8229 11.7117 22.9254C11.6788 23.0353 11.6569 23.1122 11.646 23.1671L11.5802 23.4088C11.5797 23.4179 11.5797 23.4271 11.5802 23.4362C11.5802 23.4362 11.5802 23.4362 11.5802 23.4692L11.52 23.4417C11.5056 23.4384 11.4906 23.4384 11.4762 23.4417H11.416H11.3667C11.3996 23.3539 11.4379 23.255 11.4707 23.1397C11.5036 23.0243 11.5364 22.9145 11.5638 22.8046L11.3831 22.9694C11.3174 23.0188 11.2572 23.0737 11.197 23.1287L11.0163 23.2934H10.9889V23.0408V22.8101C10.9889 22.7332 10.9889 22.6563 10.9889 22.5794L10.863 22.7991L10.7863 22.9474L10.7206 23.0737L10.6823 23.1506H10.644H10.5837L10.644 23.0573L10.7097 22.9529L10.7863 22.8266C10.9123 22.6948 10.9287 22.6563 10.9451 22.6289Z" fill="black"/>
<path d="M12.4618 22.7168V22.7827C12.4618 22.8431 12.429 22.8816 12.4235 22.898C12.418 22.9145 12.4235 22.9749 12.3852 23.0354C12.3684 23.078 12.3556 23.1222 12.3468 23.1672C12.3328 23.214 12.3219 23.2617 12.314 23.31C12.314 23.3759 12.303 23.4253 12.2811 23.4583C12.2689 23.5015 12.2597 23.5456 12.2537 23.5901V23.667H12.1935H12.1442H12.0183L12.0731 23.4802C12.1278 23.31 12.1607 23.2056 12.1716 23.1617V23.0848L12.2154 22.9035C12.2136 22.8779 12.2136 22.8522 12.2154 22.8266C12.2175 22.7901 12.2175 22.7534 12.2154 22.7168H12.2811H12.3249H12.3906H12.4618Z" fill="black"/>
<path d="M12.6534 23.7655H12.5987H12.533C12.533 23.6721 12.5822 23.5678 12.6041 23.4469C12.626 23.3261 12.6425 23.2108 12.6589 23.0954L12.6917 22.8647V22.7988H12.752C12.7738 22.8016 12.7959 22.8016 12.8177 22.7988L12.9874 23.0515L13.1626 23.3041L13.3324 23.5623L13.3816 23.2492V23.0899C13.3816 23.0899 13.3816 23.046 13.3816 23.0075C13.3816 22.9691 13.3816 22.9416 13.3816 22.9197H13.42H13.5076V22.9966C13.5102 23.0184 13.5102 23.0406 13.5076 23.0625C13.5076 23.1229 13.5076 23.1613 13.5076 23.1723C13.5076 23.1833 13.5076 23.2657 13.4802 23.3151C13.4528 23.3645 13.4802 23.4085 13.4802 23.4414V23.5842L13.4364 23.8863H13.3981H13.3378C13.2776 23.7984 13.2393 23.727 13.2119 23.6886L13.086 23.4909L12.9491 23.2986L12.8231 23.1119L12.7903 23.3041V23.4305C12.7903 23.4634 12.7903 23.5403 12.7903 23.6611L12.6534 23.7655Z" fill="black"/>
<path d="M14.619 22.9473C14.6164 22.982 14.6164 23.0169 14.619 23.0516C14.619 23.0846 14.619 23.1175 14.619 23.156V23.2988V23.4526C14.6314 23.529 14.6314 23.6069 14.619 23.6832C14.5987 23.7592 14.5496 23.8243 14.4822 23.8645C14.4451 23.8925 14.4019 23.9113 14.3562 23.9194C14.3091 23.9278 14.2609 23.9278 14.2139 23.9194C14.1268 23.9215 14.0404 23.9027 13.962 23.8645C13.9159 23.856 13.8726 23.8366 13.8354 23.8079C13.7983 23.7793 13.7685 23.7422 13.7485 23.6997C13.7485 23.6997 13.7485 23.6997 13.7485 23.6668C13.7458 23.6522 13.7458 23.6374 13.7485 23.6228C13.7459 23.612 13.7459 23.6007 13.7485 23.5899V22.9692H13.9784V23.0406C13.9784 23.0736 13.9784 23.134 13.9784 23.2054C13.974 23.2621 13.974 23.319 13.9784 23.3757V23.5459C13.9757 23.5825 13.9757 23.6192 13.9784 23.6558C13.9746 23.685 13.9746 23.7145 13.9784 23.7437C13.9884 23.7713 14.0054 23.7959 14.0277 23.8151C14.071 23.8554 14.1274 23.8788 14.1865 23.881C14.2414 23.8842 14.2962 23.8728 14.3453 23.848C14.3907 23.8138 14.4266 23.7684 14.4493 23.7162C14.4544 23.6761 14.4544 23.6355 14.4493 23.5954C14.4526 23.5368 14.4526 23.4782 14.4493 23.4196V22.9857H14.5971L14.619 22.9473Z" fill="black"/>
<path d="M14.8709 23.3755V22.9416H14.9257H14.964L15.0899 23.1613L15.2213 23.3755C15.2651 23.4469 15.3089 23.5183 15.3582 23.5898L15.4239 23.414C15.4951 23.2327 15.5608 23.057 15.6265 22.8647H15.6867H15.747C15.7798 23.035 15.8127 23.1723 15.8346 23.2822C15.8565 23.392 15.8729 23.4689 15.8893 23.5238L15.9441 23.771C15.9441 23.771 15.9441 23.771 15.9441 23.804H15.8291H15.7634H15.7086C15.7013 23.6984 15.6848 23.5936 15.6594 23.4909C15.6594 23.37 15.6156 23.2602 15.5882 23.1504C15.5882 23.2272 15.5334 23.3041 15.5006 23.381L15.4184 23.6062C15.4184 23.6557 15.3692 23.738 15.3363 23.8369H15.2816L15.1502 23.6172L15.0297 23.4195C14.9914 23.3536 14.9476 23.2932 14.9092 23.2218V23.8754H14.8435H14.7778V23.8479C14.7778 23.8479 14.7778 23.7875 14.7778 23.738C14.7778 23.6886 14.7778 23.6612 14.7778 23.6172C14.7778 23.5733 14.7778 23.5238 14.7778 23.4744C14.8063 23.4391 14.8374 23.4061 14.8709 23.3755Z" fill="black"/>
<path d="M16.6449 22.8483L16.6121 22.7439H16.6504C16.6875 22.73 16.7283 22.73 16.7654 22.7439C16.7837 22.7517 16.7991 22.7652 16.8092 22.7824C16.8234 22.8026 16.8345 22.8248 16.8421 22.8483C16.8501 22.8752 16.8501 22.9038 16.8421 22.9307C16.85 22.9557 16.85 22.9826 16.8421 23.0076C16.8285 23.0267 16.8119 23.0434 16.7928 23.057L16.7161 23.0845L16.6723 22.9417C16.6605 22.9114 16.6513 22.8802 16.6449 22.8483ZM17.0501 22.9142C17.0636 22.8879 17.0706 22.8587 17.0706 22.8291C17.0706 22.7995 17.0636 22.7703 17.0501 22.7439C17.0424 22.7099 17.0255 22.6787 17.0014 22.6535C16.9773 22.6283 16.9468 22.6102 16.9132 22.6011C16.8488 22.5828 16.7806 22.5828 16.7161 22.6011L16.519 22.6671L16.3602 22.711L16.4259 22.8977C16.4588 22.9819 16.4807 23.0424 16.4916 23.079C16.4916 23.079 16.4916 23.1394 16.5409 23.2383C16.5902 23.3371 16.5902 23.414 16.6066 23.458C16.623 23.5019 16.6066 23.5239 16.6066 23.5568C16.6086 23.5879 16.6086 23.6191 16.6066 23.6502L16.7216 23.6063L16.9242 23.5458H16.9735H17.0118L17.0939 23.4909C17.1201 23.4707 17.1408 23.4443 17.1542 23.414C17.1815 23.3472 17.1815 23.2722 17.1542 23.2053C17.1442 23.1747 17.1278 23.1466 17.106 23.123C17.0843 23.0993 17.0578 23.0805 17.0282 23.068C16.9956 23.0629 16.9623 23.0629 16.9297 23.068C16.8989 23.0623 16.8674 23.0623 16.8366 23.068C16.8788 23.0587 16.9184 23.0401 16.9525 23.0135C16.9866 22.9869 17.0143 22.953 17.0337 22.9142H17.0501ZM16.738 23.1504C16.7612 23.1396 16.7864 23.134 16.8119 23.134C16.8375 23.134 16.8627 23.1396 16.8859 23.1504C16.9101 23.1654 16.931 23.1854 16.947 23.2091C16.9631 23.2327 16.9739 23.2595 16.9789 23.2877C16.9928 23.3305 16.9928 23.3767 16.9789 23.4195C16.9695 23.4416 16.9565 23.462 16.9406 23.4799L16.8749 23.5184H16.8092L16.749 23.3481L16.738 23.1504Z" fill="black"/>
<path d="M17.1651 22.4804L17.2692 22.431L17.3732 22.3871L17.5375 22.3047L17.6579 22.2388C17.6588 22.2571 17.6588 22.2754 17.6579 22.2937L17.5101 22.3596C17.4574 22.3754 17.4061 22.3956 17.3568 22.42L17.4225 22.5573L17.4882 22.7001L17.7784 22.5463C17.7777 22.5592 17.7777 22.572 17.7784 22.5848C17.7784 22.5848 17.7784 22.5848 17.7784 22.6123L17.6634 22.6617L17.5484 22.7166H17.4827L17.5594 22.8814L17.6415 23.0407C17.7346 22.9967 17.8277 22.9418 17.9317 22.8814V22.9363L17.8112 22.9912L17.6962 23.0407L17.5429 23.1231L17.4334 23.1835L17.4006 23.1066L17.2911 22.8594L17.1925 22.6672L17.1213 22.5134L17.083 22.442L17.1651 22.4804Z" fill="black"/>
<path d="M18.4573 22.8759L18.408 22.9034L18.3642 22.9473C18.315 22.8705 18.2547 22.7771 18.1835 22.6782L17.9755 22.3871L17.8331 22.2059L17.7948 22.1509L17.8496 22.118L17.8934 22.074L18.1945 22.129L18.4956 22.1839L18.7968 22.2388L18.6106 21.9862L18.5121 21.8598L18.4573 21.7939C18.4573 21.7939 18.4135 21.739 18.4026 21.728H18.4354L18.4792 21.7939L18.5121 21.8489L18.5778 21.9477L18.6599 22.0631L18.7311 22.1674L18.8187 22.2828L18.9994 22.5244H18.961C18.9451 22.5377 18.9304 22.5524 18.9172 22.5684L18.6928 22.5189L18.4573 22.4695L18.2274 22.4311L18.0083 22.3926L18.1178 22.5464L18.1945 22.6508L18.3369 22.832L18.4573 22.8759Z" fill="black"/>
<path d="M18.5941 21.5028C18.6164 21.4724 18.6421 21.4447 18.6708 21.4204L18.7529 21.338C18.7904 21.2882 18.8306 21.2405 18.8734 21.1952L18.961 21.0908C18.9727 21.1081 18.9875 21.123 19.0048 21.1348L18.8898 21.2501L18.7748 21.3654L18.8789 21.4698L18.9993 21.5742L19.2074 21.327C19.1811 21.3591 19.1517 21.3885 19.1198 21.4149L19.0322 21.5082L18.9829 21.5577L19.1143 21.684L19.2512 21.8048L19.4592 21.5467L19.503 21.5906L19.41 21.684L19.3224 21.7774L19.2129 21.9037L19.1307 22.0026L19.0705 21.9421L18.8789 21.7609L18.7146 21.6126L18.5941 21.4973L18.5284 21.4423L18.5941 21.5028Z" fill="black"/>
<path d="M19.0377 21.0086L19.1089 20.9207L19.1746 20.8274L19.2732 20.6736L19.3498 20.5527C19.3617 20.5683 19.3766 20.5814 19.3936 20.5912C19.3645 20.6361 19.3315 20.6784 19.2951 20.7175L19.202 20.8493L19.3224 20.9372L19.4538 21.0251L19.6236 20.7505C19.6236 20.7505 19.6236 20.7505 19.6236 20.7779H19.651L19.5743 20.8823L19.4976 20.9866L19.4538 21.0416L19.5907 21.1349L19.8481 21.2942C19.8384 21.3145 19.8255 21.3331 19.8097 21.3491L19.7769 21.3876C19.7636 21.4064 19.7526 21.4266 19.744 21.448V21.4919L19.7714 21.5029L19.5579 21.3491L19.3772 21.2228L19.2348 21.1294L19.1691 21.0855C19.1236 21.063 19.0797 21.0373 19.0377 21.0086Z" fill="black"/>
<path d="M19.4976 20.2119L19.5579 20.2504L19.6619 20.3108L19.7824 20.3822L19.9083 20.4481L20.0397 20.514L20.1711 20.5799L20.2916 20.6348L20.3627 20.6678C20.3548 20.6877 20.3437 20.7063 20.3299 20.7227V20.7667C20.3095 20.8041 20.2912 20.8426 20.2751 20.882L20.1054 20.7886C19.9521 20.6952 19.859 20.6403 19.8207 20.6238L19.7495 20.5854L19.5852 20.503L19.5141 20.4646L19.41 20.4206C19.4234 20.4039 19.4344 20.3854 19.4429 20.3657C19.4439 20.3511 19.4439 20.3364 19.4429 20.3218L19.4757 20.2614C19.4821 20.2445 19.4894 20.228 19.4976 20.2119Z" fill="black"/>
<path d="M20.62 19.6081L20.7186 19.6795C20.7241 19.727 20.7241 19.7749 20.7186 19.8223C20.7091 19.8731 20.6944 19.9228 20.6748 19.9706C20.6645 20.0071 20.6498 20.0421 20.631 20.075C20.631 20.075 20.631 20.075 20.5926 20.1354L20.5379 20.2013L20.4722 20.2562L20.4065 20.2947H20.3353C20.2885 20.3057 20.2398 20.3057 20.1929 20.2947C20.1401 20.2942 20.088 20.283 20.0396 20.2617C19.9646 20.2383 19.8956 20.1989 19.8371 20.1464C19.784 20.0967 19.7444 20.0343 19.7221 19.9651C19.6978 19.8983 19.6866 19.8275 19.6892 19.7564C19.6978 19.6816 19.7143 19.608 19.7385 19.5367C19.7385 19.4928 19.7823 19.4433 19.8097 19.3994C19.8383 19.3592 19.8714 19.3223 19.9082 19.2896L19.9685 19.328L20.0342 19.3719C19.9903 19.3862 19.9494 19.4086 19.9137 19.4378C19.8803 19.4704 19.8542 19.5097 19.8371 19.5532C19.8163 19.5993 19.8084 19.6503 19.8142 19.7005C19.8199 19.7508 19.8392 19.7986 19.8699 19.8388C19.9332 19.9214 20.0187 19.9843 20.1163 20.02C20.1656 20.0383 20.2172 20.0494 20.2696 20.053C20.3182 20.0643 20.3688 20.0643 20.4174 20.053C20.4647 20.0402 20.5081 20.0157 20.5434 19.9816C20.577 19.9439 20.6046 19.9013 20.6255 19.8553C20.6342 19.8099 20.6342 19.7633 20.6255 19.718C20.6277 19.6813 20.6258 19.6444 20.62 19.6081Z" fill="black"/>
<path d="M19.9631 18.9268H20.0288L20.1437 18.9652L20.2806 19.0037L20.412 19.0421L20.5544 19.0805L20.7022 19.1135L20.8336 19.141C20.8589 19.1358 20.885 19.1358 20.9103 19.141V19.2014C20.9103 19.2014 20.9103 19.2398 20.9103 19.2453C20.9072 19.2874 20.9072 19.3296 20.9103 19.3716L20.7187 19.3167L20.4066 19.2179H20.3299L20.1492 19.1739H20.0726H19.9631V19.1135C19.9622 19.097 19.9622 19.0805 19.9631 19.0641C19.9631 19.0641 19.9631 19.0256 19.9631 18.9982V18.9268Z" fill="black"/>
<path d="M20.8664 18.6084C20.7821 18.646 20.6881 18.6556 20.5981 18.6359C20.5445 18.6281 20.4915 18.6171 20.4393 18.6029C20.391 18.5847 20.345 18.5607 20.3024 18.5315C20.26 18.5025 20.2259 18.4627 20.2039 18.4162C20.1978 18.3909 20.1978 18.3645 20.2039 18.3393C20.1988 18.3102 20.1988 18.2805 20.2039 18.2514C20.2079 18.2043 20.2256 18.1594 20.2548 18.1223C20.284 18.0852 20.3234 18.0575 20.3681 18.0427C20.4575 18.0167 20.5525 18.0167 20.6419 18.0427C20.6943 18.0497 20.7457 18.0626 20.7952 18.0811C20.8403 18.0964 20.8828 18.1187 20.9211 18.147C20.9648 18.1808 21.0004 18.2239 21.0252 18.2734C21.0392 18.3237 21.0392 18.3768 21.0252 18.4271C21.015 18.4679 20.9953 18.5055 20.9676 18.5371C20.94 18.5686 20.9053 18.593 20.8664 18.6084ZM20.5652 17.7736C20.5271 17.7682 20.4884 17.7682 20.4502 17.7736C20.4097 17.7843 20.371 17.8009 20.3353 17.823C20.3015 17.8451 20.2703 17.8709 20.2422 17.8999C20.2019 17.9407 20.1703 17.9893 20.1491 18.0427C20.1262 18.0973 20.1096 18.1545 20.0998 18.2129C20.0917 18.2841 20.0917 18.356 20.0998 18.4271C20.1113 18.4977 20.1374 18.5651 20.1765 18.6249C20.2152 18.6853 20.2655 18.7376 20.3243 18.7787C20.3873 18.8138 20.4558 18.838 20.5269 18.8501C20.5958 18.8611 20.666 18.8611 20.735 18.8501C20.7993 18.8376 20.8595 18.8093 20.9102 18.7677C20.9681 18.7267 21.0151 18.6719 21.0471 18.6084C21.0803 18.5449 21.1025 18.4762 21.1128 18.4052C21.1237 18.3324 21.1237 18.2583 21.1128 18.1855C21.1026 18.1163 21.0764 18.0504 21.0361 17.9932C20.9991 17.931 20.9482 17.8783 20.8874 17.8392C20.8266 17.8001 20.7575 17.7757 20.6857 17.7681C20.6419 17.7628 20.5975 17.7647 20.5543 17.7736H20.5652Z" fill="black"/>
<path d="M12.21 19.9483V19.6792C12.1521 19.7147 12.0917 19.7459 12.0293 19.7725L11.9965 19.7341L11.9581 19.6902C12.0348 19.6902 12.1169 19.6352 12.199 19.5968L12.4345 19.4814H12.4673C12.4673 19.5528 12.4673 19.6297 12.4673 19.7231C12.4673 19.9373 12.4673 20.0746 12.4673 20.1295V20.2284C12.4673 20.2723 12.4673 20.3328 12.4673 20.4152C12.4673 20.4975 12.4673 20.558 12.4673 20.6019H12.2045V20.4756C12.2045 20.3932 12.2045 20.2943 12.2045 20.1735C12.2045 20.0527 12.21 19.9703 12.21 19.9483Z" fill="black"/>
<path d="M13.7977 19.9812C13.7917 20.006 13.7777 20.028 13.7579 20.0439C13.7381 20.0598 13.7136 20.0686 13.6882 20.0691C13.6663 20.0699 13.6447 20.064 13.6261 20.0522C13.6076 20.0405 13.593 20.0234 13.5842 20.0032C13.5647 19.9638 13.5535 19.9208 13.5514 19.8769V19.8055C13.5505 19.7511 13.5597 19.6971 13.5787 19.6462C13.5839 19.6196 13.5982 19.5956 13.6193 19.5785C13.6403 19.5614 13.6667 19.5523 13.6937 19.5528C13.7485 19.5528 13.7868 19.5858 13.8142 19.6572C13.8216 19.7155 13.8216 19.7746 13.8142 19.833C13.8207 19.883 13.8151 19.9339 13.7977 19.9812ZM13.409 20.5305V20.5634H13.4528H13.5021C13.58 20.5614 13.6565 20.5426 13.7266 20.5085C13.7952 20.4724 13.8535 20.4195 13.8963 20.3547C13.9406 20.2899 13.9722 20.2172 13.9894 20.1405C14.0114 20.0581 14.0224 19.9732 14.0222 19.8879C14.0279 19.8313 14.0279 19.7742 14.0222 19.7176C14.0087 19.6622 13.9845 19.61 13.9511 19.5638C13.9143 19.5186 13.8674 19.4829 13.8142 19.4595C13.7566 19.437 13.6953 19.4258 13.6335 19.4265C13.5881 19.4203 13.542 19.4203 13.4966 19.4265C13.4522 19.4416 13.4126 19.4681 13.3816 19.5034C13.34 19.5353 13.3094 19.5795 13.294 19.6297C13.2838 19.6823 13.2838 19.7364 13.294 19.789C13.2932 19.8302 13.301 19.871 13.3171 19.9089C13.3331 19.9467 13.357 19.9808 13.3871 20.0087C13.4529 20.0642 13.5366 20.0935 13.6225 20.0911C13.6594 20.0927 13.6962 20.0861 13.7302 20.0719C13.7643 20.0577 13.7948 20.0361 13.8197 20.0087C13.8212 20.1061 13.7987 20.2023 13.7539 20.2888C13.7365 20.3347 13.7059 20.3744 13.6659 20.4028C13.6259 20.4312 13.5784 20.4469 13.5295 20.4481C13.5041 20.4523 13.4782 20.4523 13.4528 20.4481L13.3871 20.3987L13.409 20.5305Z" fill="black"/>
<path d="M14.9641 19.8553L15.0736 19.685V20.1519H14.7725C14.8436 20.0091 14.9148 19.9157 14.9641 19.8553ZM14.6629 20.2068V20.2892C14.6617 20.302 14.6617 20.3149 14.6629 20.3276H15.0955C15.0955 20.3826 15.0955 20.432 15.0955 20.4759C15.0955 20.5199 15.0955 20.5638 15.0955 20.5968H15.3474V20.3276H15.4897C15.488 20.3075 15.488 20.2873 15.4897 20.2672V20.1793C15.4897 20.1793 15.4897 20.1793 15.4897 20.1354H15.3474V19.6576C15.3474 19.6576 15.3474 19.6081 15.3474 19.5367V19.4653H15.2433H15.1338L15.0407 19.6081L14.9422 19.7564L14.8217 19.9322L14.6794 20.1464L14.6629 20.2068Z" fill="black"/>
<path d="M16.3055 20.1134C16.3113 20.0865 16.3262 20.0623 16.3476 20.045C16.369 20.0277 16.3957 20.0182 16.4232 20.0182C16.4507 20.0182 16.4774 20.0277 16.4988 20.045C16.5202 20.0623 16.5351 20.0865 16.5409 20.1134C16.5481 20.1681 16.5481 20.2235 16.5409 20.2782C16.55 20.3309 16.55 20.3848 16.5409 20.4375C16.5409 20.4979 16.4807 20.5309 16.4259 20.5309C16.397 20.53 16.3691 20.5192 16.3472 20.5002C16.3253 20.4812 16.3105 20.4552 16.3055 20.4265C16.2981 20.3682 16.2981 20.3091 16.3055 20.2508C16.2973 20.2054 16.2973 20.1588 16.3055 20.1134ZM16.6395 19.4873H16.5245H16.4588H16.3548C16.3234 19.4995 16.2939 19.5162 16.2672 19.5367C16.1822 19.6047 16.1193 19.6965 16.0865 19.8004C16.0529 19.905 16.0362 20.0145 16.0372 20.1244C16.0289 20.179 16.0289 20.2346 16.0372 20.2892C16.0486 20.3427 16.071 20.3931 16.1029 20.4375C16.1334 20.4821 16.1749 20.5181 16.2234 20.5418L16.311 20.5693C16.3418 20.5744 16.3732 20.5744 16.404 20.5693C16.5046 20.5732 16.6028 20.5377 16.6778 20.4704C16.7153 20.4378 16.7451 20.3972 16.765 20.3516C16.7848 20.306 16.7944 20.2566 16.7928 20.2068C16.7946 20.1626 16.7867 20.1185 16.7697 20.0777C16.7527 20.0369 16.7269 20.0004 16.6942 19.9706C16.6273 19.9134 16.5412 19.8839 16.4533 19.8882C16.4181 19.8871 16.3831 19.894 16.3509 19.9082C16.3187 19.9225 16.2901 19.9438 16.2672 19.9706C16.2618 19.9177 16.2618 19.8643 16.2672 19.8114C16.2672 19.7839 16.2672 19.7564 16.2672 19.718C16.2789 19.6818 16.2975 19.6483 16.3219 19.6191C16.3432 19.5895 16.3691 19.5636 16.3986 19.5422C16.4293 19.5214 16.4655 19.5099 16.5026 19.5093H16.5574H16.6066C16.6178 19.5023 16.6288 19.495 16.6395 19.4873Z" fill="black"/>
<path d="M1.99844 13.0115C2.13318 13.0126 2.2652 12.9734 2.37768 12.899C2.49017 12.8246 2.57804 12.7183 2.6301 12.5936C2.68217 12.469 2.69607 12.3316 2.67005 12.1989C2.64403 12.0663 2.57925 11.9445 2.48397 11.8489C2.38869 11.7533 2.26722 11.6883 2.13501 11.6622C2.0028 11.6361 1.86584 11.6501 1.74156 11.7023C1.61728 11.7545 1.5113 11.8427 1.43711 11.9555C1.36293 12.0684 1.32389 12.2008 1.32497 12.3359C1.3264 12.5147 1.39782 12.6857 1.52381 12.8121C1.6498 12.9384 1.82027 13.0101 1.99844 13.0115Z" fill="black"/>
<path d="M26.8345 12.7808C26.9677 12.7808 27.0979 12.7412 27.2086 12.667C27.3194 12.5927 27.4057 12.4872 27.4567 12.3638C27.5077 12.2403 27.521 12.1045 27.495 11.9735C27.469 11.8424 27.4049 11.722 27.3107 11.6276C27.2165 11.5331 27.0965 11.4687 26.9659 11.4427C26.8352 11.4166 26.6998 11.43 26.5768 11.4811C26.4537 11.5322 26.3485 11.6188 26.2745 11.7299C26.2005 11.841 26.161 11.9716 26.161 12.1053C26.161 12.2844 26.232 12.4563 26.3583 12.5829C26.4846 12.7096 26.6559 12.7808 26.8345 12.7808Z" fill="black"/>
<path d="M2.47485 7.28278L3.15927 6.36005L2.96216 6.22823L3.2414 5.84926L3.43851 5.98108L4.13387 5.04736L4.42954 5.2396L2.76505 7.486L2.47485 7.28278Z" fill="black"/>
<path d="M4.78538 6.87117L4.31997 6.55811L3.99146 6.9975L4.45686 7.31057L4.78538 6.87117Z" fill="black"/>
<path d="M5.48074 5.95932L5.19602 5.76709L3.50415 8.04645L3.78887 8.23868L5.48074 5.95932Z" fill="black"/>
<path d="M4.11193 7.09068C3.75603 7.46417 3.33443 7.63993 3.099 7.46966C2.86356 7.2994 2.90736 6.7172 3.29063 6.20091C3.6739 5.68462 4.21596 5.41 4.48972 5.59674C4.76349 5.78348 4.70326 6.17894 4.48972 6.61284M4.04622 6.68425C4.24333 6.42061 4.29809 6.13501 4.17763 6.05811C4.05717 5.98122 3.79436 6.12402 3.6301 6.38765C3.46584 6.65129 3.37276 6.9369 3.49869 7.0083C3.62462 7.0797 3.82174 6.94788 4.01885 6.67326L4.04622 6.68425Z" fill="black"/>
<path d="M4.28173 8.32115C3.94774 8.10145 4.01344 7.46983 4.42409 6.91509C4.83474 6.36036 5.43702 6.09123 5.77102 6.31642C6.10501 6.54161 6.03383 7.16774 5.62318 7.72248C5.21254 8.27721 4.61025 8.56282 4.28173 8.32115ZM5.32752 7.51925C5.57938 7.17323 5.63961 6.79975 5.45892 6.67342C5.27824 6.5471 4.91139 6.73384 4.67048 7.07987C4.42956 7.42589 4.35291 7.80486 4.53359 7.9257C4.71428 8.04653 5.07018 7.88176 5.32752 7.53574V7.51925Z" fill="black"/>
<path d="M14.2851 0.647949H13.1572V3.28431H14.9641V1.94965H15.1229V3.28431H15.6102V0.647949H15.1283V1.57068H14.9696V0.658934H14.4877V2.93829H13.5788V0.94454H14.2851V0.647949Z" fill="black"/>
<path d="M24.8689 5.16846L26.2541 7.06334L24.2885 8.36505L24.4418 8.56827L24.1352 8.76599L22.5419 6.59099L22.8485 6.39327L23.1277 6.77774L24.3706 5.95937L24.6553 6.35482L23.4124 7.17868L23.5274 7.33796L24.7813 6.50861L25.055 6.88759L23.8067 7.71694L23.9928 7.98607L25.6573 6.88209L24.5568 5.36618L24.8689 5.16846Z" fill="black"/>
<path d="M20.0177 1.66406L21.2277 2.42202L21.0635 2.65819L19.8644 1.90024L20.0177 1.66406Z" fill="black"/>
<path d="M19.5633 1.87305L21.1895 2.90013L20.9924 3.18574L19.3717 2.16415L19.5633 1.87305Z" fill="black"/>
<path d="M21.5563 2.64209L22.0108 2.9277L21.5344 3.61425L21.7808 3.77353L21.5618 4.09209L21.31 3.9383L21.0855 4.26235L20.642 3.98224L21.5563 2.64209Z" fill="black"/>
<path d="M18.9391 3.04834L21.0252 4.36103L20.4996 5.11898L20.0451 4.83338L20.3462 4.39398L18.7146 3.3669L18.9391 3.04834Z" fill="black"/>
<path d="M19.3771 2.54318C19.4967 2.40639 19.6629 2.31932 19.8432 2.299C20.0234 2.27869 20.2048 2.32659 20.3517 2.43333C20.4296 2.47263 20.4988 2.52736 20.5551 2.59422C20.6114 2.66107 20.6536 2.73866 20.6792 2.82232C20.7047 2.90597 20.7132 2.99396 20.7039 3.08097C20.6947 3.16798 20.668 3.25222 20.6254 3.3286C20.5075 3.4661 20.3421 3.55381 20.1624 3.57418C19.9827 3.59455 19.8019 3.54607 19.6563 3.43845C19.5779 3.39963 19.5082 3.34527 19.4513 3.27863C19.3945 3.212 19.3517 3.13448 19.3256 3.05078C19.2995 2.96708 19.2906 2.87894 19.2995 2.79169C19.3083 2.70444 19.3347 2.61989 19.3771 2.54318ZM19.7987 3.23523C19.8785 3.27118 19.9688 3.27589 20.0518 3.24845C20.1349 3.22101 20.2048 3.1634 20.2477 3.08693C20.2755 3.05522 20.2966 3.0182 20.3097 2.97809C20.3229 2.93798 20.3279 2.89561 20.3243 2.85353C20.3207 2.81146 20.3087 2.77055 20.2889 2.73326C20.2692 2.69597 20.2421 2.66307 20.2093 2.63655C20.1294 2.60186 20.0395 2.5978 19.9567 2.62513C19.874 2.65246 19.8041 2.70929 19.7604 2.78485C19.7318 2.8162 19.71 2.85314 19.6964 2.89334C19.6828 2.93355 19.6776 2.97614 19.6812 3.01845C19.6848 3.06076 19.6971 3.10186 19.7173 3.13917C19.7375 3.17648 19.7652 3.20919 19.7987 3.23523Z" fill="black"/>
<path d="M0.947266 17.323L3.21405 16.6475L3.30712 16.955L2.37085 17.2351L2.72127 18.4215L3.65754 18.1414L3.75062 18.4545L1.47837 19.13L1.38529 18.817L2.4475 18.4984L2.09708 17.3175L1.03487 17.6306L0.947266 17.323Z" fill="black"/>
<path d="M2.38724 20.0144C2.51211 19.7963 2.69954 19.621 2.92513 19.5113C3.15072 19.4016 3.40402 19.3625 3.65204 19.3992C3.76022 19.4303 3.86059 19.484 3.94649 19.557C4.03239 19.6299 4.10186 19.7203 4.15029 19.8221C4.20662 19.9206 4.23984 20.0306 4.24743 20.1439C4.25502 20.2571 4.23678 20.3706 4.1941 20.4757C4.09219 20.6962 3.91564 20.8733 3.69584 20.9755C3.47783 21.0929 3.23061 21.1444 2.98405 21.1238C2.86459 21.11 2.75096 21.0645 2.65475 20.9922C2.55855 20.9198 2.48324 20.8231 2.43652 20.7119C2.37081 20.6091 2.33188 20.4913 2.32327 20.3694C2.31466 20.2476 2.33665 20.1255 2.38724 20.0144ZM3.59729 19.0642C3.30591 19.0281 3.01065 19.0858 2.75409 19.229C2.46593 19.3608 2.23329 19.5903 2.09705 19.8771C2.04278 20.0341 2.02185 20.2008 2.03559 20.3664C2.04933 20.532 2.09745 20.6929 2.17685 20.8387C2.25626 20.9846 2.36519 21.1122 2.49666 21.2133C2.62813 21.3144 2.77923 21.3869 2.94025 21.4259C3.25245 21.4764 3.57249 21.4203 3.84915 21.2667C4.10547 21.1541 4.31865 20.9614 4.45691 20.7174C4.52934 20.5557 4.56169 20.3789 4.5512 20.2019C4.54072 20.025 4.4877 19.8532 4.39668 19.7013C4.32882 19.5354 4.21971 19.3898 4.07976 19.2782C3.93981 19.1667 3.7737 19.093 3.59729 19.0642Z" fill="black"/>
<path d="M5.57391 21.6676L3.34546 22.6398L4.85117 21.4589L4.0901 23.601L4.30912 23.8866L6.1762 22.4256L5.99004 22.1839L4.47885 23.3648L5.25634 21.2392L4.98806 20.9536L3.12097 22.4146L5.57391 21.6676Z" fill="black"/>
<path d="M6.39512 23.0462C6.05306 23.101 5.7452 23.2859 5.5355 23.5625C5.41743 23.6855 5.32511 23.8311 5.26399 23.9905C5.20287 24.1499 5.17417 24.32 5.1796 24.4907C5.21117 24.7575 5.34463 25.0016 5.55193 25.1718C5.68977 25.2981 5.85751 25.3869 6.03923 25.4299C6.16644 25.4467 6.29529 25.4467 6.4225 25.4299L6.28014 25.71L6.43893 25.8418L7.26022 24.8752L6.4663 24.1996L6.29657 24.4028L6.8441 24.8862C6.78071 24.9753 6.69907 25.0498 6.60464 25.1048C6.51022 25.1597 6.40518 25.1938 6.29657 25.2047C6.09467 25.2109 5.8983 25.138 5.74904 25.0015C5.65446 24.9354 5.57819 24.8463 5.52743 24.7426C5.47666 24.6388 5.45306 24.5238 5.45885 24.4083C5.49262 24.1659 5.59963 23.9397 5.76546 23.7602C5.92156 23.5463 6.15223 23.3992 6.41155 23.3483C6.51482 23.3314 6.62056 23.3379 6.72099 23.3674C6.82142 23.3968 6.914 23.4485 6.99194 23.5185C7.12102 23.6172 7.21662 23.7534 7.2657 23.9085C7.28747 23.9827 7.29335 24.0607 7.28297 24.1374C7.27259 24.2141 7.24618 24.2877 7.20547 24.3534L7.44638 24.5566C7.52272 24.4445 7.57103 24.3156 7.58723 24.1808C7.60344 24.046 7.58705 23.9093 7.53947 23.7822C7.46055 23.5982 7.33845 23.4362 7.18357 23.3098C7.07885 23.2132 6.95499 23.1398 6.82009 23.0943C6.68518 23.0489 6.54225 23.0325 6.4006 23.0462H6.39512Z" fill="black"/>
<path d="M7.3917 26.3858L8.68388 24.3921L8.41011 24.2163L7.12341 26.2101L7.3917 26.3858Z" fill="black"/>
<path d="M7.87903 26.6545L9.01242 24.5674L9.29166 24.7212L8.74413 25.7373L10.3101 25.2759L10.6988 25.4846L9.37379 25.8526L9.58733 27.5827L9.22048 27.385L9.0617 25.9405L8.55797 26.0778L8.16375 26.8083L7.87903 26.6545Z" fill="black"/>
<path d="M12.7137 25.8091L11.5584 26.9954C11.5082 27.2197 11.5082 27.4523 11.5584 27.6765C11.6255 27.8231 11.7271 27.9512 11.8545 28.0496C11.9819 28.1481 12.1313 28.2139 12.2898 28.2415C12.4482 28.269 12.611 28.2575 12.764 28.2079C12.9171 28.1583 13.0558 28.072 13.1681 27.9566C13.2915 27.7622 13.3701 27.5427 13.3981 27.314L13.6226 25.9958L13.305 25.9409L13.0532 27.3909C13.0358 27.5309 12.9851 27.6646 12.9053 27.7808C12.8364 27.8673 12.7431 27.9309 12.6376 27.9632C12.5321 27.9956 12.4193 27.9952 12.314 27.9621C12.217 27.9528 12.1246 27.9158 12.048 27.8554C11.9713 27.7951 11.9135 27.7139 11.8814 27.6216C11.8421 27.4778 11.8421 27.326 11.8814 27.1822L12.1278 25.7322L11.8103 25.6772L12.7137 25.8091Z" fill="black"/>
<path d="M14.3563 28.3794L14.2961 26.4461L15.5499 28.341H15.9113L15.862 25.9683H15.5554L15.5992 27.8906L14.3618 25.9957H13.984L14.0333 28.3739L14.3563 28.3794Z" fill="black"/>
<path d="M17.0337 28.1489L16.6285 25.8091L16.3109 25.864L16.7161 28.2038L17.0337 28.1489Z" fill="black"/>
<path d="M16.8914 25.7981L17.2308 25.6938L18.4956 27.4074V25.2764L18.8406 25.1665L18.742 27.693L18.419 27.7974L16.8914 25.7981Z" fill="black"/>
<path d="M21.6987 26.2978L21.5618 26.0507L20.3025 26.7372L19.9192 26.0287L21.069 25.4026L20.9376 25.1609L19.7878 25.787L19.4429 25.1499L20.6858 24.4743L20.5489 24.2217L19.0322 25.0455L20.1601 27.1327L21.6987 26.2978Z" fill="black"/>
<path d="M21.2607 24.0569L21.8739 23.5681C21.9404 23.5083 22.0188 23.4634 22.1039 23.4363C22.1731 23.4241 22.2443 23.4327 22.3086 23.4611C22.3729 23.4894 22.4274 23.5362 22.4652 23.5956C22.5086 23.6386 22.5408 23.6916 22.5589 23.7501C22.5771 23.8085 22.5806 23.8705 22.5693 23.9306C22.5268 24.0504 22.4484 24.154 22.3448 24.2272L21.7973 24.6886L21.2607 24.0569ZM22.5748 25.7046L21.9615 24.9028L22.509 24.4414C22.5825 24.3759 22.6681 24.3255 22.7609 24.2931C22.8238 24.2822 22.8885 24.2892 22.9476 24.3135C23.0067 24.3378 23.0577 24.3783 23.0949 24.4304L23.3577 24.7215C23.418 24.7929 23.4618 24.8368 23.4837 24.8588L23.5548 24.9082L23.8615 24.6556L23.8286 24.6171C23.7985 24.6242 23.767 24.6233 23.7373 24.6147C23.7076 24.606 23.6806 24.5898 23.6589 24.5677C23.6052 24.5249 23.5557 24.4771 23.511 24.4249L23.303 24.1833C23.2423 24.0979 23.156 24.0344 23.0566 24.002C22.9729 23.9751 22.8829 23.9751 22.7992 24.002C22.8508 23.8962 22.8694 23.7774 22.8528 23.6608C22.8363 23.5443 22.7851 23.4355 22.7062 23.3484C22.6416 23.2498 22.5471 23.1746 22.4367 23.1341C22.3262 23.0935 22.2057 23.0897 22.0929 23.1232C21.946 23.1639 21.8108 23.2393 21.6987 23.3429L20.8665 24.0459L22.3503 25.8969L22.5748 25.7046Z" fill="black"/>
<path d="M24.3104 23.9636C24.5587 23.9245 24.7823 23.7907 24.9346 23.5901C25.0942 23.4186 25.2024 23.2054 25.2466 22.9749C25.2642 22.8648 25.2516 22.7519 25.2101 22.6484C25.1686 22.5448 25.0999 22.4546 25.0112 22.3873C24.9447 22.3214 24.8625 22.2736 24.7724 22.2486C24.6823 22.2237 24.5873 22.2222 24.4965 22.2445C24.3669 22.28 24.2458 22.3417 24.1406 22.4257L23.8669 22.6234C23.7492 22.7163 23.6227 22.7973 23.4891 22.8651C23.44 22.884 23.3866 22.8884 23.3351 22.8777C23.2837 22.867 23.2364 22.8416 23.1989 22.8047C23.16 22.7702 23.1287 22.728 23.107 22.6807C23.0853 22.6334 23.0737 22.5821 23.0729 22.5301C23.0813 22.3844 23.1438 22.2472 23.2482 22.1456C23.2836 22.081 23.3328 22.0251 23.3923 21.9819C23.4519 21.9386 23.5202 21.9091 23.5924 21.8955C23.6646 21.8818 23.7389 21.8844 23.81 21.9029C23.8812 21.9215 23.9473 21.9556 24.0037 22.0028L24.2009 21.7776C24.1244 21.6979 24.0291 21.639 23.9237 21.6063C23.8184 21.5736 23.7065 21.5683 23.5986 21.5909C23.3844 21.6549 23.1939 21.781 23.051 21.9534C22.8912 22.1164 22.7992 22.3344 22.7937 22.563C22.7981 22.661 22.8228 22.757 22.8662 22.8449C22.9095 22.9329 22.9706 23.0108 23.0456 23.0738C23.1077 23.1354 23.1852 23.1792 23.27 23.2004C23.3548 23.2217 23.4437 23.2197 23.5274 23.1946C23.6757 23.1402 23.8143 23.0624 23.938 22.964L24.2063 22.7662C24.3135 22.6814 24.4337 22.6146 24.5622 22.5685C24.6137 22.5583 24.6669 22.5616 24.7167 22.5779C24.7666 22.5943 24.8114 22.6232 24.8469 22.6619C24.9111 22.7154 24.9544 22.7898 24.9695 22.8721C24.9845 22.9544 24.9702 23.0394 24.9291 23.1123C24.8873 23.2151 24.8281 23.3099 24.7539 23.3924C24.6938 23.4815 24.6119 23.5535 24.516 23.6016C24.4201 23.6497 24.3134 23.6722 24.2063 23.667C24.0937 23.6463 23.9882 23.5972 23.8997 23.5242L23.6971 23.7494C23.7763 23.8264 23.871 23.8855 23.975 23.9224C24.0789 23.9594 24.1896 23.9734 24.2994 23.9636H24.3104Z" fill="black"/>
<path d="M26.0515 21.9974L24.0968 20.6572L23.9106 20.9263L25.8708 22.2665L26.0515 21.9974Z" fill="black"/>
<path d="M24.2556 20.4757L25.1481 18.7676L25.3945 18.8994L25.0276 19.6079L26.8728 20.5801L26.725 20.8712L24.8743 19.899L24.5075 20.6075L24.2556 20.4757Z" fill="black"/>
<path d="M27.6613 18.6523L27.7598 18.3502L26.8509 18.0592L25.7558 16.7739L25.6409 17.1309L26.5169 18.1306L25.2302 18.4326L25.1152 18.7896L26.7578 18.3667L27.6613 18.6523Z" fill="black"/>
<path d="M11.1423 10.6222V8.38682H16.07V9.11731H16.2124V8.24951H11.0054V10.765H12.8341V10.6222H11.1423Z" fill="black"/>
<path d="M15.9003 12.869L15.8346 12.9239C15.8569 13.064 15.8569 13.2067 15.8346 13.3468C15.8083 13.3686 15.7772 13.384 15.744 13.3916C15.7107 13.3992 15.6761 13.3989 15.6429 13.3908C15.6101 13.3908 15.6429 13.3358 15.6429 13.2974H15.4075V13.561C15.5499 13.561 15.6758 13.6215 15.7689 13.4786C15.8455 13.5446 15.9824 13.594 15.9879 13.7038C15.9934 13.8137 15.9277 13.7478 15.8948 13.7643C15.885 13.888 15.8667 14.011 15.8401 14.1322C15.8943 14.1432 15.9501 14.1432 16.0043 14.1322C16.1149 13.6556 16.1863 13.1706 16.2179 12.6822C16.3576 12.6887 16.4958 12.7146 16.6285 12.7591C16.6285 12.7921 16.5957 12.8086 16.5683 12.8141H16.4861C16.3769 13.2582 16.2341 13.6934 16.0591 14.1158L16.5354 14.0773C16.5218 13.8857 16.4697 13.6989 16.3821 13.5281C16.4478 13.5281 16.4971 13.583 16.5519 13.6324C16.6548 13.7118 16.7349 13.8172 16.784 13.9379C16.833 14.0585 16.8493 14.19 16.8311 14.319C16.8265 14.3495 16.8139 14.3783 16.7947 14.4024C16.7755 14.4265 16.7503 14.4451 16.7216 14.4563C16.7 14.4658 16.6767 14.4708 16.6531 14.4708C16.6296 14.4708 16.6063 14.4658 16.5847 14.4563C16.5245 14.3959 16.5354 14.3025 16.5354 14.2146C16.3328 14.2696 16.1357 14.3629 15.9277 14.4288C15.9277 14.4288 15.9277 14.5112 15.862 14.4838C15.7963 14.4563 15.8017 14.308 15.7579 14.2201C15.7196 14.33 15.6375 14.4838 15.5061 14.4948C15.4623 14.4948 15.3966 14.4947 15.3747 14.4673C15.3528 14.4398 15.3747 14.297 15.2761 14.297C15.1775 14.297 15.1885 14.297 15.1611 14.2366C15.2816 14.2091 15.4623 14.3135 15.528 14.1487C15.5701 13.9929 15.5922 13.8323 15.5937 13.6709C15.5064 13.6599 15.4181 13.6599 15.3309 13.6709C15.3309 13.7313 15.3309 13.7698 15.2542 13.7917C15.2019 13.8028 15.1478 13.8028 15.0954 13.7917C15.0461 13.7313 15.0954 13.6599 15.0954 13.594C15.1202 13.4375 15.1367 13.2799 15.1447 13.1216L15.3692 13.226H15.5937C15.5937 13.0997 15.5937 12.9898 15.5937 12.869H15.0461C15.0491 12.8361 15.0491 12.803 15.0461 12.7701H15.632L15.7415 12.6548C15.7744 12.7152 15.9386 12.7482 15.9003 12.869Z" fill="black"/>
<path d="M16.5355 14.7472C16.4972 14.7856 16.426 14.7472 16.3712 14.7746C16.4545 14.8738 16.5649 14.9463 16.6888 14.9833L16.9023 15.0383C16.9023 15.0987 16.8092 15.1042 16.8092 15.1701C16.8092 15.236 16.8092 15.258 16.8092 15.3019C16.6895 15.2513 16.5814 15.1765 16.4917 15.0822H16.4588H15.5883C15.5883 15.0822 15.5883 15.0218 15.5883 15.0053H16.2124C16.2727 14.9724 16.3165 14.8241 16.3986 14.9504C16.3538 14.8904 16.3153 14.826 16.2836 14.7581H15.8401L15.7908 14.6813H16.2343L16.3658 14.5439C16.4096 14.6208 16.4862 14.6593 16.5355 14.7472Z" fill="black"/>
<path d="M15.758 14.7965C15.758 14.8514 15.6923 14.8459 15.654 14.8679C15.4941 15.0603 15.2916 15.2127 15.0626 15.3128C15.2423 15.123 15.3852 14.9013 15.4842 14.6592C15.5793 14.6969 15.6709 14.7428 15.758 14.7965Z" fill="black"/>
<path d="M16.5464 15.3841C16.5464 15.4336 16.4972 15.4281 16.4588 15.4281C16.4336 15.4224 16.4074 15.4224 16.3822 15.4281C16.523 15.5848 16.7197 15.6795 16.9297 15.6917C16.9297 15.7466 16.8585 15.7631 16.8421 15.8071C16.8257 15.851 16.8421 15.9114 16.8038 15.9554C16.7654 15.9993 16.6724 15.8071 16.6176 15.9554V16.3838C16.6604 16.3366 16.7006 16.2871 16.7381 16.2355C16.8237 16.293 16.8965 16.3678 16.9516 16.4552L16.8859 16.4991H15.1119C15.1119 16.4991 15.1119 16.4277 15.0681 16.4167H15.3692V15.8235C15.2756 15.8933 15.1723 15.9488 15.0626 15.9883C15.2469 15.8075 15.389 15.5881 15.4787 15.3457C15.5809 15.3859 15.6782 15.4375 15.7689 15.4995C15.7689 15.5489 15.7032 15.5489 15.6649 15.5599C15.6032 15.6366 15.5354 15.7082 15.4623 15.7741L15.5992 15.818H16.3384L16.4424 15.7411C16.3767 15.6586 16.3215 15.5682 16.2781 15.472H15.8456C15.8383 15.4469 15.8383 15.4202 15.8456 15.3951H16.2891L16.4041 15.2798C16.4568 15.3066 16.5049 15.3419 16.5464 15.3841ZM15.6759 15.8565H15.5937V16.4057H15.6759V15.8565ZM16.0263 15.8565H15.9387C15.9444 15.8611 15.949 15.867 15.9522 15.8736C15.9553 15.8803 15.957 15.8876 15.957 15.8949C15.957 15.9023 15.9553 15.9096 15.9522 15.9162C15.949 15.9229 15.9444 15.9288 15.9387 15.9334V16.4057H16.0372L16.0263 15.8565ZM16.3493 15.8565H16.2891V15.8949L16.2508 15.9334V16.4057H16.3384L16.3493 15.8565Z" fill="black"/>
<path d="M12.8998 12.6434C12.8998 12.6873 12.8506 12.6983 12.8341 12.7203C12.8254 13.0203 12.9028 13.3164 13.0572 13.5735C13.2115 13.8306 13.4363 14.0377 13.7047 14.1703C13.7047 14.2417 13.6664 14.1703 13.5623 14.2307C13.4583 14.2911 13.4912 14.3955 13.4474 14.3955C13.305 14.3515 13.2064 14.1977 13.1134 14.0879C12.9096 13.7564 12.7928 13.3784 12.7739 12.9894C12.7912 13.2687 12.7281 13.5471 12.5922 13.7915C12.4563 14.0359 12.2533 14.236 12.0074 14.368C11.9292 14.4065 11.8423 14.4236 11.7555 14.4174C12.4399 14.0824 12.5166 13.319 12.4892 12.5994C12.6274 12.5967 12.7653 12.6115 12.8998 12.6434Z" fill="black"/>
<path d="M12.1661 14.8019C12.2701 14.8019 12.4892 14.8403 12.533 14.6865C12.6249 14.7246 12.7031 14.7897 12.7574 14.8733C12.7574 14.9282 12.7136 14.9337 12.6863 14.9557V15.461C12.6534 15.5324 12.5658 15.5214 12.5056 15.5269C12.4924 15.5262 12.4795 15.5224 12.468 15.5157C12.4566 15.509 12.4469 15.4997 12.4399 15.4884V15.4225H12.1716V16.521C12.1716 16.5869 12.0621 16.5814 11.9964 16.5869C11.9883 16.5886 11.98 16.5884 11.9721 16.5864C11.9641 16.5843 11.9567 16.5806 11.9504 16.5753C11.9441 16.57 11.939 16.5634 11.9356 16.5559C11.9322 16.5484 11.9305 16.5402 11.9307 16.532V14.7085L12.1661 14.8019ZM12.4344 15.038V14.9117H12.1552V15.0655L12.4344 15.038ZM12.4344 15.2962V15.1424H12.1552V15.2962H12.4344Z" fill="black"/>
<path d="M13.3817 14.8076L13.4584 14.6978C13.535 14.7527 13.6445 14.7911 13.6883 14.89C13.7321 14.9889 13.6336 14.9449 13.6062 14.9779V16.4334C13.6062 16.5267 13.4748 16.5542 13.3927 16.5597C13.3105 16.5652 13.3434 16.5597 13.3434 16.5103V16.4169C13.2787 16.3725 13.2063 16.3408 13.1298 16.3235C13.0661 16.3578 12.9939 16.3731 12.9218 16.3674C12.8835 16.329 12.9218 16.2741 12.9218 16.2192H12.6371C12.6371 16.2906 12.6371 16.4279 12.544 16.4334C12.4509 16.4389 12.4454 16.4608 12.4071 16.4334V16.4004V15.5051C12.4905 15.53 12.5712 15.5631 12.648 15.604H12.9437L13.0039 15.5271C12.9577 15.5248 12.9135 15.5074 12.878 15.4777V14.7087L13.1298 14.8186L13.3817 14.8076ZM13.3817 15.0548V14.912H13.1025V15.0657L13.3817 15.0548ZM13.3817 15.3129V15.1591H13.1025V15.3129H13.3817ZM12.9108 15.8621V15.7029H12.6316V15.8567L12.9108 15.8621ZM12.9108 16.1203V15.9665H12.6316V16.1203H12.9108ZM13.0422 15.5051C13.0793 15.5231 13.1142 15.5452 13.1463 15.571C13.2832 15.6864 13.1463 15.7358 13.1463 15.7358V16.2851H13.2941C13.3109 16.2896 13.3287 16.2882 13.3446 16.2812C13.3605 16.2742 13.3736 16.262 13.3817 16.2466V15.4173H13.086C13.097 15.4612 13.0258 15.4942 13.0258 15.4942L13.0422 15.5051Z" fill="black"/>
<path d="M17.8878 9.11719V11.5064L12.8341 11.5119V10.7649L16.2124 10.7594V9.11719H17.8878Z" fill="black"/>
<path d="M12.8286 9.11719H16.07V10.6221H12.8341L12.8286 9.11719ZM15.5334 9.62249H14.4931V9.32041H14.3562V9.62249H13.3816V9.75431H14.3288C14.1591 10.1608 13.3871 10.2047 13.3871 10.2047V10.342C14.2412 10.2816 14.411 9.85867 14.411 9.85867C14.6519 10.309 15.506 10.3475 15.506 10.3475V10.2102C14.8052 10.1443 14.5917 9.89711 14.5205 9.75431H15.5334V9.62249Z" fill="black"/>
<path d="M6.83862 16.5594C7.00678 16.7588 7.12838 16.9934 7.19452 17.246L7.3314 17.2075C7.25997 16.9294 7.125 16.6718 6.93718 16.4551L6.83862 16.5594Z" fill="black"/>
<path d="M7.43005 15.8896C7.54715 16.2204 7.73389 16.522 7.97759 16.7739L8.08162 16.6751C7.85589 16.4374 7.68242 16.1549 7.57241 15.8457L7.43005 15.8896Z" fill="black"/>
<path d="M6.6744 11.8911C6.51403 11.8968 6.35651 11.9352 6.2115 12.0042C6.0665 12.0731 5.93708 12.1711 5.8312 12.2921C5.63825 12.4892 5.53015 12.7545 5.53015 13.0308C5.53015 13.3071 5.63825 13.5723 5.8312 13.7695C5.99489 13.9132 6.20502 13.9924 6.42253 13.9924C6.64005 13.9924 6.85017 13.9132 7.01386 13.7695C7.08376 13.712 7.14048 13.64 7.18016 13.5585C7.21984 13.477 7.24156 13.3879 7.24383 13.2972C7.24937 13.2126 7.23712 13.1279 7.20788 13.0484C7.17864 12.9689 7.13305 12.8965 7.07409 12.8358C7.02082 12.7866 6.95738 12.7497 6.8883 12.7279C6.81921 12.7061 6.74618 12.6998 6.6744 12.7095C6.61588 12.7167 6.55995 12.7379 6.51134 12.7713C6.46273 12.8048 6.42288 12.8495 6.39516 12.9017L6.52109 12.9676C6.53974 12.9359 6.56509 12.9086 6.59536 12.8878C6.62563 12.8669 6.66008 12.8529 6.6963 12.8468C6.74635 12.8418 6.79689 12.847 6.84489 12.8621C6.89288 12.8772 6.93732 12.9019 6.97554 12.9347C7.06157 13.0331 7.10665 13.1609 7.10147 13.2917C7.09973 13.3625 7.08267 13.4321 7.05147 13.4956C7.02027 13.5592 6.97568 13.6151 6.92079 13.6597C6.78233 13.7773 6.60674 13.8419 6.42527 13.8419C6.2438 13.8419 6.06821 13.7773 5.92976 13.6597C5.76353 13.4884 5.67051 13.2588 5.67051 13.0198C5.67051 12.7808 5.76353 12.5512 5.92976 12.3799C6.02372 12.2739 6.13816 12.188 6.26616 12.1276C6.39415 12.0672 6.53303 12.0335 6.6744 12.0284C6.92145 12.0334 7.16501 12.088 7.3907 12.1889C7.61639 12.2899 7.81965 12.4351 7.98847 12.6161C8.60171 13.2093 8.60171 14.176 8.60171 14.7527C8.60171 15.3294 8.26771 16.9496 7.24383 17.1474C7.13374 17.1706 7.02008 17.1708 6.90988 17.1482C6.79969 17.1255 6.6953 17.0804 6.60322 17.0155C6.42866 16.8814 6.31285 16.6845 6.28017 16.4663C6.25486 16.3316 6.26644 16.1925 6.31369 16.0639C6.36093 15.9352 6.44207 15.8219 6.54846 15.7358C6.62937 15.6662 6.72697 15.619 6.83162 15.5988C6.93628 15.5785 7.04438 15.586 7.14528 15.6205C7.23395 15.6571 7.31148 15.7165 7.3701 15.7926C7.42871 15.8688 7.46636 15.959 7.47927 16.0544C7.4874 16.1236 7.47449 16.1937 7.44225 16.2554C7.41001 16.3171 7.35994 16.3677 7.29858 16.4004C7.25877 16.4293 7.21319 16.4491 7.16498 16.4586C7.11676 16.4681 7.06708 16.467 7.01934 16.4553C6.98234 16.4451 6.94823 16.4264 6.91971 16.4007C6.89119 16.3749 6.86906 16.3429 6.85508 16.307L6.72367 16.3674C6.74736 16.4207 6.78207 16.4684 6.82549 16.5072C6.86891 16.546 6.92005 16.5751 6.97554 16.5926C7.04321 16.6118 7.11433 16.6153 7.18356 16.603C7.25279 16.5906 7.31832 16.5626 7.37524 16.5212C7.45745 16.4734 7.52433 16.4031 7.56799 16.3184C7.61164 16.2337 7.63025 16.1383 7.62162 16.0434C7.60795 15.922 7.56144 15.8066 7.48713 15.7098C7.41282 15.613 7.31354 15.5384 7.20003 15.4941C7.07567 15.4498 6.94184 15.4391 6.81206 15.4632C6.68227 15.4873 6.56113 15.5454 6.46086 15.6315C6.33463 15.7327 6.238 15.8663 6.18114 16.018C6.12428 16.1698 6.10931 16.3342 6.13782 16.4938C6.15801 16.6205 6.20371 16.7417 6.27214 16.8501C6.34057 16.9585 6.43029 17.0517 6.53583 17.1242C6.64137 17.1966 6.76052 17.2468 6.88601 17.2715C7.01149 17.2963 7.1407 17.2952 7.26573 17.2682C8.39365 17.076 8.74407 15.3788 8.74407 14.7856C8.74407 14.1924 8.74407 13.1379 8.08703 12.4953C7.9031 12.3059 7.68353 12.1549 7.44105 12.0512C7.19857 11.9475 6.93799 11.8931 6.6744 11.8911Z" fill="black"/>
<path d="M0 14.5055C0.00108312 17.3733 0.849902 20.1764 2.43912 22.5603C4.02834 24.9442 6.28657 26.8019 8.92826 27.8983C11.57 28.9948 14.4764 29.2809 17.2802 28.7203C20.0839 28.1598 22.659 26.7778 24.6798 24.7492C26.7006 22.7205 28.0763 20.1364 28.633 17.3234C29.1897 14.5105 28.9023 11.5951 27.8073 8.94602C26.7122 6.2969 24.8586 4.03301 22.4809 2.44063C20.1033 0.848256 17.3082 -0.00108505 14.4494 1.04033e-06C10.6166 0.00436649 6.94221 1.53437 4.23305 4.25405C1.5239 6.97373 0.00144824 10.6607 0 14.5055ZM0.142359 14.5055C0.141277 11.6659 0.979628 8.88977 2.5514 6.52814C4.12318 4.16651 6.35778 2.32545 8.97262 1.23778C11.5875 0.150117 14.4651 -0.135312 17.2417 0.417598C20.0182 0.970508 22.569 2.33692 24.5714 4.34404C26.5738 6.35116 27.9379 8.90885 28.4912 11.6937C29.0445 14.4785 28.7622 17.3653 27.6799 19.9892C26.5976 22.613 24.764 24.856 22.411 26.4345C20.0579 28.013 17.291 28.8561 14.4603 28.8572C10.6657 28.8543 7.02725 27.3417 4.34306 24.6511C1.65886 21.9606 0.148158 18.3119 0.142359 14.5055Z" fill="black"/>
<path d="M3.56445 14.5055C3.56445 16.6664 4.2033 18.7787 5.40019 20.5753C6.59709 22.372 8.29826 23.7722 10.2885 24.5989C12.2788 25.4256 14.4688 25.6416 16.5815 25.2196C18.6942 24.7976 20.6346 23.7566 22.1575 22.2283C23.6803 20.6999 24.7171 18.7529 25.1367 16.6334C25.5562 14.5139 25.3398 12.3172 24.5147 10.3211C23.6896 8.325 22.2929 6.61922 20.5012 5.41949C18.7096 4.21976 16.6035 3.57997 14.4494 3.58106C11.5633 3.58687 8.79726 4.73987 6.75703 6.7875C4.71681 8.83513 3.56879 11.6104 3.56445 14.5055ZM3.70681 14.5055C3.70573 12.3731 4.33503 10.2882 5.51514 8.51462C6.69525 6.74098 8.37316 5.35821 10.3367 4.54117C12.3002 3.72414 14.4612 3.50952 16.5463 3.92447C18.6314 4.33941 20.5471 5.36528 22.051 6.87235C23.5549 8.37942 24.5795 10.3 24.9953 12.3912C25.4111 14.4824 25.1993 16.6504 24.3868 18.6209C23.5743 20.5914 22.1976 22.2759 20.4307 23.4615C18.6638 24.6471 16.5861 25.2805 14.4603 25.2816C11.6107 25.2802 8.87796 24.1447 6.86191 22.1244C4.84586 20.1041 3.71116 17.3641 3.70681 14.5055Z" fill="black"/>
<path d="M8.3553 7.27741C8.13007 7.40172 7.93637 7.57634 7.78921 7.78778C7.64204 7.99922 7.54535 8.2418 7.50662 8.49673L7.42997 8.88668C7.34611 9.45435 7.18778 10.0084 6.95909 10.5344C6.74453 10.9869 6.47809 11.4127 6.16517 11.8032L5.83118 12.2645L5.95163 12.3414L6.27468 11.891C6.59624 11.4925 6.87005 11.0574 7.0905 10.5948C7.32321 10.0503 7.48515 9.4781 7.57233 8.89217L7.6435 8.50771C7.68129 8.27806 7.77036 8.05997 7.90405 7.86974C8.03775 7.67951 8.2126 7.52208 8.41553 7.40922C8.58041 7.33325 8.75971 7.29392 8.94116 7.29392C9.1226 7.29392 9.3019 7.33325 9.46678 7.40922C9.60461 7.47066 9.72603 7.56386 9.82118 7.68125C9.91632 7.79864 9.98249 7.93691 10.0143 8.0848C10.0589 8.27577 10.0584 8.47456 10.0128 8.6653C9.96713 8.85603 9.87766 9.03342 9.7515 9.18328C9.64758 9.29154 9.51916 9.37302 9.37713 9.42083C9.2351 9.46864 9.08366 9.48137 8.93568 9.4579C8.85154 9.45582 8.76868 9.43683 8.69198 9.40207C8.61529 9.36731 8.54632 9.31748 8.48915 9.25552C8.43198 9.19357 8.38777 9.12074 8.35914 9.04135C8.3305 8.96196 8.31803 8.87762 8.32244 8.79331C8.314 8.6469 8.36044 8.50262 8.45263 8.3888C8.54482 8.27498 8.67611 8.19985 8.8207 8.17817C8.89471 8.16669 8.97046 8.17722 9.03857 8.20845C9.10669 8.23969 9.16419 8.29026 9.20397 8.35392C9.23895 8.41789 9.2573 8.48967 9.2573 8.56263C9.2573 8.6356 9.23895 8.70738 9.20397 8.77135L9.3299 8.84824C9.37543 8.76391 9.39927 8.66952 9.39927 8.57362C9.39927 8.47772 9.37543 8.38333 9.3299 8.299C9.27836 8.21242 9.20267 8.14287 9.11218 8.09895C9.02169 8.05503 8.92036 8.03865 8.8207 8.05183C8.64078 8.07621 8.47627 8.16663 8.35896 8.30561C8.24164 8.4446 8.17986 8.62228 8.18556 8.8043C8.18041 8.9062 8.19553 9.0081 8.23004 9.10407C8.26454 9.20005 8.31774 9.28817 8.38654 9.36332C8.45533 9.43846 8.53835 9.49912 8.63075 9.54176C8.72315 9.5844 8.82308 9.60818 8.92473 9.61169C9.09491 9.6422 9.27002 9.62898 9.43374 9.57328C9.59745 9.51758 9.74445 9.4212 9.86101 9.29313C9.99895 9.12881 10.0974 8.93485 10.1486 8.72628C10.1999 8.5177 10.2027 8.3001 10.1567 8.09029C10.1212 7.92309 10.0472 7.76651 9.94076 7.63302C9.8343 7.49953 9.69825 7.3928 9.54344 7.32134C9.36106 7.22601 9.15982 7.17261 8.95431 7.16501C8.74879 7.15741 8.54417 7.1958 8.3553 7.27741Z" fill="black"/>
<path d="M11.9581 4.58628L11.7172 4.81696C11.3774 5.21233 10.9975 5.57127 10.5838 5.88799C9.95388 6.35974 9.28743 6.78032 8.59081 7.14575L8.25134 7.33799L8.328 7.45882L8.65651 7.27208C9.35971 6.90183 10.0334 6.47765 10.6714 6.00333C11.0928 5.67752 11.4799 5.30945 11.8267 4.90484L12.0184 4.70711C12.1506 4.65727 12.2936 4.64321 12.4329 4.66635C12.5723 4.68949 12.7031 4.74901 12.8123 4.83894C12.8913 4.8952 12.9563 4.96916 13.0019 5.05496C13.0475 5.14076 13.0726 5.23604 13.0751 5.33325C13.0733 5.41332 13.0513 5.49162 13.0111 5.5608C12.9708 5.62997 12.9137 5.68775 12.8451 5.72871C12.3242 6.11708 11.8336 6.54491 11.3777 7.00844C10.8851 7.52606 10.4467 8.0929 10.0691 8.70011L9.86656 8.9967L9.98702 9.07909L10.1841 8.78249C10.5582 8.19083 10.9911 7.63876 11.4763 7.13477C11.9262 6.67822 12.4093 6.25596 12.9218 5.87151C13.0088 5.81698 13.0813 5.74194 13.1328 5.65292C13.1843 5.56389 13.2134 5.46358 13.2175 5.36071C13.2175 5.24016 13.1887 5.12135 13.1334 5.0143C13.0782 4.90724 12.9981 4.81508 12.8999 4.74557C12.7728 4.63453 12.6176 4.56089 12.4514 4.53279C12.2852 4.50468 12.1145 4.52319 11.9581 4.58628Z" fill="black"/>
<path d="M8.51953 8.11795L8.58524 8.24427C8.98515 8.03974 9.3539 7.77896 9.6803 7.46984L9.57079 7.37646C9.25414 7.6686 8.90071 7.91788 8.51953 8.11795Z" fill="black"/>
<path d="M9.19849 8.77699L9.32989 8.83191C9.52012 8.51858 9.77609 8.25057 10.08 8.0465L9.99241 7.93115C9.6656 8.14709 9.39371 8.43677 9.19849 8.77699Z" fill="black"/>
<path d="M6.46082 12.8523L6.5758 12.9402C6.77812 12.6652 6.93865 12.3617 7.05215 12.0394L6.91526 12.001C6.80883 12.3067 6.65551 12.594 6.46082 12.8523Z" fill="black"/>
<path d="M7.12341 13.3742H7.2603C7.34375 12.997 7.53385 12.6518 7.80783 12.3801L7.7038 12.2812C7.40285 12.577 7.20018 12.9587 7.12341 13.3742Z" fill="black"/>
<path d="M19.2238 7.31575C19.0683 7.38776 18.9319 7.49533 18.8254 7.62982C18.7189 7.76432 18.6453 7.922 18.6105 8.09019C18.565 8.29915 18.568 8.51581 18.6193 8.72342C18.6706 8.93104 18.7687 9.12404 18.9062 9.28753C19.0231 9.41519 19.1701 9.51128 19.3337 9.56695C19.4974 9.62263 19.6723 9.63609 19.8425 9.60609C19.9441 9.60258 20.0441 9.57881 20.1365 9.53617C20.2289 9.49353 20.3119 9.43287 20.3807 9.35773C20.4495 9.28258 20.5027 9.19445 20.5372 9.09848C20.5717 9.0025 20.5868 8.9006 20.5817 8.79871C20.5886 8.61637 20.5273 8.43803 20.4097 8.29878C20.2922 8.15952 20.1269 8.06944 19.9465 8.04625C19.8473 8.03704 19.7474 8.0552 19.6576 8.09875C19.5679 8.14231 19.4917 8.20961 19.4373 8.2934C19.3893 8.3769 19.364 8.47161 19.364 8.56803C19.364 8.66444 19.3893 8.75915 19.4373 8.84265L19.5578 8.76575C19.5228 8.70179 19.5045 8.63 19.5045 8.55704C19.5045 8.48408 19.5228 8.4123 19.5578 8.34833C19.5985 8.28566 19.6562 8.23588 19.724 8.20477C19.7919 8.17366 19.8671 8.16249 19.941 8.17257C20.0856 8.19425 20.2169 8.26939 20.3091 8.38321C20.4013 8.49703 20.4477 8.64132 20.4393 8.78773C20.4437 8.87203 20.4312 8.95637 20.4026 9.03576C20.374 9.11514 20.3298 9.18797 20.2726 9.24993C20.2154 9.31188 20.1465 9.36171 20.0698 9.39647C19.9931 9.43123 19.9102 9.45022 19.8261 9.45231C19.6781 9.4772 19.5262 9.46518 19.3839 9.41728C19.2417 9.36939 19.1133 9.2871 19.0102 9.17768C18.8837 9.02804 18.794 8.85067 18.7483 8.65986C18.7027 8.46905 18.7024 8.27015 18.7474 8.0792C18.7801 7.93165 18.8465 7.79377 18.9416 7.6765C19.0366 7.55922 19.1576 7.4658 19.295 7.40363C19.4595 7.32658 19.639 7.28666 19.8206 7.28666C20.0022 7.28666 20.1816 7.32658 20.3462 7.40363C20.5499 7.51552 20.7254 7.67268 20.8592 7.86308C20.993 8.05348 21.0816 8.27207 21.1182 8.50212L21.1894 8.88659C21.2786 9.4703 21.4405 10.0405 21.6712 10.5837C21.9172 11.0851 22.2164 11.5584 22.5637 11.9953L22.9032 12.4676L23.0237 12.3908L22.6787 11.9129C22.3366 11.4834 22.0428 11.0174 21.8027 10.5233C21.5779 9.99592 21.4197 9.44238 21.3318 8.8756L21.2551 8.48564C21.2164 8.23071 21.1197 7.98813 20.9725 7.7767C20.8254 7.56526 20.6317 7.39063 20.4065 7.26632C20.2179 7.18641 20.0141 7.1494 19.8096 7.15794C19.6051 7.16649 19.405 7.22038 19.2238 7.31575Z" fill="black"/>
<path d="M15.8675 4.75103C15.7692 4.8209 15.6888 4.91301 15.6327 5.01989C15.5766 5.12676 15.5463 5.2454 15.5444 5.36618C15.5503 5.46788 15.5801 5.56675 15.6315 5.6546C15.6829 5.74246 15.7544 5.81679 15.8401 5.87148C16.3546 6.25559 16.8396 6.67787 17.2911 7.13474C17.7291 7.59139 18.1215 8.08992 18.4628 8.62319L18.7749 9.06808L18.8899 8.98569L18.5778 8.5408C18.2318 7.99965 17.8338 7.49377 17.3896 7.03038C16.9328 6.56962 16.4423 6.1437 15.9222 5.75614C15.8539 5.71435 15.7968 5.65651 15.7558 5.58761C15.7148 5.51871 15.6911 5.44082 15.6868 5.36069C15.6893 5.26271 15.7144 5.16665 15.7599 5.07996C15.8055 4.99327 15.8704 4.9183 15.9496 4.86088C16.059 4.77136 16.1901 4.71252 16.3296 4.69033C16.469 4.66814 16.6119 4.6834 16.7435 4.73455L16.9406 4.93228C17.2894 5.3351 17.6763 5.70299 18.0959 6.03077C18.7345 6.50725 19.4101 6.93153 20.1163 7.29951L20.4394 7.48625L20.516 7.36542L20.182 7.17319C19.4842 6.80883 18.816 6.39013 18.1835 5.92092C17.7683 5.59388 17.3867 5.22587 17.0447 4.82243L16.8092 4.59175C16.6525 4.53108 16.4823 4.51385 16.3166 4.54188C16.1509 4.5699 15.9958 4.64215 15.8675 4.75103Z" fill="black"/>
<path d="M19.1144 7.48595C19.4066 7.77524 19.7384 8.02122 20.0999 8.21644L20.1656 8.09012C19.822 7.90092 19.5053 7.66631 19.2239 7.39258L19.1144 7.48595Z" fill="black"/>
<path d="M18.6763 8.06309C18.9822 8.26476 19.2386 8.53328 19.4264 8.84851L19.5578 8.79358C19.3649 8.4516 19.0926 8.16142 18.7639 7.94775L18.6763 8.06309Z" fill="black"/>
<path d="M20.6748 12.5336C20.0232 13.1707 20.0232 14.1813 20.0232 14.7745C20.0232 15.3677 20.3736 17.1143 21.5015 17.3065C21.6266 17.3335 21.7558 17.3346 21.8813 17.3099C22.0067 17.2851 22.1259 17.235 22.2314 17.1625C22.337 17.09 22.4267 16.9968 22.4951 16.8884C22.5635 16.78 22.6093 16.6588 22.6294 16.5321C22.6586 16.3725 22.6439 16.2079 22.587 16.0561C22.5301 15.9042 22.4331 15.7707 22.3064 15.6698C22.2067 15.5828 22.0858 15.5237 21.956 15.4986C21.8262 15.4736 21.6921 15.4833 21.5672 15.527C21.4547 15.5728 21.3563 15.6478 21.2823 15.7443C21.2082 15.8408 21.161 15.9554 21.1456 16.0762C21.137 16.1711 21.1556 16.2666 21.1993 16.3512C21.2429 16.4359 21.3098 16.5063 21.392 16.5541C21.4501 16.5931 21.5156 16.6197 21.5844 16.6319C21.6532 16.6442 21.7238 16.642 21.7917 16.6255C21.8467 16.6071 21.8975 16.5776 21.9408 16.5389C21.9841 16.5002 22.019 16.453 22.0436 16.4003L21.9177 16.3399C21.902 16.3747 21.8794 16.4058 21.8511 16.4314C21.8228 16.4569 21.7895 16.4762 21.7534 16.4881C21.7047 16.4986 21.6544 16.4991 21.6055 16.4896C21.5566 16.4802 21.5101 16.461 21.4687 16.4332C21.4088 16.3989 21.3599 16.348 21.3279 16.2867C21.2959 16.2254 21.282 16.1562 21.288 16.0872C21.3 15.9909 21.3372 15.8995 21.3959 15.8223C21.4546 15.7451 21.5326 15.6849 21.622 15.6478C21.7235 15.6157 21.8315 15.6099 21.9359 15.6311C22.0403 15.6522 22.1376 15.6995 22.2188 15.7686C22.3261 15.8539 22.408 15.9672 22.4553 16.0961C22.5026 16.2249 22.5136 16.3644 22.4871 16.4991C22.4732 16.6079 22.4375 16.7127 22.3819 16.8071C22.3264 16.9015 22.2522 16.9836 22.164 17.0484C22.0715 17.1122 21.967 17.1564 21.8568 17.1781C21.7466 17.1999 21.6331 17.1987 21.5234 17.1747C20.4995 17.0044 20.1656 15.3732 20.1656 14.8349C20.1656 14.2088 20.1656 13.2421 20.7733 12.638C20.9425 12.4575 21.1459 12.3125 21.3715 12.2116C21.5971 12.1107 21.8404 12.0559 22.0874 12.0503C22.2287 12.0526 22.368 12.0847 22.4962 12.1443C22.6245 12.2038 22.7388 12.2897 22.832 12.3963C22.9999 12.5678 23.0939 12.7986 23.0939 13.0389C23.0939 13.2793 22.9999 13.51 22.832 13.6815C22.6936 13.7992 22.518 13.8638 22.3365 13.8638C22.155 13.8638 21.9795 13.7992 21.841 13.6815C21.7869 13.6363 21.7429 13.5801 21.7118 13.5167C21.6806 13.4534 21.6631 13.3841 21.6603 13.3135C21.6567 13.2482 21.6665 13.1828 21.6891 13.1213C21.7117 13.0599 21.7466 13.0038 21.7917 12.9565C21.8306 12.9195 21.8776 12.8922 21.929 12.877C21.9804 12.8617 22.0347 12.8588 22.0874 12.8686C22.1859 12.8686 22.2571 12.973 22.3064 13.1103L22.4433 13.0609C22.424 12.9804 22.3833 12.9067 22.3254 12.8476C22.2675 12.7886 22.1947 12.7465 22.1148 12.7258C22.0391 12.7125 21.9614 12.7175 21.888 12.7404C21.8147 12.7634 21.7479 12.8036 21.6932 12.8577C21.6346 12.9188 21.5889 12.9912 21.5588 13.0705C21.5287 13.1497 21.5148 13.2343 21.518 13.319C21.5233 13.4097 21.5469 13.4982 21.5873 13.5794C21.6278 13.6606 21.6843 13.7327 21.7534 13.7914C21.9186 13.9319 22.1281 14.009 22.3447 14.009C22.5613 14.009 22.7709 13.9319 22.9361 13.7914C23.129 13.5942 23.2371 13.3289 23.2371 13.0526C23.2371 12.7763 23.129 12.5111 22.9361 12.3139C22.8289 12.1936 22.6983 12.0964 22.5524 12.0284C22.4064 11.9604 22.2482 11.923 22.0874 11.9185C21.8231 11.9222 21.5621 11.9785 21.3196 12.0841C21.0772 12.1897 20.858 12.3424 20.6748 12.5336Z" fill="black"/>
<path d="M21.6986 12.0282C21.8105 12.3484 21.9692 12.6501 22.1695 12.9235L22.2845 12.8356C22.0931 12.578 21.9418 12.2928 21.8355 11.9897L21.6986 12.0282Z" fill="black"/>
<path d="M20.965 12.4183C21.2407 12.6887 21.4311 13.0344 21.5125 13.4124H21.6549C21.5693 12.9973 21.3659 12.6158 21.069 12.314L20.965 12.4183Z" fill="black"/>
<path d="M21.4468 17.2185L21.5837 17.257C21.6534 16.998 21.7828 16.7591 21.9615 16.5594L21.8629 16.4551C21.6635 16.6712 21.5206 16.9335 21.4468 17.2185Z" fill="black"/>
<path d="M20.7076 16.6917L20.8062 16.7905C21.0499 16.5386 21.2366 16.237 21.3537 15.9062L21.2223 15.8623C21.1084 16.1708 20.9333 16.453 20.7076 16.6917Z" fill="black"/>
<path d="M12.7301 5.95396C13.2176 6.2164 13.7594 6.36121 14.3125 6.37688C14.9108 6.4281 15.5089 6.27521 16.0098 5.94297L15.9167 5.83313C15.4398 6.13863 14.8765 6.27943 14.3125 6.23407C13.7841 6.21827 13.2667 6.07911 12.8013 5.82764L12.7301 5.95396Z" fill="black"/>
<path d="M21.414 19.0424L21.3811 19.2017C21.0964 20.4814 20.2313 24.3646 14.4822 24.3646C8.73315 24.3646 7.72569 20.4045 7.40812 19.0973L7.35885 18.8996C7.14533 18.1881 6.84171 17.507 6.45542 16.8729L6.33496 16.9498C6.71504 17.5713 7.01319 18.2396 7.22196 18.9381L7.26577 19.1303C7.58333 20.4595 8.54699 24.5074 14.4603 24.5074C18.3478 24.5074 20.7186 22.7333 21.4961 19.2346L21.5344 19.0754C21.7256 18.2793 22.0576 17.524 22.5145 16.8454L22.3941 16.7686C21.9378 17.4634 21.6061 18.233 21.414 19.0424Z" fill="black"/>
<path d="M17.7126 12.0889H14.9749C14.9366 12.0889 14.5424 12.4129 14.4274 12.4953L13.9182 12.1053H10.9123L9.4613 13.6927V18.5425H13.3378L13.8416 19.0478H15.0078L15.4513 18.6029H19.1745V13.5773C19.1745 13.5279 17.7947 12.1273 17.7947 12.1273L17.7126 12.0889ZM14.4603 12.6381L15.0078 12.2152H17.6962L19.0376 13.5938C19.0376 13.5938 19.0376 18.2898 19.0376 18.4271H15.3911L14.9421 18.872H13.8908L13.3871 18.3667H9.57628V13.7091C9.57628 13.7091 10.852 12.336 10.9615 12.2152H13.8635L14.3727 12.6216L14.4165 12.6546L14.4603 12.6381Z" fill="black"/>
<path d="M10.863 12.1655V16.9824H13.9566L14.3891 17.3888L14.4384 17.4273L14.9859 16.9604H17.7236H17.7948V12.1436H17.6524C17.6524 12.1436 17.6524 16.6748 17.6524 16.8176H14.9148C14.871 16.8176 14.5424 17.1252 14.4329 17.224L14.0004 16.8396H10.9999V12.1655H10.863Z" fill="black"/>
<path d="M18.3423 12.8961C18.3423 12.8961 18.3423 17.3999 18.3423 17.5372H15.1283C15.079 17.5372 14.5808 18.0096 14.5808 18.0096H14.1099L13.6664 17.5702H10.2826C10.2826 17.4329 10.2826 12.9346 10.2826 12.9346H10.1458V17.713H13.6171L14.0551 18.1524H14.6355C14.6848 18.1524 15.183 17.6745 15.183 17.6745H18.4682V12.8906L18.3423 12.8961Z" fill="black"/>
<path d="M10.5236 12.5449V17.3673H13.7704L14.2139 17.8286H14.5862C14.5862 17.8286 14.964 17.4057 15.0024 17.3563H18.1671V12.5834H18.0193C18.0193 12.5834 18.0193 17.0762 18.0193 17.2135H14.9312L14.5151 17.6858H14.2961L13.858 17.2245H10.6878C10.6878 17.0872 10.6878 12.5449 10.6878 12.5449H10.5236Z" fill="black"/>
<path d="M18.6763 13.2642V17.9876H15.1721L14.7779 18.3831H13.9785L13.5952 17.9053H9.9158C9.9158 17.7679 9.9158 13.3465 9.9158 13.3465H9.77344V18.0481H13.5295L13.9183 18.5259H14.8436L15.2378 18.1304H18.8241V13.2642H18.6763Z" fill="black"/>
<path d="M9.45044 18.4107L9.55447 18.5041L10.989 16.9607L10.885 16.8618L9.45044 18.4107Z" fill="black"/>
<path d="M17.6688 16.9552L19.0048 18.5205L19.1143 18.4272L17.7783 16.8618L17.6688 16.9552Z" fill="black"/>
<path d="M9.72412 2.77937L8.94662 1.49414L8.52502 1.72482L9.30252 3.01005L9.72412 2.77937Z" fill="black"/>
<path d="M7.7312 4.1523L9.81182 2.93848L10.4579 3.9381L10.0199 4.19075L9.57638 3.5042L7.92831 4.45988L7.7312 4.1523Z" fill="black"/>
<path d="M7.34784 3.70729C7.25575 3.66103 7.17486 3.59513 7.11083 3.5142C7.04681 3.43328 7.0012 3.33929 6.9772 3.23882C6.95321 3.13835 6.9514 3.03384 6.97192 2.93259C6.99244 2.83135 7.03478 2.73583 7.09598 2.65274C7.22072 2.46745 7.40629 2.3319 7.62038 2.26968C7.83447 2.20746 8.06352 2.22251 8.26769 2.31221C8.35978 2.35846 8.44068 2.42436 8.50471 2.50528C8.56873 2.58621 8.61434 2.6802 8.63834 2.78067C8.66233 2.88114 8.66413 2.98566 8.64362 3.0869C8.6231 3.18814 8.58075 3.28366 8.51956 3.36675C8.39481 3.55204 8.20925 3.68759 7.99516 3.74981C7.78107 3.81203 7.55201 3.79699 7.34784 3.70729ZM8.20199 2.98777C8.20404 2.94034 8.19567 2.89304 8.17748 2.84921C8.15929 2.80539 8.13172 2.7661 8.09673 2.73414C8.06173 2.70218 8.02016 2.67833 7.97496 2.66426C7.92976 2.65019 7.88203 2.64625 7.83514 2.65274C7.73201 2.65628 7.63325 2.69535 7.55546 2.76337C7.47768 2.83139 7.42563 2.92422 7.40807 3.02622C7.40697 3.07411 7.41612 3.12168 7.4349 3.16572C7.45368 3.20976 7.48166 3.24925 7.51695 3.28152C7.55223 3.31379 7.59401 3.3381 7.63945 3.35281C7.6849 3.36751 7.73296 3.37226 7.78039 3.36675C7.88368 3.36276 7.98233 3.32272 8.05931 3.25352C8.13629 3.18432 8.18676 3.09033 8.20199 2.98777Z" fill="black"/>
<path d="M41.596 12.8139V5.9209H45.1933V23.1506H41.6015V15.4612H37.4895V23.1506H33.8977V5.9209H37.4895V12.8194L41.596 12.8139Z" fill="black"/>
<path d="M53.6252 20.8494C51.6048 20.8494 51.342 18.9435 51.342 14.5276C51.342 10.1117 51.5993 8.20583 53.6197 8.20583C55.6401 8.20583 55.9084 10.1117 55.9084 14.5276C55.9084 18.9435 55.6511 20.8494 53.6252 20.8494ZM53.6252 23.4308C59.5495 23.4308 59.5495 19.0369 59.544 14.5276C59.5385 10.0183 59.544 5.6244 53.6197 5.62989C47.6954 5.63538 47.6954 9.9689 47.6954 14.5331C47.6954 19.0973 47.6954 23.4308 53.6252 23.4308Z" fill="black"/>
<path d="M62.1613 23.1504V5.90967H67.0124L71.5843 17.8392H71.6335V5.90967H74.9899V23.1504H70.2538L65.5559 10.5178H65.5121V23.1504H62.1613Z" fill="black"/>
<path d="M85.8693 11.199C85.8693 9.60066 85.6284 8.1946 83.723 8.1946C81.4891 8.1946 81.4891 11.2264 81.4891 14.5658C81.4891 19.9594 82.0366 20.9151 84.0625 20.9096C84.6716 20.8954 85.2744 20.7823 85.8474 20.5745V16.7573H83.8928V14.1099H89.4338V22.8429C87.8329 23.1538 86.2116 23.3465 84.5826 23.4196C78.5598 23.4196 77.848 20.9151 77.8425 14.3791C77.8425 10.0346 78.0615 5.61865 83.9311 5.61865C87.4517 5.61865 89.6418 7.59593 89.4064 11.199H85.8693Z" fill="black"/>
<path d="M92.4233 23.1506V5.89893H96.0097V23.1287L92.4233 23.1506Z" fill="black"/>
<path d="M106.944 5.89355H110.891L106.09 13.6269L110.897 23.1508H106.856L102.739 14.3244H102.689V23.1508H99.0977V5.89904H102.689V13.2644H102.733L106.944 5.89355Z" fill="black"/>
<path d="M132.607 5.8877V18.1028C132.607 20.6788 131.161 23.3975 126.781 23.403C122.833 23.403 120.928 21.3544 120.928 18.1028V5.8877H124.52V17.8667C124.52 19.9867 125.423 20.8216 126.737 20.8216C128.303 20.8216 129.015 19.7725 129.015 17.8612V5.8877H132.607Z" fill="black"/>
<path d="M136.007 23.1121V5.88232H140.858L145.43 17.8119H145.479V5.88232H148.835V23.1066H144.099L139.407 10.5179H139.358V23.1176L136.007 23.1121Z" fill="black"/>
<path d="M152.274 23.1067V5.87695H155.86V23.1012L152.274 23.1067Z" fill="black"/>
<path d="M158.401 5.87708H162.13L164.802 18.3998H164.867L167.862 5.87158H171.405L166.866 23.1013H162.661L158.401 5.87708Z" fill="black"/>
<path d="M174 19.9268V23.1014H171.12V19.9268H174Z" fill="black"/>
</g>
<defs>
<clipPath id="clip0_497_448">
<rect width="174" height="29" fill="white"/>
</clipPath>
</defs>
</svg>
