<svg width="26" height="26" viewBox="0 0 26 26" fill="none" xmlns="http://www.w3.org/2000/svg">
<path d="M12.0016 0.84744C12.1877 -0.28248 13.8123 -0.28248 13.9984 0.847439L15.4579 9.70808C15.5284 10.1361 15.8639 10.4716 16.2919 10.5421L25.1526 12.0016C26.2825 12.1877 26.2825 13.8123 25.1526 13.9984L16.2919 15.4579C15.8639 15.5284 15.5284 15.8639 15.4579 16.2919L13.9984 25.1526C13.8123 26.2825 12.1877 26.2825 12.0016 25.1526L10.5421 16.2919C10.4716 15.8639 10.1361 15.5284 9.70808 15.4579L0.84744 13.9984C-0.28248 13.8123 -0.28248 12.1877 0.847439 12.0016L9.70808 10.5421C10.1361 10.4716 10.4716 10.1361 10.5421 9.70808L12.0016 0.84744Z" fill="#EE5046"/>
</svg>
