<svg width="342" height="57" viewBox="0 0 342 57" fill="none" xmlns="http://www.w3.org/2000/svg">
<path d="M0 55.0625C0 55.8909 0.671573 56.5625 1.5 56.5625H11.7812C12.6097 56.5625 13.2812 55.8909 13.2812 55.0625V35.1719C13.2812 34.3434 13.9528 33.6719 14.7812 33.6719H34.3594C35.1878 33.6719 35.8594 33.0003 35.8594 32.1719V24.3125C35.8594 23.4841 35.1878 22.8125 34.3594 22.8125H14.7812C13.9528 22.8125 13.2812 22.1409 13.2812 21.3125V12.3594C13.2812 11.5309 13.9528 10.8594 14.7812 10.8594H36.8594C37.6878 10.8594 38.3594 10.1878 38.3594 9.35938V1.5C38.3594 0.671573 37.6878 0 36.8594 0H1.5C0.671573 0 0 0.671573 0 1.5V55.0625Z" fill="white"/>
<path d="M48.7448 56.5625C49.399 56.5625 49.9778 56.1385 50.175 55.5146L53.3406 45.501C53.5378 44.8772 54.1166 44.4531 54.7709 44.4531H72.2604C72.9146 44.4531 73.4934 44.8772 73.6906 45.501L76.8562 55.5146C77.0535 56.1385 77.6322 56.5625 78.2865 56.5625H89.3932C90.4199 56.5625 91.1432 55.5542 90.8141 54.5817L72.6886 1.01919C72.4825 0.409992 71.9109 0 71.2678 0H55.7621C55.1196 0 54.5485 0.409132 54.3418 1.01743L36.1424 54.5799C35.8118 55.5528 36.5351 56.5625 37.5626 56.5625H48.7448ZM58.9209 34.2969C57.9073 34.2969 57.1855 33.3124 57.4904 32.3457L63.2108 14.2079C63.2527 14.0748 63.3761 13.9844 63.5156 13.9844C63.6551 13.9844 63.7785 14.0748 63.8205 14.2079L69.5409 32.3457C69.8458 33.3124 69.1239 34.2969 68.1103 34.2969H58.9209Z" fill="white"/>
<path d="M145.469 1.5C145.469 0.671574 144.797 0 143.969 0H133.688C132.859 0 132.188 0.671573 132.188 1.5V32.8962C132.188 33.0657 132.05 33.2031 131.881 33.2031C131.779 33.2031 131.685 33.1532 131.627 33.0696L109.431 0.652558C109.152 0.244164 108.688 0 108.194 0H99C98.1716 0 97.5 0.671573 97.5 1.5V55.0625C97.5 55.8909 98.1716 56.5625 99 56.5625H109.281C110.11 56.5625 110.781 55.8909 110.781 55.0625V23.6157C110.781 23.4741 110.896 23.3594 111.038 23.3594C111.122 23.3594 111.2 23.4007 111.248 23.4699L133.693 55.9159C133.973 56.3208 134.434 56.5625 134.927 56.5625H143.969C144.797 56.5625 145.469 55.8909 145.469 55.0625V1.5Z" fill="white"/>
<path d="M154.062 55.0625C154.062 55.8909 154.734 56.5625 155.562 56.5625H165.844C166.672 56.5625 167.344 55.8909 167.344 55.0625V35.1719C167.344 34.3434 168.015 33.6719 168.844 33.6719H188.422C189.25 33.6719 189.922 33.0003 189.922 32.1719V24.3125C189.922 23.4841 189.25 22.8125 188.422 22.8125H168.844C168.015 22.8125 167.344 22.1409 167.344 21.3125V12.3594C167.344 11.5309 168.015 10.8594 168.844 10.8594H190.922C191.75 10.8594 192.422 10.1878 192.422 9.35938V1.5C192.422 0.671573 191.75 0 190.922 0H155.562C154.734 0 154.062 0.671573 154.062 1.5V55.0625Z" fill="white"/>
<path d="M202.807 56.5625C203.462 56.5625 204.04 56.1385 204.238 55.5146L207.403 45.501C207.6 44.8772 208.179 44.4531 208.833 44.4531H226.323C226.977 44.4531 227.556 44.8772 227.753 45.501L230.919 55.5146C231.116 56.1385 231.695 56.5625 232.349 56.5625H243.456C244.482 56.5625 245.206 55.5542 244.877 54.5817L226.751 1.01919C226.545 0.409992 225.973 0 225.33 0H209.825C209.182 0 208.611 0.409132 208.404 1.01743L190.205 54.5799C189.874 55.5528 190.598 56.5625 191.625 56.5625H202.807ZM212.983 34.2969C211.97 34.2969 211.248 33.3124 211.553 32.3457L217.273 14.2079C217.315 14.0748 217.439 13.9844 217.578 13.9844C217.718 13.9844 217.841 14.0748 217.883 14.2079L223.603 32.3457C223.908 33.3124 223.186 34.2969 222.173 34.2969H212.983Z" fill="white"/>
<path d="M251.562 55.0625C251.562 55.8909 252.234 56.5625 253.062 56.5625H263.344C264.172 56.5625 264.844 55.8909 264.844 55.0625V38.6094C264.844 37.7809 265.515 37.1094 266.344 37.1094H271.366C271.92 37.1094 272.429 37.4143 272.689 37.9027L282.233 55.7692C282.493 56.2575 283.002 56.5625 283.556 56.5625H294.733C295.873 56.5625 296.597 55.3414 296.049 54.3417L286.205 36.3764C285.786 35.612 286.11 34.6577 286.869 34.2301C292.228 31.2133 295.27 25.9415 295.234 18.75C295.273 7.22656 287.422 0 274.688 0H253.062C252.234 0 251.562 0.671573 251.562 1.5V55.0625ZM266.344 26.4844C265.515 26.4844 264.844 25.8128 264.844 24.9844V12.2812C264.844 11.4528 265.515 10.7812 266.344 10.7812H271.875C278.164 10.7812 281.484 13.4375 281.484 18.75C281.484 24.0625 278.164 26.5234 271.875 26.4844H266.344Z" fill="white"/>
<path d="M302.734 55.0625C302.734 55.8909 303.406 56.5625 304.234 56.5625H340.453C341.282 56.5625 341.953 55.8909 341.953 55.0625V47.2031C341.953 46.3747 341.282 45.7031 340.453 45.7031H317.516C316.687 45.7031 316.016 45.0316 316.016 44.2031V35.1719C316.016 34.3434 316.687 33.6719 317.516 33.6719H338.344C339.172 33.6719 339.844 33.0003 339.844 32.1719V24.3125C339.844 23.4841 339.172 22.8125 338.344 22.8125H317.516C316.687 22.8125 316.016 22.1409 316.016 21.3125V12.3594C316.016 11.5309 316.687 10.8594 317.516 10.8594H340.375C341.203 10.8594 341.875 10.1878 341.875 9.35938V1.5C341.875 0.671573 341.203 0 340.375 0H304.234C303.406 0 302.734 0.671573 302.734 1.5V55.0625Z" fill="white"/>
</svg>
