<svg width="616" height="194" viewBox="0 0 616 194" fill="none" xmlns="http://www.w3.org/2000/svg">
<path d="M26.1543 180.216L27.6978 175.486H35.1177L36.6611 180.216H41.2207L34.1406 159.712H28.6748L21.5664 180.216H26.1543ZM28.7739 172.173L31.3369 164.328H31.4785L34.0415 172.173H28.7739ZM50.2266 180.216H54.4746V171.72H62.8574V168.208H54.4746V163.224H63.7354V159.712H50.2266V180.216ZM72.2881 180.527C76.083 180.513 78.6318 178.672 79.2266 175.826H75.2334C74.8228 176.747 73.8032 177.37 72.373 177.384C70.2065 177.37 68.833 175.94 68.833 173.617H79.3398V172.428C79.3398 167.189 76.1538 164.64 72.1182 164.64C67.6152 164.64 64.6841 167.854 64.6982 172.598C64.6841 177.469 67.5728 180.513 72.2881 180.527ZM68.833 170.983C68.918 169.213 70.2773 167.769 72.2031 167.783C74.0723 167.769 75.3608 169.114 75.375 170.983H68.833ZM90.7529 169.398H94.6895C94.4629 166.481 92.0557 164.64 88.1758 164.64C84.2109 164.64 81.6763 166.481 81.6904 169.426C81.6763 171.706 83.1772 173.207 86.1084 173.787L88.6572 174.297C90.1016 174.594 90.7529 175.09 90.7529 175.883C90.7529 176.874 89.7334 177.483 88.2041 177.497C86.6606 177.483 85.6836 176.86 85.4854 175.656H81.2656C81.6196 178.658 84.0552 180.513 88.2041 180.527C92.2964 180.513 95.0151 178.488 95.0293 175.458C95.0151 173.249 93.5708 171.918 90.583 171.295L87.8359 170.729C86.3774 170.431 85.8394 169.893 85.8535 169.199C85.8394 168.265 86.873 167.628 88.2324 167.613C89.6343 167.628 90.5688 168.321 90.7529 169.398ZM105.706 164.838H102.817V161.156H98.626V164.838H96.502V167.982H98.626V176.081C98.5977 179.069 100.665 180.428 103.695 180.414C104.729 180.428 105.479 180.343 105.933 180.273V176.959C105.423 177.002 104.687 177.044 104.262 177.044C103.412 177.016 102.803 176.718 102.817 175.486V167.982H105.706V164.838ZM108.34 180.216H112.531V164.838H108.34V180.216ZM108.142 160.703C108.142 161.864 109.175 162.827 110.436 162.827C111.682 162.827 112.715 161.864 112.701 160.703C112.715 159.514 111.682 158.565 110.436 158.551C109.175 158.565 108.142 159.514 108.142 160.703ZM130.062 164.838H125.615L122.387 175.883H122.217L118.988 164.838H114.57L119.951 180.216H124.652L130.062 164.838ZM130.939 175.911C130.954 178.956 133.12 180.513 136.065 180.499C138.345 180.513 139.818 179.508 140.568 178.092H140.682V180.216H144.646V169.851C144.661 166.141 141.489 164.64 138.133 164.64C134.055 164.64 131.732 166.735 131.478 169.398H135.471C135.697 168.35 136.589 167.712 138.02 167.698C139.591 167.712 140.469 168.449 140.483 169.737V170.983C139.832 171.012 137.765 171.111 136.66 171.182C133.701 171.366 130.954 172.484 130.939 175.911ZM134.961 175.798C134.961 174.608 135.881 173.915 137.34 173.787C138.048 173.731 139.846 173.631 140.483 173.603V174.722C140.498 176.35 139.167 177.596 137.255 177.61C135.91 177.596 134.961 176.973 134.961 175.798ZM152.038 159.712H147.847V180.216H152.038V159.712ZM162.063 159.712V180.216H166.198V166.735H166.368L171.721 180.131H174.553L179.905 166.792H180.075V180.216H184.21V159.712H178.942L173.25 173.617H173.023L167.331 159.712H162.063ZM186.844 175.911C186.858 178.956 189.024 180.513 191.97 180.499C194.25 180.513 195.722 179.508 196.473 178.092H196.586V180.216H200.551V169.851C200.565 166.141 197.393 164.64 194.037 164.64C189.959 164.64 187.637 166.735 187.382 169.398H191.375C191.602 168.35 192.494 167.712 193.924 167.698C195.496 167.712 196.374 168.449 196.388 169.737V170.983C195.736 171.012 193.669 171.111 192.564 171.182C189.605 171.366 186.858 172.484 186.844 175.911ZM190.865 175.798C190.865 174.608 191.786 173.915 193.244 173.787C193.952 173.731 195.75 173.631 196.388 173.603V174.722C196.402 176.35 195.071 177.596 193.159 177.61C191.814 177.596 190.865 176.973 190.865 175.798ZM203.751 180.216H207.942V171.465C207.928 169.582 209.33 168.265 211.228 168.265C211.808 168.265 212.615 168.364 213.012 168.491V164.753C212.644 164.668 212.105 164.611 211.681 164.611C209.953 164.611 208.523 165.617 207.971 167.5H207.801V164.838H203.751V180.216ZM215.051 180.216H219.242V175.288L220.417 173.957L224.651 180.216H229.579L223.533 171.493L229.268 164.838H224.453L219.469 170.729H219.242V159.712H215.051V180.216ZM231.222 180.216H235.413V164.838H231.222V180.216ZM231.023 160.703C231.023 161.864 232.057 162.827 233.317 162.827C234.563 162.827 235.597 161.864 235.583 160.703C235.597 159.514 234.563 158.565 233.317 158.551C232.057 158.565 231.023 159.514 231.023 160.703ZM242.861 171.323C242.861 169.298 244.065 168.123 245.807 168.123C247.548 168.123 248.568 169.256 248.582 171.153V180.216H252.745V170.417C252.759 166.835 250.664 164.64 247.449 164.64C245.169 164.64 243.527 165.758 242.833 167.528H242.663V164.838H238.67V180.216H242.861V171.323ZM262.912 186.305C267.288 186.305 270.375 184.308 270.389 180.386V164.838H266.226V167.415H266.056C265.489 166.169 264.243 164.64 261.666 164.64C258.268 164.64 255.407 167.231 255.407 172.428C255.407 177.554 258.197 180.003 261.666 179.989C264.144 180.003 265.503 178.743 266.056 177.497H266.254V180.301C266.24 182.439 264.937 183.274 262.997 183.274C261.326 183.274 260.165 182.722 259.938 181.49H255.804C256.044 184.393 258.664 186.305 262.912 186.305ZM259.712 172.484C259.698 169.836 260.831 167.982 262.969 167.982C265.079 167.982 266.254 169.752 266.254 172.484C266.254 175.217 265.064 176.832 262.969 176.846C260.845 176.832 259.698 175.147 259.712 172.484ZM283.841 180.216L285.384 175.486H292.804L294.348 180.216H298.907L291.827 159.712H286.361L279.253 180.216H283.841ZM286.46 172.173L289.023 164.328H289.165L291.728 172.173H286.46ZM325.019 159.712H320.799V172.739H320.601L311.651 159.712H307.913V180.216H312.161V167.189H312.331L321.337 180.216H325.019V159.712ZM335.355 180.527C339.15 180.513 341.699 178.672 342.294 175.826H338.301C337.89 176.747 336.871 177.37 335.44 177.384C333.274 177.37 331.9 175.94 331.9 173.617H342.407V172.428C342.407 167.189 339.221 164.64 335.186 164.64C330.683 164.64 327.751 167.854 327.766 172.598C327.751 177.469 330.64 180.513 335.355 180.527ZM331.9 170.983C331.985 169.213 333.345 167.769 335.271 167.783C337.14 167.769 338.428 169.114 338.442 170.983H331.9ZM347.958 180.216H352.404L355.066 170.445H355.265L357.927 180.216H362.345L366.564 164.838H362.316L359.938 175.175H359.796L357.247 164.838H353.084L350.563 175.232H350.422L348.015 164.838H343.767L347.958 180.216ZM375.457 180.216H384.151C388.782 180.216 391.217 177.809 391.231 174.552C391.217 171.522 389.037 169.681 386.729 169.567V169.369C388.838 168.902 390.424 167.387 390.41 164.98C390.424 161.893 388.13 159.712 383.613 159.712H375.457V180.216ZM379.705 176.704V171.21H383.415C385.511 171.21 386.828 172.428 386.813 174.155C386.828 175.699 385.766 176.718 383.302 176.704H379.705ZM379.705 168.293V163.167H383.075C385.015 163.167 386.12 164.172 386.105 165.659C386.12 167.302 384.774 168.307 382.99 168.293H379.705ZM400.804 180.527C404.599 180.513 407.147 178.672 407.742 175.826H403.749C403.338 176.747 402.319 177.37 400.889 177.384C398.722 177.37 397.349 175.94 397.349 173.617H407.855V172.428C407.855 167.189 404.669 164.64 400.634 164.64C396.131 164.64 393.2 167.854 393.214 172.598C393.2 177.469 396.088 180.513 400.804 180.527ZM397.349 170.983C397.434 169.213 398.793 167.769 400.719 167.783C402.588 167.769 403.876 169.114 403.891 170.983H397.349ZM417.399 186.305C421.775 186.305 424.862 184.308 424.876 180.386V164.838H420.713V167.415H420.543C419.977 166.169 418.73 164.64 416.153 164.64C412.755 164.64 409.895 167.231 409.895 172.428C409.895 177.554 412.684 180.003 416.153 179.989C418.631 180.003 419.991 178.743 420.543 177.497H420.741V180.301C420.727 182.439 419.424 183.274 417.484 183.274C415.813 183.274 414.652 182.722 414.426 181.49H410.291C410.532 184.393 413.151 186.305 417.399 186.305ZM414.199 172.484C414.185 169.836 415.318 167.982 417.456 167.982C419.566 167.982 420.741 169.752 420.741 172.484C420.741 175.217 419.552 176.832 417.456 176.846C415.332 176.832 414.185 175.147 414.199 172.484ZM428.133 180.216H432.324V164.838H428.133V180.216ZM427.935 160.703C427.935 161.864 428.968 162.827 430.229 162.827C431.475 162.827 432.508 161.864 432.494 160.703C432.508 159.514 431.475 158.565 430.229 158.551C428.968 158.565 427.935 159.514 427.935 160.703ZM439.772 171.323C439.772 169.298 440.976 168.123 442.718 168.123C444.459 168.123 445.479 169.256 445.493 171.153V180.216H449.656V170.417C449.67 166.835 447.575 164.64 444.36 164.64C442.081 164.64 440.438 165.758 439.744 167.528H439.574V164.838H435.581V180.216H439.772V171.323ZM457.104 171.323C457.104 169.298 458.308 168.123 460.05 168.123C461.792 168.123 462.811 169.256 462.825 171.153V180.216H466.988V170.417C467.002 166.835 464.907 164.64 461.692 164.64C459.413 164.64 457.77 165.758 457.076 167.528H456.906V164.838H452.913V180.216H457.104V171.323ZM470.245 180.216H474.437V164.838H470.245V180.216ZM470.047 160.703C470.047 161.864 471.081 162.827 472.341 162.827C473.587 162.827 474.621 161.864 474.606 160.703C474.621 159.514 473.587 158.565 472.341 158.551C471.081 158.565 470.047 159.514 470.047 160.703ZM481.885 171.323C481.885 169.298 483.088 168.123 484.83 168.123C486.572 168.123 487.591 169.256 487.605 171.153V180.216H491.769V170.417C491.783 166.835 489.687 164.64 486.473 164.64C484.193 164.64 482.55 165.758 481.856 167.528H481.687V164.838H477.693V180.216H481.885V171.323ZM501.936 186.305C506.311 186.305 509.398 184.308 509.412 180.386V164.838H505.249V167.415H505.079C504.513 166.169 503.267 164.64 500.689 164.64C497.291 164.64 494.431 167.231 494.431 172.428C494.431 177.554 497.22 180.003 500.689 179.989C503.167 180.003 504.527 178.743 505.079 177.497H505.277V180.301C505.263 182.439 503.96 183.274 502.021 183.274C500.35 183.274 499.188 182.722 498.962 181.49H494.827C495.068 184.393 497.688 186.305 501.936 186.305ZM498.735 172.484C498.721 169.836 499.854 167.982 501.992 167.982C504.102 167.982 505.277 169.752 505.277 172.484C505.277 175.217 504.088 176.832 501.992 176.846C499.868 176.832 498.721 175.147 498.735 172.484Z" fill="#EE5046"/>
<g filter="url(#filter0_d_603_645)">
<path d="M30.4011 122.663C30.4011 124.057 31.4905 125.187 32.8342 125.187H49.5111C50.8549 125.187 51.9442 124.057 51.9442 122.663V89.1897C51.9442 87.7956 53.0336 86.6654 54.3774 86.6654H86.1345C87.4782 86.6654 88.5676 85.5352 88.5676 84.1411V70.9148C88.5676 69.5207 87.4782 68.3905 86.1345 68.3905H54.3774C53.0336 68.3905 51.9442 67.2603 51.9442 65.8662V50.7992C51.9442 49.4051 53.0336 48.2749 54.3774 48.2749H90.1896C91.5334 48.2749 92.6227 47.1448 92.6227 45.7506V32.5243C92.6227 31.1302 91.5334 30 90.1896 30H32.8342C31.4905 30 30.4011 31.1302 30.4011 32.5243V122.663Z" fill="#EE5046"/>
<path d="M109.469 125.187C110.53 125.187 111.469 124.474 111.789 123.424L116.923 106.572C117.243 105.522 118.182 104.809 119.243 104.809H147.613C148.674 104.809 149.613 105.522 149.933 106.572L155.067 123.424C155.387 124.474 156.326 125.187 157.387 125.187H175.403C177.069 125.187 178.242 123.491 177.708 121.854L148.307 31.7152C147.973 30.69 147.046 30 146.003 30H120.851C119.809 30 118.883 30.6885 118.547 31.7122L89.0266 121.851C88.4904 123.488 89.6637 125.187 91.3304 125.187H109.469ZM125.975 87.7172C124.331 87.7172 123.16 86.0604 123.655 84.4336L132.933 53.9101C133.002 53.6861 133.202 53.5339 133.428 53.5339C133.654 53.5339 133.854 53.6861 133.922 53.9101L143.201 84.4336C143.696 86.0604 142.525 87.7172 140.881 87.7172H125.975Z" fill="#EE5046"/>
<path d="M266.362 32.5243C266.362 31.1302 265.272 30 263.929 30H247.252C245.908 30 244.819 31.1302 244.819 32.5243V85.36C244.819 85.6453 244.596 85.8766 244.321 85.8766C244.156 85.8766 244.003 85.7925 243.91 85.6519L207.906 31.0982C207.453 30.4109 206.701 30 205.899 30H190.986C189.642 30 188.553 31.1302 188.553 32.5243V122.663C188.553 124.057 189.642 125.187 190.986 125.187H207.663C209.007 125.187 210.096 124.057 210.096 122.663V69.7421C210.096 69.5039 210.282 69.3108 210.512 69.3108C210.648 69.3108 210.776 69.3803 210.854 69.4967L247.261 124.099C247.715 124.781 248.463 125.187 249.262 125.187H263.929C265.272 125.187 266.362 124.057 266.362 122.663V32.5243Z" fill="#EE5046"/>
<path d="M280.301 122.663C280.301 124.057 281.391 125.187 282.734 125.187H299.411C300.755 125.187 301.845 124.057 301.845 122.663V89.1897C301.845 87.7956 302.934 86.6654 304.278 86.6654H336.035C337.378 86.6654 338.468 85.5352 338.468 84.1411V70.9148C338.468 69.5207 337.378 68.3905 336.035 68.3905H304.278C302.934 68.3905 301.845 67.2603 301.845 65.8662V50.7992C301.845 49.4051 302.934 48.2749 304.278 48.2749H340.09C341.434 48.2749 342.523 47.1448 342.523 45.7506V32.5243C342.523 31.1302 341.434 30 340.09 30H282.734C281.391 30 280.301 31.1302 280.301 32.5243V122.663Z" fill="#EE5046"/>
<path d="M359.369 125.187C360.43 125.187 361.369 124.474 361.689 123.424L366.824 106.572C367.144 105.522 368.082 104.809 369.144 104.809H397.513C398.574 104.809 399.513 105.522 399.833 106.572L404.968 123.424C405.288 124.474 406.226 125.187 407.288 125.187H425.304C426.969 125.187 428.142 123.491 427.608 121.854L398.208 31.7152C397.873 30.69 396.946 30 395.903 30H370.751C369.709 30 368.783 30.6885 368.448 31.7122L338.927 121.851C338.391 123.488 339.564 125.187 341.231 125.187H359.369ZM375.875 87.7172C374.231 87.7172 373.06 86.0604 373.555 84.4336L382.834 53.9101C382.902 53.6861 383.102 53.5339 383.328 53.5339C383.555 53.5339 383.755 53.6861 383.823 53.9101L393.102 84.4336C393.596 86.0604 392.425 87.7172 390.781 87.7172H375.875Z" fill="#EE5046"/>
<path d="M438.453 122.663C438.453 124.057 439.543 125.187 440.886 125.187H457.563C458.907 125.187 459.996 124.057 459.996 122.663V94.9746C459.996 93.5805 461.086 92.4503 462.43 92.4503H470.576C471.474 92.4503 472.299 92.9635 472.723 93.7853L488.202 123.852C488.625 124.674 489.45 125.187 490.348 125.187H508.479C510.328 125.187 511.502 123.132 510.613 121.45L494.646 91.2168C493.967 89.9304 494.491 88.3244 495.723 87.6048C504.416 82.5279 509.35 73.6562 509.292 61.5538C509.356 42.1614 496.62 30 475.964 30H440.886C439.543 30 438.453 31.1302 438.453 32.5243V122.663ZM462.43 74.5698C461.086 74.5698 459.996 73.4396 459.996 72.0455V50.6678C459.996 49.2736 461.086 48.1435 462.43 48.1435H471.402C481.603 48.1435 486.989 52.6136 486.989 61.5538C486.989 70.4941 481.603 74.6355 471.402 74.5698H462.43Z" fill="#EE5046"/>
<path d="M521.458 122.663C521.458 124.057 522.547 125.187 523.891 125.187H582.64C583.984 125.187 585.073 124.057 585.073 122.663V109.437C585.073 108.043 583.984 106.912 582.64 106.912H545.434C544.09 106.912 543.001 105.782 543.001 104.388V89.1897C543.001 87.7956 544.09 86.6654 545.434 86.6654H579.219C580.562 86.6654 581.652 85.5352 581.652 84.1411V70.9148C581.652 69.5207 580.562 68.3905 579.219 68.3905H545.434C544.09 68.3905 543.001 67.2603 543.001 65.8662V50.7992C543.001 49.4051 544.09 48.2749 545.434 48.2749H582.513C583.857 48.2749 584.947 47.1448 584.947 45.7506V32.5243C584.947 31.1302 583.857 30 582.513 30H523.891C522.547 30 521.458 31.1302 521.458 32.5243V122.663Z" fill="#EE5046"/>
</g>
<defs>
<filter id="filter0_d_603_645" x="0.401123" y="0" width="614.672" height="155.187" filterUnits="userSpaceOnUse" color-interpolation-filters="sRGB">
<feFlood flood-opacity="0" result="BackgroundImageFix"/>
<feColorMatrix in="SourceAlpha" type="matrix" values="0 0 0 0 0 0 0 0 0 0 0 0 0 0 0 0 0 0 127 0" result="hardAlpha"/>
<feOffset/>
<feGaussianBlur stdDeviation="15"/>
<feComposite in2="hardAlpha" operator="out"/>
<feColorMatrix type="matrix" values="0 0 0 0 1 0 0 0 0 1 0 0 0 0 1 0 0 0 1 0"/>
<feBlend mode="normal" in2="BackgroundImageFix" result="effect1_dropShadow_603_645"/>
<feBlend mode="normal" in="SourceGraphic" in2="effect1_dropShadow_603_645" result="shape"/>
</filter>
</defs>
</svg>
