<svg width="616" height="194" viewBox="0 0 616 194" fill="none" xmlns="http://www.w3.org/2000/svg">
<path d="M34.8652 184.216L36.6216 178.834H45.0649L46.8213 184.216H52.0098L43.9531 160.884H37.7334L29.6445 184.216H34.8652ZM37.8462 175.064L40.7627 166.137H40.9238L43.8403 175.064H37.8462ZM62.2578 184.216H67.0918V174.548H76.6309V170.552H67.0918V164.88H77.6299V160.884H62.2578V184.216ZM87.3623 184.57C91.6807 184.554 94.5811 182.46 95.2578 179.221H90.7139C90.2466 180.268 89.0864 180.977 87.459 180.993C84.9937 180.977 83.4307 179.35 83.4307 176.707H95.3867V175.354C95.3867 169.392 91.7612 166.491 87.1689 166.491C82.0449 166.491 78.7095 170.149 78.7256 175.547C78.7095 181.09 81.9966 184.554 87.3623 184.57ZM83.4307 173.71C83.5273 171.696 85.0742 170.052 87.2656 170.068C89.3926 170.052 90.8589 171.583 90.875 173.71H83.4307ZM108.374 171.905H112.854C112.596 168.586 109.856 166.491 105.441 166.491C100.93 166.491 98.0454 168.586 98.0615 171.938C98.0454 174.532 99.7534 176.24 103.089 176.9L105.989 177.481C107.633 177.819 108.374 178.383 108.374 179.285C108.374 180.413 107.214 181.106 105.474 181.122C103.717 181.106 102.605 180.397 102.38 179.027H97.5781C97.981 182.443 100.752 184.554 105.474 184.57C110.13 184.554 113.224 182.25 113.24 178.802C113.224 176.288 111.581 174.773 108.181 174.065L105.055 173.42C103.395 173.082 102.783 172.469 102.799 171.68C102.783 170.616 103.959 169.891 105.506 169.875C107.101 169.891 108.165 170.681 108.374 171.905ZM125.39 166.717H122.103V162.527H117.333V166.717H114.916V170.294H117.333V179.511C117.301 182.911 119.653 184.458 123.102 184.441C124.278 184.458 125.132 184.361 125.647 184.28V180.51C125.067 180.558 124.229 180.607 123.746 180.607C122.779 180.574 122.086 180.236 122.103 178.834V170.294H125.39V166.717ZM128.387 184.216H133.156V166.717H128.387V184.216ZM128.161 162.012C128.161 163.333 129.337 164.429 130.771 164.429C132.189 164.429 133.366 163.333 133.35 162.012C133.366 160.658 132.189 159.579 130.771 159.563C129.337 159.579 128.161 160.658 128.161 162.012ZM153.104 166.717H148.045L144.371 179.285H144.178L140.504 166.717H135.477L141.6 184.216H146.949L153.104 166.717ZM154.104 179.317C154.12 182.782 156.585 184.554 159.937 184.538C162.531 184.554 164.207 183.41 165.061 181.799H165.189V184.216H169.701V172.421C169.717 168.199 166.108 166.491 162.289 166.491C157.648 166.491 155.006 168.876 154.716 171.905H159.26C159.518 170.713 160.533 169.988 162.16 169.972C163.949 169.988 164.948 170.826 164.964 172.292V173.71C164.223 173.742 161.87 173.855 160.613 173.936C157.246 174.145 154.12 175.418 154.104 179.317ZM158.68 179.189C158.68 177.835 159.727 177.045 161.387 176.9C162.192 176.836 164.239 176.723 164.964 176.691V177.964C164.98 179.817 163.465 181.235 161.29 181.251C159.759 181.235 158.68 180.526 158.68 179.189ZM178.112 160.884H173.343V184.216H178.112V160.884ZM189.521 160.884V184.216H194.226V168.876H194.419L200.51 184.119H203.732L209.823 168.94H210.017V184.216H214.722V160.884H208.728L202.25 176.707H201.992L195.515 160.884H189.521ZM217.719 179.317C217.735 182.782 220.2 184.554 223.552 184.538C226.146 184.554 227.822 183.41 228.676 181.799H228.805V184.216H233.316V172.421C233.333 168.199 229.723 166.491 225.904 166.491C221.264 166.491 218.621 168.876 218.331 171.905H222.875C223.133 170.713 224.148 169.988 225.775 169.972C227.564 169.988 228.563 170.826 228.579 172.292V173.71C227.838 173.742 225.485 173.855 224.229 173.936C220.861 174.145 217.735 175.418 217.719 179.317ZM222.295 179.189C222.295 177.835 223.342 177.045 225.002 176.9C225.808 176.836 227.854 176.723 228.579 176.691V177.964C228.595 179.817 227.081 181.235 224.905 181.251C223.375 181.235 222.295 180.526 222.295 179.189ZM236.958 184.216H241.728V174.258C241.711 172.115 243.307 170.616 245.466 170.616C246.126 170.616 247.045 170.729 247.496 170.874V166.62C247.077 166.523 246.465 166.459 245.981 166.459C244.016 166.459 242.388 167.603 241.76 169.746H241.566V166.717H236.958V184.216ZM249.816 184.216H254.586V178.608L255.923 177.094L260.741 184.216H266.349L259.468 174.29L265.994 166.717H260.516L254.844 173.42H254.586V160.884H249.816V184.216ZM268.218 184.216H272.987V166.717H268.218V184.216ZM267.992 162.012C267.992 163.333 269.168 164.429 270.603 164.429C272.021 164.429 273.197 163.333 273.181 162.012C273.197 160.658 272.021 159.579 270.603 159.563C269.168 159.579 267.992 160.658 267.992 162.012ZM281.463 174.097C281.463 171.793 282.833 170.455 284.814 170.455C286.796 170.455 287.957 171.744 287.973 173.903V184.216H292.71V173.065C292.726 168.989 290.341 166.491 286.684 166.491C284.089 166.491 282.22 167.764 281.431 169.778H281.237V166.717H276.693V184.216H281.463V174.097ZM304.279 191.145C309.258 191.145 312.771 188.873 312.787 184.409V166.717H308.05V169.649H307.856C307.212 168.232 305.794 166.491 302.861 166.491C298.994 166.491 295.739 169.44 295.739 175.354C295.739 181.187 298.914 183.974 302.861 183.958C305.681 183.974 307.228 182.54 307.856 181.122H308.082V184.313C308.066 186.746 306.583 187.696 304.376 187.696C302.475 187.696 301.153 187.068 300.896 185.666H296.19C296.464 188.969 299.445 191.145 304.279 191.145ZM300.638 175.418C300.622 172.405 301.911 170.294 304.344 170.294C306.745 170.294 308.082 172.308 308.082 175.418C308.082 178.528 306.729 180.365 304.344 180.381C301.927 180.365 300.622 178.447 300.638 175.418ZM328.095 184.216L329.851 178.834H338.294L340.051 184.216H345.239L337.183 160.884H330.963L322.874 184.216H328.095ZM331.076 175.064L333.992 166.137H334.153L337.07 175.064H331.076ZM374.952 160.884H370.15V175.708H369.925L359.741 160.884H355.487V184.216H360.321V169.392H360.515L370.763 184.216H374.952V160.884ZM386.715 184.57C391.033 184.554 393.934 182.46 394.61 179.221H390.066C389.599 180.268 388.439 180.977 386.812 180.993C384.346 180.977 382.783 179.35 382.783 176.707H394.739V175.354C394.739 169.392 391.114 166.491 386.521 166.491C381.397 166.491 378.062 170.149 378.078 175.547C378.062 181.09 381.349 184.554 386.715 184.57ZM382.783 173.71C382.88 171.696 384.427 170.052 386.618 170.068C388.745 170.052 390.211 171.583 390.228 173.71H382.783ZM401.056 184.216H406.115L409.145 173.098H409.37L412.399 184.216H417.427L422.229 166.717H417.395L414.688 178.48H414.526L411.626 166.717H406.889L404.021 178.544H403.859L401.12 166.717H396.286L401.056 184.216ZM432.348 184.216H442.241C447.51 184.216 450.282 181.477 450.298 177.771C450.282 174.322 447.8 172.228 445.174 172.099V171.873C447.575 171.341 449.379 169.617 449.363 166.878C449.379 163.365 446.769 160.884 441.629 160.884H432.348V184.216ZM437.182 180.22V173.968H441.403C443.788 173.968 445.287 175.354 445.271 177.319C445.287 179.076 444.078 180.236 441.274 180.22H437.182ZM437.182 170.648V164.815H441.017C443.224 164.815 444.481 165.96 444.465 167.651C444.481 169.521 442.95 170.665 440.92 170.648H437.182ZM461.19 184.57C465.509 184.554 468.409 182.46 469.086 179.221H464.542C464.075 180.268 462.915 180.977 461.287 180.993C458.822 180.977 457.259 179.35 457.259 176.707H469.215V175.354C469.215 169.392 465.589 166.491 460.997 166.491C455.873 166.491 452.538 170.149 452.554 175.547C452.538 181.09 455.825 184.554 461.19 184.57ZM457.259 173.71C457.355 171.696 458.902 170.052 461.094 170.068C463.221 170.052 464.687 171.583 464.703 173.71H457.259ZM480.075 191.145C485.054 191.145 488.567 188.873 488.583 184.409V166.717H483.846V169.649H483.652C483.008 168.232 481.59 166.491 478.657 166.491C474.79 166.491 471.535 169.44 471.535 175.354C471.535 181.187 474.709 183.974 478.657 183.958C481.477 183.974 483.024 182.54 483.652 181.122H483.878V184.313C483.862 186.746 482.379 187.696 480.172 187.696C478.271 187.696 476.949 187.068 476.691 185.666H471.986C472.26 188.969 475.241 191.145 480.075 191.145ZM476.434 175.418C476.417 172.405 477.707 170.294 480.14 170.294C482.541 170.294 483.878 172.308 483.878 175.418C483.878 178.528 482.524 180.365 480.14 180.381C477.723 180.365 476.417 178.447 476.434 175.418ZM492.289 184.216H497.059V166.717H492.289V184.216ZM492.063 162.012C492.063 163.333 493.24 164.429 494.674 164.429C496.092 164.429 497.268 163.333 497.252 162.012C497.268 160.658 496.092 159.579 494.674 159.563C493.24 159.579 492.063 160.658 492.063 162.012ZM505.534 174.097C505.534 171.793 506.904 170.455 508.886 170.455C510.868 170.455 512.028 171.744 512.044 173.903V184.216H516.781V173.065C516.797 168.989 514.413 166.491 510.755 166.491C508.161 166.491 506.292 167.764 505.502 169.778H505.309V166.717H500.765V184.216H505.534V174.097ZM525.257 174.097C525.257 171.793 526.626 170.455 528.608 170.455C530.59 170.455 531.75 171.744 531.767 173.903V184.216H536.504V173.065C536.52 168.989 534.135 166.491 530.478 166.491C527.883 166.491 526.014 167.764 525.225 169.778H525.031V166.717H520.487V184.216H525.257V174.097ZM540.21 184.216H544.979V166.717H540.21V184.216ZM539.984 162.012C539.984 163.333 541.161 164.429 542.595 164.429C544.013 164.429 545.189 163.333 545.173 162.012C545.189 160.658 544.013 159.579 542.595 159.563C541.161 159.579 539.984 160.658 539.984 162.012ZM553.455 174.097C553.455 171.793 554.825 170.455 556.807 170.455C558.789 170.455 559.949 171.744 559.965 173.903V184.216H564.702V173.065C564.718 168.989 562.333 166.491 558.676 166.491C556.082 166.491 554.212 167.764 553.423 169.778H553.229V166.717H548.686V184.216H553.455V174.097ZM576.271 191.145C581.25 191.145 584.763 188.873 584.779 184.409V166.717H580.042V169.649H579.849C579.204 168.232 577.786 166.491 574.854 166.491C570.986 166.491 567.731 169.44 567.731 175.354C567.731 181.187 570.906 183.974 574.854 183.958C577.673 183.974 579.22 182.54 579.849 181.122H580.074V184.313C580.058 186.746 578.576 187.696 576.368 187.696C574.467 187.696 573.146 187.068 572.888 185.666H568.183C568.457 188.969 571.438 191.145 576.271 191.145ZM572.63 175.418C572.614 172.405 573.903 170.294 576.336 170.294C578.737 170.294 580.074 172.308 580.074 175.418C580.074 178.528 578.721 180.365 576.336 180.381C573.919 180.365 572.614 178.447 572.63 175.418Z" fill="#EE5046"/>
<g filter="url(#filter0_d_723_11)">
<path d="M30.4011 122.663C30.4011 124.057 31.4905 125.187 32.8342 125.187H49.5111C50.8549 125.187 51.9442 124.057 51.9442 122.663V89.1897C51.9442 87.7956 53.0336 86.6654 54.3774 86.6654H86.1345C87.4782 86.6654 88.5676 85.5352 88.5676 84.1411V70.9148C88.5676 69.5207 87.4782 68.3905 86.1345 68.3905H54.3774C53.0336 68.3905 51.9442 67.2603 51.9442 65.8662V50.7992C51.9442 49.4051 53.0336 48.2749 54.3774 48.2749H90.1896C91.5334 48.2749 92.6227 47.1448 92.6227 45.7506V32.5243C92.6227 31.1302 91.5334 30 90.1896 30H32.8342C31.4905 30 30.4011 31.1302 30.4011 32.5243V122.663Z" fill="#EE5046"/>
<path d="M109.469 125.187C110.53 125.187 111.469 124.474 111.789 123.424L116.923 106.572C117.243 105.522 118.182 104.809 119.243 104.809H147.613C148.674 104.809 149.613 105.522 149.933 106.572L155.067 123.424C155.387 124.474 156.326 125.187 157.387 125.187H175.403C177.069 125.187 178.242 123.491 177.708 121.854L148.307 31.7152C147.973 30.69 147.046 30 146.003 30H120.851C119.809 30 118.883 30.6885 118.547 31.7122L89.0266 121.851C88.4904 123.488 89.6637 125.187 91.3304 125.187H109.469ZM125.975 87.7172C124.331 87.7172 123.16 86.0604 123.655 84.4336L132.933 53.9101C133.002 53.6861 133.202 53.5339 133.428 53.5339C133.654 53.5339 133.854 53.6861 133.922 53.9101L143.201 84.4336C143.696 86.0604 142.525 87.7172 140.881 87.7172H125.975Z" fill="#EE5046"/>
<path d="M266.362 32.5243C266.362 31.1302 265.272 30 263.929 30H247.252C245.908 30 244.819 31.1302 244.819 32.5243V85.3601C244.819 85.6453 244.596 85.8766 244.321 85.8766C244.156 85.8766 244.003 85.7925 243.91 85.6519L207.906 31.0982C207.453 30.4109 206.701 30 205.899 30H190.986C189.642 30 188.553 31.1302 188.553 32.5243V122.663C188.553 124.057 189.642 125.187 190.986 125.187H207.663C209.007 125.187 210.096 124.057 210.096 122.663V69.7421C210.096 69.5039 210.282 69.3108 210.512 69.3108C210.648 69.3108 210.776 69.3803 210.854 69.4967L247.261 124.099C247.715 124.781 248.463 125.187 249.262 125.187H263.929C265.272 125.187 266.362 124.057 266.362 122.663V32.5243Z" fill="#EE5046"/>
<path d="M280.301 122.663C280.301 124.057 281.391 125.187 282.734 125.187H299.411C300.755 125.187 301.845 124.057 301.845 122.663V89.1897C301.845 87.7956 302.934 86.6654 304.278 86.6654H336.035C337.379 86.6654 338.468 85.5352 338.468 84.1411V70.9148C338.468 69.5207 337.379 68.3905 336.035 68.3905H304.278C302.934 68.3905 301.845 67.2603 301.845 65.8662V50.7992C301.845 49.4051 302.934 48.2749 304.278 48.2749H340.09C341.434 48.2749 342.523 47.1448 342.523 45.7506V32.5243C342.523 31.1302 341.434 30 340.09 30H282.734C281.391 30 280.301 31.1302 280.301 32.5243V122.663Z" fill="#EE5046"/>
<path d="M359.369 125.187C360.43 125.187 361.369 124.474 361.689 123.424L366.824 106.572C367.144 105.522 368.082 104.809 369.144 104.809H397.513C398.574 104.809 399.513 105.522 399.833 106.572L404.968 123.424C405.288 124.474 406.226 125.187 407.288 125.187H425.303C426.969 125.187 428.142 123.491 427.608 121.854L398.208 31.7152C397.873 30.69 396.946 30 395.903 30H370.751C369.709 30 368.783 30.6885 368.448 31.7122L338.927 121.851C338.391 123.488 339.564 125.187 341.231 125.187H359.369ZM375.875 87.7172C374.231 87.7172 373.06 86.0604 373.555 84.4336L382.834 53.9101C382.902 53.6861 383.102 53.5339 383.328 53.5339C383.555 53.5339 383.755 53.6861 383.823 53.9101L393.102 84.4336C393.596 86.0604 392.425 87.7172 390.781 87.7172H375.875Z" fill="#EE5046"/>
<path d="M438.453 122.663C438.453 124.057 439.543 125.187 440.886 125.187H457.563C458.907 125.187 459.996 124.057 459.996 122.663V94.9746C459.996 93.5805 461.086 92.4503 462.43 92.4503H470.576C471.474 92.4503 472.299 92.9635 472.723 93.7853L488.202 123.852C488.625 124.674 489.45 125.187 490.348 125.187H508.479C510.328 125.187 511.502 123.132 510.613 121.45L494.646 91.2168C493.967 89.9304 494.491 88.3244 495.723 87.6048C504.416 82.5279 509.35 73.6562 509.292 61.5538C509.355 42.1614 496.62 30 475.964 30H440.886C439.543 30 438.453 31.1302 438.453 32.5243V122.663ZM462.43 74.5698C461.086 74.5698 459.996 73.4396 459.996 72.0455V50.6678C459.996 49.2736 461.086 48.1434 462.43 48.1434H471.402C481.603 48.1434 486.989 52.6136 486.989 61.5538C486.989 70.4941 481.603 74.6355 471.402 74.5698H462.43Z" fill="#EE5046"/>
<path d="M521.458 122.663C521.458 124.057 522.547 125.187 523.891 125.187H582.64C583.984 125.187 585.073 124.057 585.073 122.663V109.437C585.073 108.043 583.984 106.912 582.64 106.912H545.434C544.09 106.912 543.001 105.782 543.001 104.388V89.1897C543.001 87.7956 544.09 86.6654 545.434 86.6654H579.219C580.562 86.6654 581.652 85.5352 581.652 84.1411V70.9148C581.652 69.5207 580.562 68.3905 579.219 68.3905H545.434C544.09 68.3905 543.001 67.2603 543.001 65.8662V50.7992C543.001 49.4051 544.09 48.2749 545.434 48.2749H582.513C583.857 48.2749 584.947 47.1448 584.947 45.7506V32.5243C584.947 31.1302 583.857 30 582.513 30H523.891C522.547 30 521.458 31.1302 521.458 32.5243V122.663Z" fill="#EE5046"/>
</g>
<defs>
<filter id="filter0_d_723_11" x="0.401123" y="0" width="614.672" height="155.187" filterUnits="userSpaceOnUse" color-interpolation-filters="sRGB">
<feFlood flood-opacity="0" result="BackgroundImageFix"/>
<feColorMatrix in="SourceAlpha" type="matrix" values="0 0 0 0 0 0 0 0 0 0 0 0 0 0 0 0 0 0 127 0" result="hardAlpha"/>
<feOffset/>
<feGaussianBlur stdDeviation="15"/>
<feComposite in2="hardAlpha" operator="out"/>
<feColorMatrix type="matrix" values="0 0 0 0 1 0 0 0 0 1 0 0 0 0 1 0 0 0 1 0"/>
<feBlend mode="normal" in2="BackgroundImageFix" result="effect1_dropShadow_723_11"/>
<feBlend mode="normal" in="SourceGraphic" in2="effect1_dropShadow_723_11" result="shape"/>
</filter>
</defs>
</svg>
