<svg width="532" height="169" viewBox="0 0 532 169" fill="none" xmlns="http://www.w3.org/2000/svg">
<path d="M27.6411 162L29.1846 157.271H36.6045L38.1479 162H42.7075L35.6274 141.496H30.1616L23.0532 162H27.6411ZM30.2607 153.957L32.8237 146.112H32.9653L35.5283 153.957H30.2607ZM51.7134 162H55.9614V153.504H64.3442V149.992H55.9614V145.008H65.2222V141.496H51.7134V162ZM73.7749 162.312C77.5698 162.297 80.1187 160.457 80.7134 157.61H76.7202C76.3096 158.531 75.29 159.154 73.8599 159.168C71.6934 159.154 70.3198 157.724 70.3198 155.401H80.8267V154.212C80.8267 148.973 77.6406 146.424 73.605 146.424C69.1021 146.424 66.1709 149.638 66.1851 154.382C66.1709 159.253 69.0596 162.297 73.7749 162.312ZM70.3198 152.768C70.4048 150.998 71.7642 149.553 73.6899 149.567C75.5591 149.553 76.8477 150.898 76.8618 152.768H70.3198ZM92.2397 151.182H96.1763C95.9497 148.265 93.5425 146.424 89.6626 146.424C85.6978 146.424 83.1631 148.265 83.1772 151.21C83.1631 153.49 84.6641 154.991 87.5952 155.571L90.144 156.081C91.5884 156.378 92.2397 156.874 92.2397 157.667C92.2397 158.658 91.2202 159.267 89.6909 159.281C88.1475 159.267 87.1704 158.644 86.9722 157.44H82.7524C83.1064 160.442 85.542 162.297 89.6909 162.312C93.7832 162.297 96.502 160.272 96.5161 157.242C96.502 155.033 95.0576 153.702 92.0698 153.079L89.3228 152.513C87.8643 152.215 87.3262 151.677 87.3403 150.983C87.3262 150.049 88.3599 149.412 89.7192 149.397C91.1211 149.412 92.0557 150.105 92.2397 151.182ZM107.193 146.622H104.304V142.94H100.113V146.622H97.9888V149.766H100.113V157.865C100.084 160.853 102.152 162.212 105.182 162.198C106.216 162.212 106.966 162.127 107.419 162.057V158.743C106.91 158.786 106.173 158.828 105.749 158.828C104.899 158.8 104.29 158.502 104.304 157.271V149.766H107.193V146.622ZM109.827 162H114.018V146.622H109.827V162ZM109.628 142.487C109.628 143.648 110.662 144.611 111.922 144.611C113.168 144.611 114.202 143.648 114.188 142.487C114.202 141.298 113.168 140.349 111.922 140.335C110.662 140.349 109.628 141.298 109.628 142.487ZM131.548 146.622H127.102L123.874 157.667H123.704L120.475 146.622H116.057L121.438 162H126.139L131.548 146.622ZM132.426 157.695C132.44 160.74 134.607 162.297 137.552 162.283C139.832 162.297 141.305 161.292 142.055 159.876H142.168V162H146.133V151.635C146.147 147.925 142.976 146.424 139.62 146.424C135.542 146.424 133.219 148.52 132.964 151.182H136.958C137.184 150.134 138.076 149.497 139.506 149.482C141.078 149.497 141.956 150.233 141.97 151.521V152.768C141.319 152.796 139.251 152.895 138.147 152.966C135.188 153.15 132.44 154.269 132.426 157.695ZM136.448 157.582C136.448 156.393 137.368 155.699 138.827 155.571C139.535 155.515 141.333 155.416 141.97 155.387V156.506C141.984 158.134 140.653 159.38 138.742 159.395C137.396 159.38 136.448 158.757 136.448 157.582ZM153.525 141.496H149.333V162H153.525V141.496ZM163.55 141.496V162H167.685V148.52H167.855L173.208 161.915H176.04L181.392 148.576H181.562V162H185.697V141.496H180.429L174.737 155.401H174.51L168.818 141.496H163.55ZM188.331 157.695C188.345 160.74 190.511 162.297 193.457 162.283C195.736 162.297 197.209 161.292 197.959 159.876H198.073V162H202.038V151.635C202.052 147.925 198.88 146.424 195.524 146.424C191.446 146.424 189.124 148.52 188.869 151.182H192.862C193.088 150.134 193.98 149.497 195.411 149.482C196.982 149.497 197.86 150.233 197.875 151.521V152.768C197.223 152.796 195.156 152.895 194.051 152.966C191.092 153.15 188.345 154.269 188.331 157.695ZM192.352 157.582C192.352 156.393 193.272 155.699 194.731 155.571C195.439 155.515 197.237 155.416 197.875 155.387V156.506C197.889 158.134 196.558 159.38 194.646 159.395C193.301 159.38 192.352 158.757 192.352 157.582ZM205.238 162H209.429V153.249C209.415 151.366 210.817 150.049 212.714 150.049C213.295 150.049 214.102 150.148 214.499 150.275V146.537C214.13 146.452 213.592 146.396 213.167 146.396C211.44 146.396 210.01 147.401 209.458 149.284H209.288V146.622H205.238V162ZM216.538 162H220.729V157.072L221.904 155.741L226.138 162H231.066L225.02 153.277L230.754 146.622H225.94L220.956 152.513H220.729V141.496H216.538V162ZM232.708 162H236.9V146.622H232.708V162ZM232.51 142.487C232.51 143.648 233.544 144.611 234.804 144.611C236.05 144.611 237.084 143.648 237.07 142.487C237.084 141.298 236.05 140.349 234.804 140.335C233.544 140.349 232.51 141.298 232.51 142.487ZM244.348 153.107C244.348 151.083 245.552 149.907 247.293 149.907C249.035 149.907 250.055 151.04 250.069 152.938V162H254.232V152.201C254.246 148.619 252.15 146.424 248.936 146.424C246.656 146.424 245.014 147.542 244.32 149.312H244.15V146.622H240.157V162H244.348V153.107ZM264.399 168.089C268.774 168.089 271.861 166.092 271.875 162.17V146.622H267.712V149.199H267.542C266.976 147.953 265.73 146.424 263.153 146.424C259.754 146.424 256.894 149.015 256.894 154.212C256.894 159.338 259.684 161.788 263.153 161.773C265.631 161.788 266.99 160.527 267.542 159.281H267.741V162.085C267.727 164.223 266.424 165.059 264.484 165.059C262.813 165.059 261.652 164.506 261.425 163.274H257.291C257.531 166.177 260.151 168.089 264.399 168.089ZM261.199 154.269C261.185 151.621 262.317 149.766 264.456 149.766C266.565 149.766 267.741 151.536 267.741 154.269C267.741 157.001 266.551 158.616 264.456 158.63C262.332 158.616 261.185 156.931 261.199 154.269ZM285.328 162L286.871 157.271H294.291L295.834 162H300.394L293.314 141.496H287.848L280.74 162H285.328ZM287.947 153.957L290.51 146.112H290.652L293.215 153.957H287.947ZM326.505 141.496H322.286V154.523H322.087L313.138 141.496H309.4V162H313.648V148.973H313.818L322.824 162H326.505V141.496ZM336.842 162.312C340.637 162.297 343.186 160.457 343.781 157.61H339.788C339.377 158.531 338.357 159.154 336.927 159.168C334.761 159.154 333.387 157.724 333.387 155.401H343.894V154.212C343.894 148.973 340.708 146.424 336.672 146.424C332.169 146.424 329.238 149.638 329.252 154.382C329.238 159.253 332.127 162.297 336.842 162.312ZM333.387 152.768C333.472 150.998 334.832 149.553 336.757 149.567C338.626 149.553 339.915 150.898 339.929 152.768H333.387ZM349.445 162H353.891L356.553 152.229H356.751L359.414 162H363.832L368.051 146.622H363.803L361.424 156.959H361.283L358.734 146.622H354.571L352.05 157.016H351.909L349.501 146.622H345.253L349.445 162ZM376.944 162H385.638C390.269 162 392.704 159.593 392.718 156.336C392.704 153.306 390.523 151.465 388.215 151.352V151.153C390.325 150.686 391.911 149.171 391.897 146.764C391.911 143.677 389.617 141.496 385.1 141.496H376.944V162ZM381.192 158.488V152.994H384.902C386.998 152.994 388.314 154.212 388.3 155.939C388.314 157.483 387.252 158.502 384.789 158.488H381.192ZM381.192 150.077V144.951H384.562C386.502 144.951 387.606 145.957 387.592 147.443C387.606 149.086 386.261 150.091 384.477 150.077H381.192ZM402.291 162.312C406.085 162.297 408.634 160.457 409.229 157.61H405.236C404.825 158.531 403.806 159.154 402.375 159.168C400.209 159.154 398.835 157.724 398.835 155.401H409.342V154.212C409.342 148.973 406.156 146.424 402.121 146.424C397.618 146.424 394.687 149.638 394.701 154.382C394.687 159.253 397.575 162.297 402.291 162.312ZM398.835 152.768C398.92 150.998 400.28 149.553 402.206 149.567C404.075 149.553 405.363 150.898 405.377 152.768H398.835ZM418.886 168.089C423.262 168.089 426.349 166.092 426.363 162.17V146.622H422.2V149.199H422.03C421.463 147.953 420.217 146.424 417.64 146.424C414.242 146.424 411.381 149.015 411.381 154.212C411.381 159.338 414.171 161.788 417.64 161.773C420.118 161.788 421.478 160.527 422.03 159.281H422.228V162.085C422.214 164.223 420.911 165.059 418.971 165.059C417.3 165.059 416.139 164.506 415.913 163.274H411.778C412.019 166.177 414.638 168.089 418.886 168.089ZM415.686 154.269C415.672 151.621 416.805 149.766 418.943 149.766C421.053 149.766 422.228 151.536 422.228 154.269C422.228 157.001 421.039 158.616 418.943 158.63C416.819 158.616 415.672 156.931 415.686 154.269ZM429.62 162H433.811V146.622H429.62V162ZM429.421 142.487C429.421 143.648 430.455 144.611 431.715 144.611C432.961 144.611 433.995 143.648 433.981 142.487C433.995 141.298 432.961 140.349 431.715 140.335C430.455 140.349 429.421 141.298 429.421 142.487ZM441.259 153.107C441.259 151.083 442.463 149.907 444.205 149.907C445.946 149.907 446.966 151.04 446.98 152.938V162H451.143V152.201C451.157 148.619 449.062 146.424 445.847 146.424C443.567 146.424 441.925 147.542 441.231 149.312H441.061V146.622H437.068V162H441.259V153.107ZM458.591 153.107C458.591 151.083 459.795 149.907 461.537 149.907C463.278 149.907 464.298 151.04 464.312 152.938V162H468.475V152.201C468.489 148.619 466.394 146.424 463.179 146.424C460.899 146.424 459.257 147.542 458.563 149.312H458.393V146.622H454.4V162H458.591V153.107ZM471.732 162H475.923V146.622H471.732V162ZM471.534 142.487C471.534 143.648 472.567 144.611 473.828 144.611C475.074 144.611 476.107 143.648 476.093 142.487C476.107 141.298 475.074 140.349 473.828 140.335C472.567 140.349 471.534 141.298 471.534 142.487ZM483.372 153.107C483.372 151.083 484.575 149.907 486.317 149.907C488.059 149.907 489.078 151.04 489.092 152.938V162H493.255V152.201C493.27 148.619 491.174 146.424 487.959 146.424C485.68 146.424 484.037 147.542 483.343 149.312H483.173V146.622H479.18V162H483.372V153.107ZM503.422 168.089C507.798 168.089 510.885 166.092 510.899 162.17V146.622H506.736V149.199H506.566C506 147.953 504.753 146.424 502.176 146.424C498.778 146.424 495.917 149.015 495.917 154.212C495.917 159.338 498.707 161.788 502.176 161.773C504.654 161.788 506.014 160.527 506.566 159.281H506.764V162.085C506.75 164.223 505.447 165.059 503.507 165.059C501.836 165.059 500.675 164.506 500.449 163.274H496.314C496.555 166.177 499.174 168.089 503.422 168.089ZM500.222 154.269C500.208 151.621 501.341 149.766 503.479 149.766C505.589 149.766 506.764 151.536 506.764 154.269C506.764 157.001 505.575 158.616 503.479 158.63C501.355 158.616 500.208 156.931 500.222 154.269Z" fill="#EE5046"/>
<g filter="url(#filter0_d_537_9)">
<path d="M30 108.852C30 110.038 30.927 111 32.0705 111H46.2617C47.4052 111 48.3322 110.038 48.3322 108.852V80.3677C48.3322 79.1813 49.2592 78.2196 50.4027 78.2196H77.4265C78.5699 78.2196 79.4969 77.2579 79.4969 76.0715V64.8166C79.4969 63.6302 78.5699 62.6685 77.4265 62.6685H50.4027C49.2592 62.6685 48.3322 61.7068 48.3322 60.5204V47.6992C48.3322 46.5128 49.2592 45.5511 50.4027 45.5511H80.8772C82.0207 45.5511 82.9477 44.5894 82.9477 43.403V32.1481C82.9477 30.9617 82.0207 30 80.8772 30H32.0705C30.927 30 30 30.9617 30 32.1481V108.852Z" fill="#EE5046"/>
<path d="M97.2827 111C98.1858 111 98.9847 110.393 99.2569 109.499L103.626 95.1594C103.899 94.2661 104.697 93.6588 105.601 93.6588H129.741C130.645 93.6588 131.443 94.2661 131.716 95.1594L136.085 109.499C136.357 110.393 137.156 111 138.059 111H153.39C154.807 111 155.805 109.556 155.351 108.163L130.333 31.4595C130.048 30.5871 129.259 30 128.371 30H106.969C106.082 30 105.294 30.5859 105.008 31.457L79.8876 108.161C79.4313 109.554 80.4297 111 81.8479 111H97.2827ZM111.329 79.1146C109.93 79.1146 108.933 77.7048 109.354 76.3205L117.25 50.3463C117.308 50.1558 117.478 50.0262 117.671 50.0262C117.864 50.0262 118.034 50.1558 118.092 50.3463L125.988 76.3205C126.409 77.7048 125.412 79.1146 124.013 79.1146H111.329Z" fill="#EE5046"/>
<path d="M230.791 32.1481C230.791 30.9617 229.864 30 228.721 30H214.53C213.386 30 212.459 30.9617 212.459 32.1481V77.1088C212.459 77.3516 212.27 77.5483 212.036 77.5483C211.896 77.5483 211.765 77.4768 211.686 77.3571L181.049 30.9345C180.663 30.3497 180.023 30 179.34 30H166.65C165.507 30 164.58 30.9617 164.58 32.1481V108.852C164.58 110.038 165.507 111 166.65 111H180.842C181.985 111 182.912 110.038 182.912 108.852V63.8187C182.912 63.616 183.07 63.4517 183.266 63.4517C183.382 63.4517 183.491 63.5108 183.557 63.6099L214.538 110.074C214.924 110.654 215.561 111 216.24 111H228.721C229.864 111 230.791 110.038 230.791 108.852V32.1481Z" fill="#EE5046"/>
<path d="M242.653 108.852C242.653 110.038 243.58 111 244.724 111H258.915C260.059 111 260.986 110.038 260.986 108.852V80.3677C260.986 79.1813 261.913 78.2196 263.056 78.2196H290.08C291.223 78.2196 292.15 77.2579 292.15 76.0715V64.8166C292.15 63.6302 291.223 62.6685 290.08 62.6685H263.056C261.913 62.6685 260.986 61.7068 260.986 60.5204V47.6992C260.986 46.5128 261.913 45.5511 263.056 45.5511H293.531C294.674 45.5511 295.601 44.5894 295.601 43.403V32.1481C295.601 30.9617 294.674 30 293.531 30H244.724C243.58 30 242.653 30.9617 242.653 32.1481V108.852Z" fill="#EE5046"/>
<path d="M309.936 111C310.839 111 311.638 110.393 311.91 109.499L316.28 95.1594C316.552 94.2661 317.351 93.6588 318.254 93.6588H342.395C343.298 93.6588 344.097 94.2661 344.369 95.1594L348.739 109.499C349.011 110.393 349.81 111 350.713 111H366.043C367.461 111 368.459 109.556 368.005 108.163L342.986 31.4595C342.701 30.5871 341.912 30 341.025 30H319.622C318.735 30 317.947 30.5859 317.662 31.457L292.541 108.161C292.085 109.554 293.083 111 294.501 111H309.936ZM323.982 79.1146C322.583 79.1146 321.587 77.7048 322.008 76.3205L329.904 50.3463C329.962 50.1558 330.132 50.0262 330.324 50.0262C330.517 50.0262 330.687 50.1558 330.745 50.3463L338.641 76.3205C339.062 77.7048 338.066 79.1146 336.667 79.1146H323.982Z" fill="#EE5046"/>
<path d="M377.233 108.852C377.233 110.038 378.16 111 379.304 111H393.495C394.638 111 395.565 110.038 395.565 108.852V85.2903C395.565 84.104 396.492 83.1423 397.636 83.1423H404.569C405.333 83.1423 406.035 83.579 406.395 84.2783L419.567 109.864C419.927 110.563 420.629 111 421.394 111H436.822C438.396 111 439.394 109.251 438.638 107.82L425.051 82.0926C424.473 80.998 424.919 79.6314 425.967 79.019C433.364 74.6988 437.563 67.1494 437.514 56.8508C437.568 40.3488 426.73 30 409.153 30H379.304C378.16 30 377.233 30.9617 377.233 32.1481V108.852ZM397.636 67.9268C396.492 67.9268 395.565 66.9651 395.565 65.7787V47.5873C395.565 46.4009 396.492 45.4392 397.636 45.4392H405.271C413.952 45.4392 418.535 49.2431 418.535 56.8508C418.535 64.4586 413.952 67.9827 405.271 67.9268H397.636Z" fill="#EE5046"/>
<path d="M447.866 108.852C447.866 110.038 448.793 111 449.937 111H499.93C501.073 111 502 110.038 502 108.852V97.597C502 96.4106 501.073 95.4489 499.93 95.4489H468.269C467.125 95.4489 466.198 94.4872 466.198 93.3008V80.3677C466.198 79.1813 467.125 78.2196 468.269 78.2196H497.018C498.161 78.2196 499.088 77.2579 499.088 76.0715V64.8166C499.088 63.6302 498.161 62.6685 497.018 62.6685H468.269C467.125 62.6685 466.198 61.7068 466.198 60.5204V47.6992C466.198 46.5128 467.125 45.5511 468.269 45.5511H499.822C500.965 45.5511 501.892 44.5894 501.892 43.403V32.1481C501.892 30.9617 500.965 30 499.822 30H449.937C448.793 30 447.866 30.9617 447.866 32.1481V108.852Z" fill="#EE5046"/>
</g>
<defs>
<filter id="filter0_d_537_9" x="0" y="0" width="532" height="141" filterUnits="userSpaceOnUse" color-interpolation-filters="sRGB">
<feFlood flood-opacity="0" result="BackgroundImageFix"/>
<feColorMatrix in="SourceAlpha" type="matrix" values="0 0 0 0 0 0 0 0 0 0 0 0 0 0 0 0 0 0 127 0" result="hardAlpha"/>
<feOffset/>
<feGaussianBlur stdDeviation="15"/>
<feComposite in2="hardAlpha" operator="out"/>
<feColorMatrix type="matrix" values="0 0 0 0 1 0 0 0 0 1 0 0 0 0 1 0 0 0 1 0"/>
<feBlend mode="normal" in2="BackgroundImageFix" result="effect1_dropShadow_537_9"/>
<feBlend mode="normal" in="SourceGraphic" in2="effect1_dropShadow_537_9" result="shape"/>
</filter>
</defs>
</svg>
